<svg xmlns="http://www.w3.org/2000/svg" xmlns:xlink="http://www.w3.org/1999/xlink" width="318" height="166" viewBox="0 0 318 166"><defs><style>.a,.c{fill:#fff;}.b{fill:#222;font-size:25px;font-family:FlameSans-Regular, Flame Sans;}.d{clip-path:url(#c);}.e{fill:#ffc800;}.f{fill:url(#g);}.g,.h{stroke:none;}.h{fill:#ffc800;}.i{filter:url(#a);}</style><filter id="a" x="0" y="0" width="318" height="166" filterUnits="userSpaceOnUse"><feOffset dy="3" input="SourceAlpha"/><feGaussianBlur stdDeviation="3" result="b"/><feFlood flood-opacity="0.161"/><feComposite operator="in" in2="b"/><feComposite in="SourceGraphic"/></filter><clipPath id="c"/><linearGradient id="g" x1="0.5" y1="0.159" x2="0.5" y2="3.616" gradientUnits="objectBoundingBox"><stop offset="0" stop-color="#f3ad3d"/><stop offset="1" stop-color="#4a2518"/></linearGradient></defs><g transform="translate(-923 -3119)"><g class="i" transform="matrix(1, 0, 0, 1, 923, 3119)"><rect class="a" width="300" height="148" rx="10" transform="translate(9 6)"/></g><text class="b" transform="translate(988 3194)"><tspan x="0" y="0">Brand Standards</tspan></text><g transform="translate(997 3198)"><g class="c"><path class="g" d="M 28.86557960510254 36.01560974121094 C 28.66297912597656 36.01562881469727 28.46817970275879 35.94902038574219 28.28659057617188 35.81761169433594 L 21.75868988037109 31.09396934509277 C 21.24374961853027 30.72137069702148 20.63559913635254 30.5244197845459 20 30.5244197845459 C 19.36440086364746 30.5244197845459 18.75625038146973 30.72137069702148 18.24131965637207 31.09396934509277 L 11.71341037750244 35.81761169433594 C 11.53184032440186 35.94900131225586 11.33701992034912 36.01560974121094 11.13434028625488 36.01560974121094 C 10.82421016693115 36.01560974121094 10.51047992706299 35.85562133789062 10.31558036804199 35.59806060791016 C 10.18459987640381 35.42496871948242 10.05212020874023 35.13486862182617 10.16481018066406 34.73574066162109 L 12.51313018798828 26.41880989074707 C 12.84031963348389 25.26003074645996 12.44591045379639 24.02310943603516 11.50833034515381 23.26761054992676 L 4.860010147094727 17.91050910949707 C 4.355979919433594 17.50436973571777 4.487649917602539 16.9669303894043 4.540019989013672 16.81188011169434 C 4.592380046844482 16.65682983398438 4.813509941101074 16.14959907531738 5.460569858551025 16.13220977783203 L 13.63004970550537 15.91257953643799 C 14.88327026367188 15.87889003753662 15.99365043640137 15.05784034729004 16.39308929443359 13.8694896697998 L 19.05212020874023 5.958679676055908 C 19.26462936401367 5.326429843902588 19.83135986328125 5.277289867401123 20 5.277289867401123 C 20.16864013671875 5.277289867401123 20.73537063598633 5.326429843902588 20.94787979125977 5.958679676055908 L 23.60691070556641 13.8694896697998 C 24.00634956359863 15.05784034729004 25.11672973632812 15.87889003753662 26.36996078491211 15.91257953643799 L 34.5394287109375 16.13220024108887 C 35.18648910522461 16.14959907531738 35.40761947631836 16.65682983398438 35.45999145507812 16.81188011169434 C 35.51234817504883 16.9669303894043 35.64402008056641 17.50436973571777 35.13999176025391 17.91049957275391 L 28.49167060852051 23.26761054992676 C 27.55409049987793 24.02310943603516 27.1596794128418 25.26003074645996 27.48686981201172 26.41880989074707 L 29.83518981933594 34.73574066162109 C 29.94784927368164 35.13475799560547 29.81538009643555 35.42483139038086 29.68441963195801 35.59790802001953 C 29.48947906494141 35.85552978515625 29.17572021484375 36.01559066772461 28.86557960510254 36.01560974121094 Z"/><path class="h" d="M 20 6.277290344238281 L 17.34096908569336 14.18808937072754 C 16.80839920043945 15.77256011962891 15.32789039611816 16.8673095703125 13.65693092346191 16.9122200012207 L 5.487461090087891 17.13183975219727 C 5.487453460693359 17.13183975219727 5.487445831298828 17.13183975219727 5.487442016601562 17.13183975219727 C 5.487442016601562 17.13183975219727 5.487442016601562 17.13183975219727 5.487438201904297 17.13183975219727 L 12.13577079772949 22.48895072937012 C 13.38587951660156 23.49626922607422 13.9117603302002 25.14550018310547 13.47550964355469 26.6905403137207 L 11.1271800994873 35.00746917724609 C 11.1271800994873 35.00747299194336 11.12717819213867 35.00747680664062 11.12717819213867 35.00747680664062 C 11.12718200683594 35.00747680664062 11.1271858215332 35.00747299194336 11.12718963623047 35.00746917724609 L 17.65506935119629 30.28384017944336 C 18.34164047241211 29.78701972961426 19.15250015258789 29.5244197845459 20 29.5244197845459 C 20.84749031066895 29.5244197845459 21.65834999084473 29.78701972961426 22.34491920471191 30.28382873535156 L 28.87279510498047 35.00745010375977 C 28.87279891967773 35.00745010375977 28.87279891967773 35.0074462890625 28.87281036376953 35.00746917724609 L 26.52449035644531 26.6905403137207 C 26.0882396697998 25.14550018310547 26.61412048339844 23.49626922607422 27.86423873901367 22.48895072937012 L 34.51255035400391 17.13183975219727 L 26.34307098388672 16.9122200012207 C 24.67210006713867 16.86729049682617 23.19160079956055 15.77253913879395 22.65903091430664 14.18810081481934 L 20 6.277290344238281 M 20 4.277290344238281 C 20.79519844055176 4.277290344238281 21.59039497375488 4.731548309326172 21.8957691192627 5.640068054199219 L 24.55480003356934 13.55088043212891 C 24.82220077514648 14.34642028808594 25.5578498840332 14.89037895202637 26.39682960510254 14.91293907165527 L 34.56629943847656 15.13256072998047 C 36.42589950561523 15.18255996704102 37.21596145629883 17.52197074890137 35.76742935180664 18.68917083740234 L 29.11911010742188 24.04627990722656 C 28.4951000213623 24.54909896850586 28.23147964477539 25.37585067749023 28.44923973083496 26.14707946777344 L 30.79755973815918 34.46400833129883 C 31.18813323974609 35.84727478027344 30.08930778503418 37.0156135559082 28.86565971374512 37.0156135559082 C 28.47511672973633 37.0156135559082 28.07201385498047 36.89669036865234 27.70035934448242 36.62776184082031 L 21.17246055603027 31.90411949157715 C 20.82262992858887 31.65098571777344 20.41131591796875 31.52441787719727 20.00000190734863 31.52441787719727 C 19.58868789672852 31.52441787719727 19.17737579345703 31.65098571777344 18.82755088806152 31.90411949157715 L 12.29964065551758 36.62776184082031 C 11.92807960510254 36.89662551879883 11.52478981018066 37.0156135559082 11.13434028625488 37.0156135559082 C 9.910573959350586 37.0156135559082 8.811832427978516 35.84738540649414 9.202430725097656 34.46400833129883 L 11.55076026916504 26.14707946777344 C 11.76852035522461 25.37585067749023 11.5048999786377 24.54909896850586 10.88088989257812 24.04627990722656 L 4.232570648193359 18.68918037414551 C 2.784038543701172 17.52197074890137 3.574100494384766 15.18255996704102 5.433700561523438 15.13256072998047 L 13.60317993164062 14.91293907165527 C 14.4421501159668 14.89039039611816 15.17779922485352 14.34642028808594 15.44519996643066 13.55088043212891 L 18.1042308807373 5.640068054199219 C 18.40960502624512 4.731548309326172 19.20480155944824 4.277290344238281 20 4.277290344238281 Z"/></g><g class="d"><g class="e"><path class="g" d="M 28.86557960510254 36.01560974121094 C 28.66297912597656 36.01562881469727 28.46817970275879 35.94902038574219 28.28659057617188 35.81761169433594 L 21.75868988037109 31.09396934509277 C 21.24374961853027 30.72137069702148 20.63559913635254 30.5244197845459 20 30.5244197845459 C 19.36440086364746 30.5244197845459 18.75625038146973 30.72137069702148 18.24131965637207 31.09396934509277 L 11.71341037750244 35.81761169433594 C 11.53184032440186 35.94900131225586 11.33701992034912 36.01560974121094 11.13434028625488 36.01560974121094 C 10.82421016693115 36.01560974121094 10.51047992706299 35.85562133789062 10.31558036804199 35.59806060791016 C 10.18459987640381 35.42496871948242 10.05212020874023 35.13486862182617 10.16481018066406 34.73574066162109 L 12.51313018798828 26.41880989074707 C 12.84031963348389 25.26003074645996 12.44591045379639 24.02310943603516 11.50833034515381 23.26761054992676 L 4.860010147094727 17.91050910949707 C 4.355979919433594 17.50436973571777 4.487649917602539 16.9669303894043 4.540019989013672 16.81188011169434 C 4.592380046844482 16.65682983398438 4.813509941101074 16.14959907531738 5.460569858551025 16.13220977783203 L 13.63004970550537 15.91257953643799 C 14.88327026367188 15.87889003753662 15.99365043640137 15.05784034729004 16.39308929443359 13.8694896697998 L 19.05212020874023 5.958679676055908 C 19.26462936401367 5.326429843902588 19.83135986328125 5.277289867401123 20 5.277289867401123 C 20.16864013671875 5.277289867401123 20.73537063598633 5.326429843902588 20.94787979125977 5.958679676055908 L 23.60691070556641 13.8694896697998 C 24.00634956359863 15.05784034729004 25.11672973632812 15.87889003753662 26.36996078491211 15.91257953643799 L 34.5394287109375 16.13220024108887 C 35.18648910522461 16.14959907531738 35.40761947631836 16.65682983398438 35.45999145507812 16.81188011169434 C 35.51234817504883 16.9669303894043 35.64402008056641 17.50436973571777 35.13999176025391 17.91049957275391 L 28.49167060852051 23.26761054992676 C 27.55409049987793 24.02310943603516 27.1596794128418 25.26003074645996 27.48686981201172 26.41880989074707 L 29.83518981933594 34.73574066162109 C 29.94784927368164 35.13475799560547 29.81538009643555 35.42483139038086 29.68441963195801 35.59790802001953 C 29.48947906494141 35.85552978515625 29.17572021484375 36.01559066772461 28.86557960510254 36.01560974121094 Z"/><path class="h" d="M 20 6.277290344238281 L 17.34096908569336 14.18808937072754 C 16.80839920043945 15.77256011962891 15.32789039611816 16.8673095703125 13.65693092346191 16.9122200012207 L 5.487461090087891 17.13183975219727 C 5.487453460693359 17.13183975219727 5.487445831298828 17.13183975219727 5.487442016601562 17.13183975219727 C 5.487442016601562 17.13183975219727 5.487442016601562 17.13183975219727 5.487438201904297 17.13183975219727 L 12.13577079772949 22.48895072937012 C 13.38587951660156 23.49626922607422 13.9117603302002 25.14550018310547 13.47550964355469 26.6905403137207 L 11.1271800994873 35.00746917724609 C 11.1271800994873 35.00747299194336 11.12717819213867 35.00747680664062 11.12717819213867 35.00747680664062 C 11.12718200683594 35.00747680664062 11.1271858215332 35.00747299194336 11.12718963623047 35.00746917724609 L 17.65506935119629 30.28384017944336 C 18.34164047241211 29.78701972961426 19.15250015258789 29.5244197845459 20 29.5244197845459 C 20.84749031066895 29.5244197845459 21.65834999084473 29.78701972961426 22.34491920471191 30.28382873535156 L 28.87279510498047 35.00745010375977 C 28.87279891967773 35.00745010375977 28.87279891967773 35.0074462890625 28.87281036376953 35.00746917724609 L 26.52449035644531 26.6905403137207 C 26.0882396697998 25.14550018310547 26.61412048339844 23.49626922607422 27.86423873901367 22.48895072937012 L 34.51255035400391 17.13183975219727 L 26.34307098388672 16.9122200012207 C 24.67210006713867 16.86729049682617 23.19160079956055 15.77253913879395 22.65903091430664 14.18810081481934 L 20 6.277290344238281 M 20 4.277290344238281 C 20.79519844055176 4.277290344238281 21.59039497375488 4.731548309326172 21.8957691192627 5.640068054199219 L 24.55480003356934 13.55088043212891 C 24.82220077514648 14.34642028808594 25.5578498840332 14.89037895202637 26.39682960510254 14.91293907165527 L 34.56629943847656 15.13256072998047 C 36.42589950561523 15.18255996704102 37.21596145629883 17.52197074890137 35.76742935180664 18.68917083740234 L 29.11911010742188 24.04627990722656 C 28.4951000213623 24.54909896850586 28.23147964477539 25.37585067749023 28.44923973083496 26.14707946777344 L 30.79755973815918 34.46400833129883 C 31.18813323974609 35.84727478027344 30.08930778503418 37.0156135559082 28.86565971374512 37.0156135559082 C 28.47511672973633 37.0156135559082 28.07201385498047 36.89669036865234 27.70035934448242 36.62776184082031 L 21.17246055603027 31.90411949157715 C 20.82262992858887 31.65098571777344 20.41131591796875 31.52441787719727 20.00000190734863 31.52441787719727 C 19.58868789672852 31.52441787719727 19.17737579345703 31.65098571777344 18.82755088806152 31.90411949157715 L 12.29964065551758 36.62776184082031 C 11.92807960510254 36.89662551879883 11.52478981018066 37.0156135559082 11.13434028625488 37.0156135559082 C 9.910573959350586 37.0156135559082 8.811832427978516 35.84738540649414 9.202430725097656 34.46400833129883 L 11.55076026916504 26.14707946777344 C 11.76852035522461 25.37585067749023 11.5048999786377 24.54909896850586 10.88088989257812 24.04627990722656 L 4.232570648193359 18.68918037414551 C 2.784038543701172 17.52197074890137 3.574100494384766 15.18255996704102 5.433700561523438 15.13256072998047 L 13.60317993164062 14.91293907165527 C 14.4421501159668 14.89039039611816 15.17779922485352 14.34642028808594 15.44519996643066 13.55088043212891 L 18.1042308807373 5.640068054199219 C 18.40960502624512 4.731548309326172 19.20480155944824 4.277290344238281 20 4.277290344238281 Z"/></g></g><g transform="translate(33)"><g class="c"><path class="g" d="M 28.86557960510254 36.01560974121094 C 28.66297912597656 36.01562881469727 28.46817970275879 35.94902038574219 28.28659057617188 35.81761169433594 L 21.75868988037109 31.09396934509277 C 21.24374961853027 30.72137069702148 20.63559913635254 30.5244197845459 20 30.5244197845459 C 19.36440086364746 30.5244197845459 18.75625038146973 30.72137069702148 18.24131965637207 31.09396934509277 L 11.71341037750244 35.81761169433594 C 11.53184032440186 35.94900131225586 11.33701992034912 36.01560974121094 11.13434028625488 36.01560974121094 C 10.82421016693115 36.01560974121094 10.51047992706299 35.85562133789062 10.31558036804199 35.59806060791016 C 10.18459987640381 35.42496871948242 10.05212020874023 35.13486862182617 10.16481018066406 34.73574066162109 L 12.51313018798828 26.41880989074707 C 12.84031963348389 25.26003074645996 12.44591045379639 24.02310943603516 11.50833034515381 23.26761054992676 L 4.860010147094727 17.91050910949707 C 4.355979919433594 17.50436973571777 4.487649917602539 16.9669303894043 4.540019989013672 16.81188011169434 C 4.592380046844482 16.65682983398438 4.813509941101074 16.14959907531738 5.460569858551025 16.13220977783203 L 13.63004970550537 15.91257953643799 C 14.88327026367188 15.87889003753662 15.99365043640137 15.05784034729004 16.39308929443359 13.8694896697998 L 19.05212020874023 5.958679676055908 C 19.26462936401367 5.326429843902588 19.83135986328125 5.277289867401123 20 5.277289867401123 C 20.16864013671875 5.277289867401123 20.73537063598633 5.326429843902588 20.94787979125977 5.958679676055908 L 23.60691070556641 13.8694896697998 C 24.00634956359863 15.05784034729004 25.11672973632812 15.87889003753662 26.36996078491211 15.91257953643799 L 34.5394287109375 16.13220024108887 C 35.18648910522461 16.14959907531738 35.40761947631836 16.65682983398438 35.45999145507812 16.81188011169434 C 35.51234817504883 16.9669303894043 35.64402008056641 17.50436973571777 35.13999176025391 17.91049957275391 L 28.49167060852051 23.26761054992676 C 27.55409049987793 24.02310943603516 27.1596794128418 25.26003074645996 27.48686981201172 26.41880989074707 L 29.83518981933594 34.73574066162109 C 29.94784927368164 35.13475799560547 29.81538009643555 35.42483139038086 29.68441963195801 35.59790802001953 C 29.48947906494141 35.85552978515625 29.17572021484375 36.01559066772461 28.86557960510254 36.01560974121094 Z"/><path class="h" d="M 20 6.277290344238281 L 17.34096908569336 14.18808937072754 C 16.80839920043945 15.77256011962891 15.32789039611816 16.8673095703125 13.65693092346191 16.9122200012207 L 5.487461090087891 17.13183975219727 C 5.487453460693359 17.13183975219727 5.487445831298828 17.13183975219727 5.487442016601562 17.13183975219727 C 5.487442016601562 17.13183975219727 5.487442016601562 17.13183975219727 5.487438201904297 17.13183975219727 L 12.13577079772949 22.48895072937012 C 13.38587951660156 23.49626922607422 13.9117603302002 25.14550018310547 13.47550964355469 26.6905403137207 L 11.1271800994873 35.00746917724609 C 11.1271800994873 35.00747299194336 11.12717819213867 35.00747680664062 11.12717819213867 35.00747680664062 C 11.12718200683594 35.00747680664062 11.1271858215332 35.00747299194336 11.12718963623047 35.00746917724609 L 17.65506935119629 30.28384017944336 C 18.34164047241211 29.78701972961426 19.15250015258789 29.5244197845459 20 29.5244197845459 C 20.84749031066895 29.5244197845459 21.65834999084473 29.78701972961426 22.34491920471191 30.28382873535156 L 28.87279510498047 35.00745010375977 C 28.87279891967773 35.00745010375977 28.87279891967773 35.0074462890625 28.87281036376953 35.00746917724609 L 26.52449035644531 26.6905403137207 C 26.0882396697998 25.14550018310547 26.61412048339844 23.49626922607422 27.86423873901367 22.48895072937012 L 34.51255035400391 17.13183975219727 L 26.34307098388672 16.9122200012207 C 24.67210006713867 16.86729049682617 23.19160079956055 15.77253913879395 22.65903091430664 14.18810081481934 L 20 6.277290344238281 M 20 4.277290344238281 C 20.79519844055176 4.277290344238281 21.59039497375488 4.731548309326172 21.8957691192627 5.640068054199219 L 24.55480003356934 13.55088043212891 C 24.82220077514648 14.34642028808594 25.5578498840332 14.89037895202637 26.39682960510254 14.91293907165527 L 34.56629943847656 15.13256072998047 C 36.42589950561523 15.18255996704102 37.21596145629883 17.52197074890137 35.76742935180664 18.68917083740234 L 29.11911010742188 24.04627990722656 C 28.4951000213623 24.54909896850586 28.23147964477539 25.37585067749023 28.44923973083496 26.14707946777344 L 30.79755973815918 34.46400833129883 C 31.18813323974609 35.84727478027344 30.08930778503418 37.0156135559082 28.86565971374512 37.0156135559082 C 28.47511672973633 37.0156135559082 28.07201385498047 36.89669036865234 27.70035934448242 36.62776184082031 L 21.17246055603027 31.90411949157715 C 20.82262992858887 31.65098571777344 20.41131591796875 31.52441787719727 20.00000190734863 31.52441787719727 C 19.58868789672852 31.52441787719727 19.17737579345703 31.65098571777344 18.82755088806152 31.90411949157715 L 12.29964065551758 36.62776184082031 C 11.92807960510254 36.89662551879883 11.52478981018066 37.0156135559082 11.13434028625488 37.0156135559082 C 9.910573959350586 37.0156135559082 8.811832427978516 35.84738540649414 9.202430725097656 34.46400833129883 L 11.55076026916504 26.14707946777344 C 11.76852035522461 25.37585067749023 11.5048999786377 24.54909896850586 10.88088989257812 24.04627990722656 L 4.232570648193359 18.68918037414551 C 2.784038543701172 17.52197074890137 3.574100494384766 15.18255996704102 5.433700561523438 15.13256072998047 L 13.60317993164062 14.91293907165527 C 14.4421501159668 14.89039039611816 15.17779922485352 14.34642028808594 15.44519996643066 13.55088043212891 L 18.1042308807373 5.640068054199219 C 18.40960502624512 4.731548309326172 19.20480155944824 4.277290344238281 20 4.277290344238281 Z"/></g><g class="d"><g class="e"><path class="g" d="M 28.86557960510254 36.01560974121094 C 28.66297912597656 36.01562881469727 28.46817970275879 35.94902038574219 28.28659057617188 35.81761169433594 L 21.75868988037109 31.09396934509277 C 21.24374961853027 30.72137069702148 20.63559913635254 30.5244197845459 20 30.5244197845459 C 19.36440086364746 30.5244197845459 18.75625038146973 30.72137069702148 18.24131965637207 31.09396934509277 L 11.71341037750244 35.81761169433594 C 11.53184032440186 35.94900131225586 11.33701992034912 36.01560974121094 11.13434028625488 36.01560974121094 C 10.82421016693115 36.01560974121094 10.51047992706299 35.85562133789062 10.31558036804199 35.59806060791016 C 10.18459987640381 35.42496871948242 10.05212020874023 35.13486862182617 10.16481018066406 34.73574066162109 L 12.51313018798828 26.41880989074707 C 12.84031963348389 25.26003074645996 12.44591045379639 24.02310943603516 11.50833034515381 23.26761054992676 L 4.860010147094727 17.91050910949707 C 4.355979919433594 17.50436973571777 4.487649917602539 16.9669303894043 4.540019989013672 16.81188011169434 C 4.592380046844482 16.65682983398438 4.813509941101074 16.14959907531738 5.460569858551025 16.13220977783203 L 13.63004970550537 15.91257953643799 C 14.88327026367188 15.87889003753662 15.99365043640137 15.05784034729004 16.39308929443359 13.8694896697998 L 19.05212020874023 5.958679676055908 C 19.26462936401367 5.326429843902588 19.83135986328125 5.277289867401123 20 5.277289867401123 C 20.16864013671875 5.277289867401123 20.73537063598633 5.326429843902588 20.94787979125977 5.958679676055908 L 23.60691070556641 13.8694896697998 C 24.00634956359863 15.05784034729004 25.11672973632812 15.87889003753662 26.36996078491211 15.91257953643799 L 34.5394287109375 16.13220024108887 C 35.18648910522461 16.14959907531738 35.40761947631836 16.65682983398438 35.45999145507812 16.81188011169434 C 35.51234817504883 16.9669303894043 35.64402008056641 17.50436973571777 35.13999176025391 17.91049957275391 L 28.49167060852051 23.26761054992676 C 27.55409049987793 24.02310943603516 27.1596794128418 25.26003074645996 27.48686981201172 26.41880989074707 L 29.83518981933594 34.73574066162109 C 29.94784927368164 35.13475799560547 29.81538009643555 35.42483139038086 29.68441963195801 35.59790802001953 C 29.48947906494141 35.85552978515625 29.17572021484375 36.01559066772461 28.86557960510254 36.01560974121094 Z"/><path class="h" d="M 20 6.277290344238281 L 17.34096908569336 14.18808937072754 C 16.80839920043945 15.77256011962891 15.32789039611816 16.8673095703125 13.65693092346191 16.9122200012207 L 5.487461090087891 17.13183975219727 C 5.487453460693359 17.13183975219727 5.487445831298828 17.13183975219727 5.487442016601562 17.13183975219727 C 5.487442016601562 17.13183975219727 5.487442016601562 17.13183975219727 5.487438201904297 17.13183975219727 L 12.13577079772949 22.48895072937012 C 13.38587951660156 23.49626922607422 13.9117603302002 25.14550018310547 13.47550964355469 26.6905403137207 L 11.1271800994873 35.00746917724609 C 11.1271800994873 35.00747299194336 11.12717819213867 35.00747680664062 11.12717819213867 35.00747680664062 C 11.12718200683594 35.00747680664062 11.1271858215332 35.00747299194336 11.12718963623047 35.00746917724609 L 17.65506935119629 30.28384017944336 C 18.34164047241211 29.78701972961426 19.15250015258789 29.5244197845459 20 29.5244197845459 C 20.84749031066895 29.5244197845459 21.65834999084473 29.78701972961426 22.34491920471191 30.28382873535156 L 28.87279510498047 35.00745010375977 C 28.87279891967773 35.00745010375977 28.87279891967773 35.0074462890625 28.87281036376953 35.00746917724609 L 26.52449035644531 26.6905403137207 C 26.0882396697998 25.14550018310547 26.61412048339844 23.49626922607422 27.86423873901367 22.48895072937012 L 34.51255035400391 17.13183975219727 L 26.34307098388672 16.9122200012207 C 24.67210006713867 16.86729049682617 23.19160079956055 15.77253913879395 22.65903091430664 14.18810081481934 L 20 6.277290344238281 M 20 4.277290344238281 C 20.79519844055176 4.277290344238281 21.59039497375488 4.731548309326172 21.8957691192627 5.640068054199219 L 24.55480003356934 13.55088043212891 C 24.82220077514648 14.34642028808594 25.5578498840332 14.89037895202637 26.39682960510254 14.91293907165527 L 34.56629943847656 15.13256072998047 C 36.42589950561523 15.18255996704102 37.21596145629883 17.52197074890137 35.76742935180664 18.68917083740234 L 29.11911010742188 24.04627990722656 C 28.4951000213623 24.54909896850586 28.23147964477539 25.37585067749023 28.44923973083496 26.14707946777344 L 30.79755973815918 34.46400833129883 C 31.18813323974609 35.84727478027344 30.08930778503418 37.0156135559082 28.86565971374512 37.0156135559082 C 28.47511672973633 37.0156135559082 28.07201385498047 36.89669036865234 27.70035934448242 36.62776184082031 L 21.17246055603027 31.90411949157715 C 20.82262992858887 31.65098571777344 20.41131591796875 31.52441787719727 20.00000190734863 31.52441787719727 C 19.58868789672852 31.52441787719727 19.17737579345703 31.65098571777344 18.82755088806152 31.90411949157715 L 12.29964065551758 36.62776184082031 C 11.92807960510254 36.89662551879883 11.52478981018066 37.0156135559082 11.13434028625488 37.0156135559082 C 9.910573959350586 37.0156135559082 8.811832427978516 35.84738540649414 9.202430725097656 34.46400833129883 L 11.55076026916504 26.14707946777344 C 11.76852035522461 25.37585067749023 11.5048999786377 24.54909896850586 10.88088989257812 24.04627990722656 L 4.232570648193359 18.68918037414551 C 2.784038543701172 17.52197074890137 3.574100494384766 15.18255996704102 5.433700561523438 15.13256072998047 L 13.60317993164062 14.91293907165527 C 14.4421501159668 14.89039039611816 15.17779922485352 14.34642028808594 15.44519996643066 13.55088043212891 L 18.1042308807373 5.640068054199219 C 18.40960502624512 4.731548309326172 19.20480155944824 4.277290344238281 20 4.277290344238281 Z"/></g></g></g><g transform="translate(65)"><g class="c"><path class="g" d="M 28.86557960510254 36.01560974121094 C 28.66297912597656 36.01562881469727 28.46817970275879 35.94902038574219 28.28659057617188 35.81761169433594 L 21.75868988037109 31.09396934509277 C 21.24374961853027 30.72137069702148 20.63559913635254 30.5244197845459 20 30.5244197845459 C 19.36440086364746 30.5244197845459 18.75625038146973 30.72137069702148 18.24131965637207 31.09396934509277 L 11.71341037750244 35.81761169433594 C 11.53184032440186 35.94900131225586 11.33701992034912 36.01560974121094 11.13434028625488 36.01560974121094 C 10.82421016693115 36.01560974121094 10.51047992706299 35.85562133789062 10.31558036804199 35.59806060791016 C 10.18459987640381 35.42496871948242 10.05212020874023 35.13486862182617 10.16481018066406 34.73574066162109 L 12.51313018798828 26.41880989074707 C 12.84031963348389 25.26003074645996 12.44591045379639 24.02310943603516 11.50833034515381 23.26761054992676 L 4.860010147094727 17.91050910949707 C 4.355979919433594 17.50436973571777 4.487649917602539 16.9669303894043 4.540019989013672 16.81188011169434 C 4.592380046844482 16.65682983398438 4.813509941101074 16.14959907531738 5.460569858551025 16.13220977783203 L 13.63004970550537 15.91257953643799 C 14.88327026367188 15.87889003753662 15.99365043640137 15.05784034729004 16.39308929443359 13.8694896697998 L 19.05212020874023 5.958679676055908 C 19.26462936401367 5.326429843902588 19.83135986328125 5.277289867401123 20 5.277289867401123 C 20.16864013671875 5.277289867401123 20.73537063598633 5.326429843902588 20.94787979125977 5.958679676055908 L 23.60691070556641 13.8694896697998 C 24.00634956359863 15.05784034729004 25.11672973632812 15.87889003753662 26.36996078491211 15.91257953643799 L 34.5394287109375 16.13220024108887 C 35.18648910522461 16.14959907531738 35.40761947631836 16.65682983398438 35.45999145507812 16.81188011169434 C 35.51234817504883 16.9669303894043 35.64402008056641 17.50436973571777 35.13999176025391 17.91049957275391 L 28.49167060852051 23.26761054992676 C 27.55409049987793 24.02310943603516 27.1596794128418 25.26003074645996 27.48686981201172 26.41880989074707 L 29.83518981933594 34.73574066162109 C 29.94784927368164 35.13475799560547 29.81538009643555 35.42483139038086 29.68441963195801 35.59790802001953 C 29.48947906494141 35.85552978515625 29.17572021484375 36.01559066772461 28.86557960510254 36.01560974121094 Z"/><path class="h" d="M 20 6.277290344238281 L 17.34096908569336 14.18808937072754 C 16.80839920043945 15.77256011962891 15.32789039611816 16.8673095703125 13.65693092346191 16.9122200012207 L 5.487461090087891 17.13183975219727 C 5.487453460693359 17.13183975219727 5.487445831298828 17.13183975219727 5.487442016601562 17.13183975219727 C 5.487442016601562 17.13183975219727 5.487442016601562 17.13183975219727 5.487438201904297 17.13183975219727 L 12.13577079772949 22.48895072937012 C 13.38587951660156 23.49626922607422 13.9117603302002 25.14550018310547 13.47550964355469 26.6905403137207 L 11.1271800994873 35.00746917724609 C 11.1271800994873 35.00747299194336 11.12717819213867 35.00747680664062 11.12717819213867 35.00747680664062 C 11.12718200683594 35.00747680664062 11.1271858215332 35.00747299194336 11.12718963623047 35.00746917724609 L 17.65506935119629 30.28384017944336 C 18.34164047241211 29.78701972961426 19.15250015258789 29.5244197845459 20 29.5244197845459 C 20.84749031066895 29.5244197845459 21.65834999084473 29.78701972961426 22.34491920471191 30.28382873535156 L 28.87279510498047 35.00745010375977 C 28.87279891967773 35.00745010375977 28.87279891967773 35.0074462890625 28.87281036376953 35.00746917724609 L 26.52449035644531 26.6905403137207 C 26.0882396697998 25.14550018310547 26.61412048339844 23.49626922607422 27.86423873901367 22.48895072937012 L 34.51255035400391 17.13183975219727 L 26.34307098388672 16.9122200012207 C 24.67210006713867 16.86729049682617 23.19160079956055 15.77253913879395 22.65903091430664 14.18810081481934 L 20 6.277290344238281 M 20 4.277290344238281 C 20.79519844055176 4.277290344238281 21.59039497375488 4.731548309326172 21.8957691192627 5.640068054199219 L 24.55480003356934 13.55088043212891 C 24.82220077514648 14.34642028808594 25.5578498840332 14.89037895202637 26.39682960510254 14.91293907165527 L 34.56629943847656 15.13256072998047 C 36.42589950561523 15.18255996704102 37.21596145629883 17.52197074890137 35.76742935180664 18.68917083740234 L 29.11911010742188 24.04627990722656 C 28.4951000213623 24.54909896850586 28.23147964477539 25.37585067749023 28.44923973083496 26.14707946777344 L 30.79755973815918 34.46400833129883 C 31.18813323974609 35.84727478027344 30.08930778503418 37.0156135559082 28.86565971374512 37.0156135559082 C 28.47511672973633 37.0156135559082 28.07201385498047 36.89669036865234 27.70035934448242 36.62776184082031 L 21.17246055603027 31.90411949157715 C 20.82262992858887 31.65098571777344 20.41131591796875 31.52441787719727 20.00000190734863 31.52441787719727 C 19.58868789672852 31.52441787719727 19.17737579345703 31.65098571777344 18.82755088806152 31.90411949157715 L 12.29964065551758 36.62776184082031 C 11.92807960510254 36.89662551879883 11.52478981018066 37.0156135559082 11.13434028625488 37.0156135559082 C 9.910573959350586 37.0156135559082 8.811832427978516 35.84738540649414 9.202430725097656 34.46400833129883 L 11.55076026916504 26.14707946777344 C 11.76852035522461 25.37585067749023 11.5048999786377 24.54909896850586 10.88088989257812 24.04627990722656 L 4.232570648193359 18.68918037414551 C 2.784038543701172 17.52197074890137 3.574100494384766 15.18255996704102 5.433700561523438 15.13256072998047 L 13.60317993164062 14.91293907165527 C 14.4421501159668 14.89039039611816 15.17779922485352 14.34642028808594 15.44519996643066 13.55088043212891 L 18.1042308807373 5.640068054199219 C 18.40960502624512 4.731548309326172 19.20480155944824 4.277290344238281 20 4.277290344238281 Z"/></g><g class="d"><g class="e"><path class="g" d="M 28.86557960510254 36.01560974121094 C 28.66297912597656 36.01562881469727 28.46817970275879 35.94902038574219 28.28659057617188 35.81761169433594 L 21.75868988037109 31.09396934509277 C 21.24374961853027 30.72137069702148 20.63559913635254 30.5244197845459 20 30.5244197845459 C 19.36440086364746 30.5244197845459 18.75625038146973 30.72137069702148 18.24131965637207 31.09396934509277 L 11.71341037750244 35.81761169433594 C 11.53184032440186 35.94900131225586 11.33701992034912 36.01560974121094 11.13434028625488 36.01560974121094 C 10.82421016693115 36.01560974121094 10.51047992706299 35.85562133789062 10.31558036804199 35.59806060791016 C 10.18459987640381 35.42496871948242 10.05212020874023 35.13486862182617 10.16481018066406 34.73574066162109 L 12.51313018798828 26.41880989074707 C 12.84031963348389 25.26003074645996 12.44591045379639 24.02310943603516 11.50833034515381 23.26761054992676 L 4.860010147094727 17.91050910949707 C 4.355979919433594 17.50436973571777 4.487649917602539 16.9669303894043 4.540019989013672 16.81188011169434 C 4.592380046844482 16.65682983398438 4.813509941101074 16.14959907531738 5.460569858551025 16.13220977783203 L 13.63004970550537 15.91257953643799 C 14.88327026367188 15.87889003753662 15.99365043640137 15.05784034729004 16.39308929443359 13.8694896697998 L 19.05212020874023 5.958679676055908 C 19.26462936401367 5.326429843902588 19.83135986328125 5.277289867401123 20 5.277289867401123 C 20.16864013671875 5.277289867401123 20.73537063598633 5.326429843902588 20.94787979125977 5.958679676055908 L 23.60691070556641 13.8694896697998 C 24.00634956359863 15.05784034729004 25.11672973632812 15.87889003753662 26.36996078491211 15.91257953643799 L 34.5394287109375 16.13220024108887 C 35.18648910522461 16.14959907531738 35.40761947631836 16.65682983398438 35.45999145507812 16.81188011169434 C 35.51234817504883 16.9669303894043 35.64402008056641 17.50436973571777 35.13999176025391 17.91049957275391 L 28.49167060852051 23.26761054992676 C 27.55409049987793 24.02310943603516 27.1596794128418 25.26003074645996 27.48686981201172 26.41880989074707 L 29.83518981933594 34.73574066162109 C 29.94784927368164 35.13475799560547 29.81538009643555 35.42483139038086 29.68441963195801 35.59790802001953 C 29.48947906494141 35.85552978515625 29.17572021484375 36.01559066772461 28.86557960510254 36.01560974121094 Z"/><path class="h" d="M 20 6.277290344238281 L 17.34096908569336 14.18808937072754 C 16.80839920043945 15.77256011962891 15.32789039611816 16.8673095703125 13.65693092346191 16.9122200012207 L 5.487461090087891 17.13183975219727 C 5.487453460693359 17.13183975219727 5.487445831298828 17.13183975219727 5.487442016601562 17.13183975219727 C 5.487442016601562 17.13183975219727 5.487442016601562 17.13183975219727 5.487438201904297 17.13183975219727 L 12.13577079772949 22.48895072937012 C 13.38587951660156 23.49626922607422 13.9117603302002 25.14550018310547 13.47550964355469 26.6905403137207 L 11.1271800994873 35.00746917724609 C 11.1271800994873 35.00747299194336 11.12717819213867 35.00747680664062 11.12717819213867 35.00747680664062 C 11.12718200683594 35.00747680664062 11.1271858215332 35.00747299194336 11.12718963623047 35.00746917724609 L 17.65506935119629 30.28384017944336 C 18.34164047241211 29.78701972961426 19.15250015258789 29.5244197845459 20 29.5244197845459 C 20.84749031066895 29.5244197845459 21.65834999084473 29.78701972961426 22.34491920471191 30.28382873535156 L 28.87279510498047 35.00745010375977 C 28.87279891967773 35.00745010375977 28.87279891967773 35.0074462890625 28.87281036376953 35.00746917724609 L 26.52449035644531 26.6905403137207 C 26.0882396697998 25.14550018310547 26.61412048339844 23.49626922607422 27.86423873901367 22.48895072937012 L 34.51255035400391 17.13183975219727 L 26.34307098388672 16.9122200012207 C 24.67210006713867 16.86729049682617 23.19160079956055 15.77253913879395 22.65903091430664 14.18810081481934 L 20 6.277290344238281 M 20 4.277290344238281 C 20.79519844055176 4.277290344238281 21.59039497375488 4.731548309326172 21.8957691192627 5.640068054199219 L 24.55480003356934 13.55088043212891 C 24.82220077514648 14.34642028808594 25.5578498840332 14.89037895202637 26.39682960510254 14.91293907165527 L 34.56629943847656 15.13256072998047 C 36.42589950561523 15.18255996704102 37.21596145629883 17.52197074890137 35.76742935180664 18.68917083740234 L 29.11911010742188 24.04627990722656 C 28.4951000213623 24.54909896850586 28.23147964477539 25.37585067749023 28.44923973083496 26.14707946777344 L 30.79755973815918 34.46400833129883 C 31.18813323974609 35.84727478027344 30.08930778503418 37.0156135559082 28.86565971374512 37.0156135559082 C 28.47511672973633 37.0156135559082 28.07201385498047 36.89669036865234 27.70035934448242 36.62776184082031 L 21.17246055603027 31.90411949157715 C 20.82262992858887 31.65098571777344 20.41131591796875 31.52441787719727 20.00000190734863 31.52441787719727 C 19.58868789672852 31.52441787719727 19.17737579345703 31.65098571777344 18.82755088806152 31.90411949157715 L 12.29964065551758 36.62776184082031 C 11.92807960510254 36.89662551879883 11.52478981018066 37.0156135559082 11.13434028625488 37.0156135559082 C 9.910573959350586 37.0156135559082 8.811832427978516 35.84738540649414 9.202430725097656 34.46400833129883 L 11.55076026916504 26.14707946777344 C 11.76852035522461 25.37585067749023 11.5048999786377 24.54909896850586 10.88088989257812 24.04627990722656 L 4.232570648193359 18.68918037414551 C 2.784038543701172 17.52197074890137 3.574100494384766 15.18255996704102 5.433700561523438 15.13256072998047 L 13.60317993164062 14.91293907165527 C 14.4421501159668 14.89039039611816 15.17779922485352 14.34642028808594 15.44519996643066 13.55088043212891 L 18.1042308807373 5.640068054199219 C 18.40960502624512 4.731548309326172 19.20480155944824 4.277290344238281 20 4.277290344238281 Z"/></g></g></g><g transform="translate(98)"><g class="c"><path class="g" d="M 28.86557960510254 36.01560974121094 C 28.66297912597656 36.01562881469727 28.46817970275879 35.94902038574219 28.28659057617188 35.81761169433594 L 21.75868988037109 31.09396934509277 C 21.24374961853027 30.72137069702148 20.63559913635254 30.5244197845459 20 30.5244197845459 C 19.36440086364746 30.5244197845459 18.75625038146973 30.72137069702148 18.24131965637207 31.09396934509277 L 11.71341037750244 35.81761169433594 C 11.53184032440186 35.94900131225586 11.33701992034912 36.01560974121094 11.13434028625488 36.01560974121094 C 10.82421016693115 36.01560974121094 10.51047992706299 35.85562133789062 10.31558036804199 35.59806060791016 C 10.18459987640381 35.42496871948242 10.05212020874023 35.13486862182617 10.16481018066406 34.73574066162109 L 12.51313018798828 26.41880989074707 C 12.84031963348389 25.26003074645996 12.44591045379639 24.02310943603516 11.50833034515381 23.26761054992676 L 4.860010147094727 17.91050910949707 C 4.355979919433594 17.50436973571777 4.487649917602539 16.9669303894043 4.540019989013672 16.81188011169434 C 4.592380046844482 16.65682983398438 4.813509941101074 16.14959907531738 5.460569858551025 16.13220977783203 L 13.63004970550537 15.91257953643799 C 14.88327026367188 15.87889003753662 15.99365043640137 15.05784034729004 16.39308929443359 13.8694896697998 L 19.05212020874023 5.958679676055908 C 19.26462936401367 5.326429843902588 19.83135986328125 5.277289867401123 20 5.277289867401123 C 20.16864013671875 5.277289867401123 20.73537063598633 5.326429843902588 20.94787979125977 5.958679676055908 L 23.60691070556641 13.8694896697998 C 24.00634956359863 15.05784034729004 25.11672973632812 15.87889003753662 26.36996078491211 15.91257953643799 L 34.5394287109375 16.13220024108887 C 35.18648910522461 16.14959907531738 35.40761947631836 16.65682983398438 35.45999145507812 16.81188011169434 C 35.51234817504883 16.9669303894043 35.64402008056641 17.50436973571777 35.13999176025391 17.91049957275391 L 28.49167060852051 23.26761054992676 C 27.55409049987793 24.02310943603516 27.1596794128418 25.26003074645996 27.48686981201172 26.41880989074707 L 29.83518981933594 34.73574066162109 C 29.94784927368164 35.13475799560547 29.81538009643555 35.42483139038086 29.68441963195801 35.59790802001953 C 29.48947906494141 35.85552978515625 29.17572021484375 36.01559066772461 28.86557960510254 36.01560974121094 Z"/><path class="h" d="M 20 6.277290344238281 L 17.34096908569336 14.18808937072754 C 16.80839920043945 15.77256011962891 15.32789039611816 16.8673095703125 13.65693092346191 16.9122200012207 L 5.487461090087891 17.13183975219727 C 5.487453460693359 17.13183975219727 5.487445831298828 17.13183975219727 5.487442016601562 17.13183975219727 C 5.487442016601562 17.13183975219727 5.487442016601562 17.13183975219727 5.487438201904297 17.13183975219727 L 12.13577079772949 22.48895072937012 C 13.38587951660156 23.49626922607422 13.9117603302002 25.14550018310547 13.47550964355469 26.6905403137207 L 11.1271800994873 35.00746917724609 C 11.1271800994873 35.00747299194336 11.12717819213867 35.00747680664062 11.12717819213867 35.00747680664062 C 11.12718200683594 35.00747680664062 11.1271858215332 35.00747299194336 11.12718963623047 35.00746917724609 L 17.65506935119629 30.28384017944336 C 18.34164047241211 29.78701972961426 19.15250015258789 29.5244197845459 20 29.5244197845459 C 20.84749031066895 29.5244197845459 21.65834999084473 29.78701972961426 22.34491920471191 30.28382873535156 L 28.87279510498047 35.00745010375977 C 28.87279891967773 35.00745010375977 28.87279891967773 35.0074462890625 28.87281036376953 35.00746917724609 L 26.52449035644531 26.6905403137207 C 26.0882396697998 25.14550018310547 26.61412048339844 23.49626922607422 27.86423873901367 22.48895072937012 L 34.51255035400391 17.13183975219727 L 26.34307098388672 16.9122200012207 C 24.67210006713867 16.86729049682617 23.19160079956055 15.77253913879395 22.65903091430664 14.18810081481934 L 20 6.277290344238281 M 20 4.277290344238281 C 20.79519844055176 4.277290344238281 21.59039497375488 4.731548309326172 21.8957691192627 5.640068054199219 L 24.55480003356934 13.55088043212891 C 24.82220077514648 14.34642028808594 25.5578498840332 14.89037895202637 26.39682960510254 14.91293907165527 L 34.56629943847656 15.13256072998047 C 36.42589950561523 15.18255996704102 37.21596145629883 17.52197074890137 35.76742935180664 18.68917083740234 L 29.11911010742188 24.04627990722656 C 28.4951000213623 24.54909896850586 28.23147964477539 25.37585067749023 28.44923973083496 26.14707946777344 L 30.79755973815918 34.46400833129883 C 31.18813323974609 35.84727478027344 30.08930778503418 37.0156135559082 28.86565971374512 37.0156135559082 C 28.47511672973633 37.0156135559082 28.07201385498047 36.89669036865234 27.70035934448242 36.62776184082031 L 21.17246055603027 31.90411949157715 C 20.82262992858887 31.65098571777344 20.41131591796875 31.52441787719727 20.00000190734863 31.52441787719727 C 19.58868789672852 31.52441787719727 19.17737579345703 31.65098571777344 18.82755088806152 31.90411949157715 L 12.29964065551758 36.62776184082031 C 11.92807960510254 36.89662551879883 11.52478981018066 37.0156135559082 11.13434028625488 37.0156135559082 C 9.910573959350586 37.0156135559082 8.811832427978516 35.84738540649414 9.202430725097656 34.46400833129883 L 11.55076026916504 26.14707946777344 C 11.76852035522461 25.37585067749023 11.5048999786377 24.54909896850586 10.88088989257812 24.04627990722656 L 4.232570648193359 18.68918037414551 C 2.784038543701172 17.52197074890137 3.574100494384766 15.18255996704102 5.433700561523438 15.13256072998047 L 13.60317993164062 14.91293907165527 C 14.4421501159668 14.89039039611816 15.17779922485352 14.34642028808594 15.44519996643066 13.55088043212891 L 18.1042308807373 5.640068054199219 C 18.40960502624512 4.731548309326172 19.20480155944824 4.277290344238281 20 4.277290344238281 Z"/></g><g class="d"><g class="e"><path class="g" d="M 28.86557960510254 36.01560974121094 C 28.66297912597656 36.01562881469727 28.46817970275879 35.94902038574219 28.28659057617188 35.81761169433594 L 21.75868988037109 31.09396934509277 C 21.24374961853027 30.72137069702148 20.63559913635254 30.5244197845459 20 30.5244197845459 C 19.36440086364746 30.5244197845459 18.75625038146973 30.72137069702148 18.24131965637207 31.09396934509277 L 11.71341037750244 35.81761169433594 C 11.53184032440186 35.94900131225586 11.33701992034912 36.01560974121094 11.13434028625488 36.01560974121094 C 10.82421016693115 36.01560974121094 10.51047992706299 35.85562133789062 10.31558036804199 35.59806060791016 C 10.18459987640381 35.42496871948242 10.05212020874023 35.13486862182617 10.16481018066406 34.73574066162109 L 12.51313018798828 26.41880989074707 C 12.84031963348389 25.26003074645996 12.44591045379639 24.02310943603516 11.50833034515381 23.26761054992676 L 4.860010147094727 17.91050910949707 C 4.355979919433594 17.50436973571777 4.487649917602539 16.9669303894043 4.540019989013672 16.81188011169434 C 4.592380046844482 16.65682983398438 4.813509941101074 16.14959907531738 5.460569858551025 16.13220977783203 L 13.63004970550537 15.91257953643799 C 14.88327026367188 15.87889003753662 15.99365043640137 15.05784034729004 16.39308929443359 13.8694896697998 L 19.05212020874023 5.958679676055908 C 19.26462936401367 5.326429843902588 19.83135986328125 5.277289867401123 20 5.277289867401123 C 20.16864013671875 5.277289867401123 20.73537063598633 5.326429843902588 20.94787979125977 5.958679676055908 L 23.60691070556641 13.8694896697998 C 24.00634956359863 15.05784034729004 25.11672973632812 15.87889003753662 26.36996078491211 15.91257953643799 L 34.5394287109375 16.13220024108887 C 35.18648910522461 16.14959907531738 35.40761947631836 16.65682983398438 35.45999145507812 16.81188011169434 C 35.51234817504883 16.9669303894043 35.64402008056641 17.50436973571777 35.13999176025391 17.91049957275391 L 28.49167060852051 23.26761054992676 C 27.55409049987793 24.02310943603516 27.1596794128418 25.26003074645996 27.48686981201172 26.41880989074707 L 29.83518981933594 34.73574066162109 C 29.94784927368164 35.13475799560547 29.81538009643555 35.42483139038086 29.68441963195801 35.59790802001953 C 29.48947906494141 35.85552978515625 29.17572021484375 36.01559066772461 28.86557960510254 36.01560974121094 Z"/><path class="h" d="M 20 6.277290344238281 L 17.34096908569336 14.18808937072754 C 16.80839920043945 15.77256011962891 15.32789039611816 16.8673095703125 13.65693092346191 16.9122200012207 L 5.487461090087891 17.13183975219727 C 5.487453460693359 17.13183975219727 5.487445831298828 17.13183975219727 5.487442016601562 17.13183975219727 C 5.487442016601562 17.13183975219727 5.487442016601562 17.13183975219727 5.487438201904297 17.13183975219727 L 12.13577079772949 22.48895072937012 C 13.38587951660156 23.49626922607422 13.9117603302002 25.14550018310547 13.47550964355469 26.6905403137207 L 11.1271800994873 35.00746917724609 C 11.1271800994873 35.00747299194336 11.12717819213867 35.00747680664062 11.12717819213867 35.00747680664062 C 11.12718200683594 35.00747680664062 11.1271858215332 35.00747299194336 11.12718963623047 35.00746917724609 L 17.65506935119629 30.28384017944336 C 18.34164047241211 29.78701972961426 19.15250015258789 29.5244197845459 20 29.5244197845459 C 20.84749031066895 29.5244197845459 21.65834999084473 29.78701972961426 22.34491920471191 30.28382873535156 L 28.87279510498047 35.00745010375977 C 28.87279891967773 35.00745010375977 28.87279891967773 35.0074462890625 28.87281036376953 35.00746917724609 L 26.52449035644531 26.6905403137207 C 26.0882396697998 25.14550018310547 26.61412048339844 23.49626922607422 27.86423873901367 22.48895072937012 L 34.51255035400391 17.13183975219727 L 26.34307098388672 16.9122200012207 C 24.67210006713867 16.86729049682617 23.19160079956055 15.77253913879395 22.65903091430664 14.18810081481934 L 20 6.277290344238281 M 20 4.277290344238281 C 20.79519844055176 4.277290344238281 21.59039497375488 4.731548309326172 21.8957691192627 5.640068054199219 L 24.55480003356934 13.55088043212891 C 24.82220077514648 14.34642028808594 25.5578498840332 14.89037895202637 26.39682960510254 14.91293907165527 L 34.56629943847656 15.13256072998047 C 36.42589950561523 15.18255996704102 37.21596145629883 17.52197074890137 35.76742935180664 18.68917083740234 L 29.11911010742188 24.04627990722656 C 28.4951000213623 24.54909896850586 28.23147964477539 25.37585067749023 28.44923973083496 26.14707946777344 L 30.79755973815918 34.46400833129883 C 31.18813323974609 35.84727478027344 30.08930778503418 37.0156135559082 28.86565971374512 37.0156135559082 C 28.47511672973633 37.0156135559082 28.07201385498047 36.89669036865234 27.70035934448242 36.62776184082031 L 21.17246055603027 31.90411949157715 C 20.82262992858887 31.65098571777344 20.41131591796875 31.52441787719727 20.00000190734863 31.52441787719727 C 19.58868789672852 31.52441787719727 19.17737579345703 31.65098571777344 18.82755088806152 31.90411949157715 L 12.29964065551758 36.62776184082031 C 11.92807960510254 36.89662551879883 11.52478981018066 37.0156135559082 11.13434028625488 37.0156135559082 C 9.910573959350586 37.0156135559082 8.811832427978516 35.84738540649414 9.202430725097656 34.46400833129883 L 11.55076026916504 26.14707946777344 C 11.76852035522461 25.37585067749023 11.5048999786377 24.54909896850586 10.88088989257812 24.04627990722656 L 4.232570648193359 18.68918037414551 C 2.784038543701172 17.52197074890137 3.574100494384766 15.18255996704102 5.433700561523438 15.13256072998047 L 13.60317993164062 14.91293907165527 C 14.4421501159668 14.89039039611816 15.17779922485352 14.34642028808594 15.44519996643066 13.55088043212891 L 18.1042308807373 5.640068054199219 C 18.40960502624512 4.731548309326172 19.20480155944824 4.277290344238281 20 4.277290344238281 Z"/></g></g></g><g transform="translate(130)"><g class="c"><path class="g" d="M 28.86557960510254 36.01560974121094 C 28.66297912597656 36.01562881469727 28.46817970275879 35.94902038574219 28.28659057617188 35.81761169433594 L 21.75868988037109 31.09396934509277 C 21.24374961853027 30.72137069702148 20.63559913635254 30.5244197845459 20 30.5244197845459 C 19.36440086364746 30.5244197845459 18.75625038146973 30.72137069702148 18.24131965637207 31.09396934509277 L 11.71341037750244 35.81761169433594 C 11.53184032440186 35.94900131225586 11.33701992034912 36.01560974121094 11.13434028625488 36.01560974121094 C 10.82421016693115 36.01560974121094 10.51047992706299 35.85562133789062 10.31558036804199 35.59806060791016 C 10.18459987640381 35.42496871948242 10.05212020874023 35.13486862182617 10.16481018066406 34.73574066162109 L 12.51313018798828 26.41880989074707 C 12.84031963348389 25.26003074645996 12.44591045379639 24.02310943603516 11.50833034515381 23.26761054992676 L 4.860010147094727 17.91050910949707 C 4.355979919433594 17.50436973571777 4.487649917602539 16.9669303894043 4.540019989013672 16.81188011169434 C 4.592380046844482 16.65682983398438 4.813509941101074 16.14959907531738 5.460569858551025 16.13220977783203 L 13.63004970550537 15.91257953643799 C 14.88327026367188 15.87889003753662 15.99365043640137 15.05784034729004 16.39308929443359 13.8694896697998 L 19.05212020874023 5.958679676055908 C 19.26462936401367 5.326429843902588 19.83135986328125 5.277289867401123 20 5.277289867401123 C 20.16864013671875 5.277289867401123 20.73537063598633 5.326429843902588 20.94787979125977 5.958679676055908 L 23.60691070556641 13.8694896697998 C 24.00634956359863 15.05784034729004 25.11672973632812 15.87889003753662 26.36996078491211 15.91257953643799 L 34.5394287109375 16.13220024108887 C 35.18648910522461 16.14959907531738 35.40761947631836 16.65682983398438 35.45999145507812 16.81188011169434 C 35.51234817504883 16.9669303894043 35.64402008056641 17.50436973571777 35.13999176025391 17.91049957275391 L 28.49167060852051 23.26761054992676 C 27.55409049987793 24.02310943603516 27.1596794128418 25.26003074645996 27.48686981201172 26.41880989074707 L 29.83518981933594 34.73574066162109 C 29.94784927368164 35.13475799560547 29.81538009643555 35.42483139038086 29.68441963195801 35.59790802001953 C 29.48947906494141 35.85552978515625 29.17572021484375 36.01559066772461 28.86557960510254 36.01560974121094 Z"/><path class="h" d="M 20 6.277290344238281 L 17.34096908569336 14.18808937072754 C 16.80839920043945 15.77256011962891 15.32789039611816 16.8673095703125 13.65693092346191 16.9122200012207 L 5.487461090087891 17.13183975219727 C 5.487453460693359 17.13183975219727 5.487445831298828 17.13183975219727 5.487442016601562 17.13183975219727 C 5.487442016601562 17.13183975219727 5.487442016601562 17.13183975219727 5.487438201904297 17.13183975219727 L 12.13577079772949 22.48895072937012 C 13.38587951660156 23.49626922607422 13.9117603302002 25.14550018310547 13.47550964355469 26.6905403137207 L 11.1271800994873 35.00746917724609 C 11.1271800994873 35.00747299194336 11.12717819213867 35.00747680664062 11.12717819213867 35.00747680664062 C 11.12718200683594 35.00747680664062 11.1271858215332 35.00747299194336 11.12718963623047 35.00746917724609 L 17.65506935119629 30.28384017944336 C 18.34164047241211 29.78701972961426 19.15250015258789 29.5244197845459 20 29.5244197845459 C 20.84749031066895 29.5244197845459 21.65834999084473 29.78701972961426 22.34491920471191 30.28382873535156 L 28.87279510498047 35.00745010375977 C 28.87279891967773 35.00745010375977 28.87279891967773 35.0074462890625 28.87281036376953 35.00746917724609 L 26.52449035644531 26.6905403137207 C 26.0882396697998 25.14550018310547 26.61412048339844 23.49626922607422 27.86423873901367 22.48895072937012 L 34.51255035400391 17.13183975219727 L 26.34307098388672 16.9122200012207 C 24.67210006713867 16.86729049682617 23.19160079956055 15.77253913879395 22.65903091430664 14.18810081481934 L 20 6.277290344238281 M 20 4.277290344238281 C 20.79519844055176 4.277290344238281 21.59039497375488 4.731548309326172 21.8957691192627 5.640068054199219 L 24.55480003356934 13.55088043212891 C 24.82220077514648 14.34642028808594 25.5578498840332 14.89037895202637 26.39682960510254 14.91293907165527 L 34.56629943847656 15.13256072998047 C 36.42589950561523 15.18255996704102 37.21596145629883 17.52197074890137 35.76742935180664 18.68917083740234 L 29.11911010742188 24.04627990722656 C 28.4951000213623 24.54909896850586 28.23147964477539 25.37585067749023 28.44923973083496 26.14707946777344 L 30.79755973815918 34.46400833129883 C 31.18813323974609 35.84727478027344 30.08930778503418 37.0156135559082 28.86565971374512 37.0156135559082 C 28.47511672973633 37.0156135559082 28.07201385498047 36.89669036865234 27.70035934448242 36.62776184082031 L 21.17246055603027 31.90411949157715 C 20.82262992858887 31.65098571777344 20.41131591796875 31.52441787719727 20.00000190734863 31.52441787719727 C 19.58868789672852 31.52441787719727 19.17737579345703 31.65098571777344 18.82755088806152 31.90411949157715 L 12.29964065551758 36.62776184082031 C 11.92807960510254 36.89662551879883 11.52478981018066 37.0156135559082 11.13434028625488 37.0156135559082 C 9.910573959350586 37.0156135559082 8.811832427978516 35.84738540649414 9.202430725097656 34.46400833129883 L 11.55076026916504 26.14707946777344 C 11.76852035522461 25.37585067749023 11.5048999786377 24.54909896850586 10.88088989257812 24.04627990722656 L 4.232570648193359 18.68918037414551 C 2.784038543701172 17.52197074890137 3.574100494384766 15.18255996704102 5.433700561523438 15.13256072998047 L 13.60317993164062 14.91293907165527 C 14.4421501159668 14.89039039611816 15.17779922485352 14.34642028808594 15.44519996643066 13.55088043212891 L 18.1042308807373 5.640068054199219 C 18.40960502624512 4.731548309326172 19.20480155944824 4.277290344238281 20 4.277290344238281 Z"/></g></g></g><path class="f" d="M10,0H290a10,10,0,0,1,10,10V20a0,0,0,0,1,0,0H0a0,0,0,0,1,0,0V10A10,10,0,0,1,10,0Z" transform="translate(932 3125)"/></g></svg>