<svg xmlns="http://www.w3.org/2000/svg" width="609.356" height="439.049" viewBox="0 0 609.356 439.049"><defs><style>.a{fill:#f4eadb;}.b{fill:#fe8632;}.c{fill:#522515;}.d{fill:#f4e9da;}.e{fill:#fda800;}.f{fill:#582815;}.g{fill:#fd8632;}.h{fill:#502415;}.i{fill:#1b8738;}.j{fill:#1f8738;}.k{fill:#e7e4d1;}.l{fill:#d62401;}</style></defs><g transform="translate(-2471.187 -876.032)"><path class="a" d="M3012.613,1257.587c.381,2.254,1.815,4.047,2.674,6.092.85,2.026.845,3.347-1.922,3.692-7.123.887-14.256,1.782-21.316,3.058-10.82,1.956-21.58,4.253-32.375,6.352a3.17,3.17,0,0,0-2.27,1.982,41.143,41.143,0,0,0-3.106,8.657c-2.437,8.788-6.553,17.018-8.686,25.911a1.954,1.954,0,0,1-2.021,1.66c-.955.031-1.912.031-2.867.031q-143.868,0-287.736.059c-3.041,0-4.953-.358-5.582-3.871-.532-2.977-2.154-5.741-2.1-8.9,1.409-.451,2.865-.792,4.219-1.372,4.857-2.079,9.633-4.719,11.867-9.6,6.721-14.673,7.935-29.252-2.412-43.387,1.767-.887,3.691-1.945,5.689-2.839,6.493-2.907,10.624-8.073,13.108-14.45,6.31-16.2,4.664-31.512-5.826-45.632,6.535-.432,13.067-1.134,19.607-1.228,8.367-.12,16.673-1.034,25.013-1.47,3.569-.186,7.167-.408,10.741-.769,7.872-.794,15.75-1.537,23.626-2.3-.268,4.816,3.549,6.82,6.684,8.847,10.106,6.535,20.73,11.717,32.96,13.436,13.478,1.9,26.359,1.137,38.727-4.983,4.391-2.173,7.8-4.671,6.568-10.3a4.065,4.065,0,0,1,.135-1.258l27.721.068c-4.418,9-5.258,18.693-3.807,28.276,1.5,9.912,7.186,17.637,16.5,22.466-8.722,6.1-13.032,14.248-13.887,24.286-.839,9.862,1.653,18.4,10.472,23.995,5.329,3.383,11.469,3.786,17.525,3.429,8.763-.517,16.6-3.688,21.3-11.415,4.922-8.079,5.623-17.249,4.383-26.5-.979-7.313-3.454-13.937-9.925-18.354a31.391,31.391,0,0,0,10.678-15.251c3.758-11.39,3.075-22.523-1.258-33.564a19.538,19.538,0,0,1,3.1-.6q20.944-.695,41.891-1.308a50.48,50.48,0,0,0,5.364-.424c3.223-.442,6.62-1,9.733-.406,2.315.443,1.895,4.011,3.456,5.748a1.18,1.18,0,0,0,.267.172C2988.908,1210.37,3000.513,1234.092,3012.613,1257.587Z"/><path class="b" d="M2577.735,1278.08c-3.689-1.268-7.573-.8-11.354-1.141-7.71-.7-15.473-.8-23.192-1.415-20.085-1.6-38.4-7.864-53.686-21.409-9.322-8.261-14.27-19.1-16.956-31.056-2.836-12.631-.994-24.93,3.272-36.89a177.34,177.34,0,0,1,16.21-34.135c6.062-9.766,13.869-18.244,20.338-27.688,9.871-14.413,22.312-26.686,33.028-40.4,18.161-23.248,37.948-45.166,56.762-67.883,13-15.7,24.328-32.674,36.269-49.178,3.158-4.364,6.31-8.783,11.254-11.411a6.879,6.879,0,0,0,4.965,3.449c3.372.807,6.446.058,9.516-1.15l.474.542c-1.031.908-2.029,1.858-3.1,2.719-10.571,8.506-18.713,19.017-25.374,30.74a47.091,47.091,0,0,0-2.14,4.614,1.637,1.637,0,0,0,.512,2.258c1.016.623,1.588-.176,2.056-.872.888-1.318,1.75-2.659,2.529-4.043a106.708,106.708,0,0,1,29.353-33.527c3.124-2.334,6.65-4.11,9.465-6.862,3.247-.843,5.923-3.222,9.386-3.484,5.308,8.732,13.573,9.779,19.943,2.257,1.59-1.878,2.8-2.294,4.778-1.228l1.545,3.425c-4.309.495-8.01,2.72-11.945,4.257a123.17,123.17,0,0,0-43.356,28.97c-3.128,3.185-5.823,6.782-7.04,11.214-.233.848-.787,2.042.29,2.583,1.182.594,1.935-.432,2.561-1.318.3-.431.545-.908.83-1.354a72.521,72.521,0,0,1,12.851-15.312c13.757-12.2,30.206-19.5,47.121-25.96l4.96-.522a11.466,11.466,0,0,0,5.052,11.32c5.33,3.636,10.732,2.888,15.817-.923.512,1.513-.3,2.553-.407,3.693-.291,3.005-1.815,3.877-4.882,3.739a90.557,90.557,0,0,0-24.939,2.714c-11.368,2.692-22.256,6.527-30.6,15.285a40.359,40.359,0,0,0-7.054,9.775c-.4.809-.8,1.95.163,2.629s1.881-.005,2.52-.717c1.416-1.577,2.771-3.213,4.079-4.881,3.289-4.194,6.625-8.433,11.414-10.949,14.73-7.739,30.517-10.737,47.081-9.971,2.1.1,3.028.814,3.233,3.2.569,6.606,3.7,9.208,10.348,9.641,2.285.149,4.172-1.01,6.321-1.55-.165,3.932-1.435,5.593-4.8,6.377a33.464,33.464,0,0,1-10.147.474,142.273,142.273,0,0,0-18.445-.5c-16.272.893-28.44,11.433-31.271,27.567-2.1,11.97,4.161,20.572,16.5,19.87,3.6-.205,7.21-.48,10.819-.534,3.85-.057,7.667.213,10.425,3.491-2.4-.443-4.7-1.356-7.178-.951a9.271,9.271,0,0,0-7.589,6.484,10.857,10.857,0,0,0,2.379,11.815c1.876,1.972,1.347,2.485-.9,3.227-6.616,2.184-13.413,1.792-20.2,1.748l.044.024c-6.592-2.139-13.236-4.122-19.615-6.881a2.913,2.913,0,0,0-3.63,1.156c-5.618,7.26-13.073,12.606-19.706,18.812-6.323,5.916-13.066,11.407-18.566,18.165-.763.734-1.56,1.437-2.286,2.206-16.732,17.733-33.82,35.132-50.077,53.309-8.147,9.11-14.742,19.4-21.971,29.2-1.263,1.712-.833,2.613,1.092,3.163,3.767,1.077,7.512,2.234,11.285,3.289a188.331,188.331,0,0,1,19.368,6.056c-.3,1.883-.526,3.781-.915,5.645-3.456,16.588-6.56,33.239-9.459,49.934C2581.7,1261.434,2579.567,1269.73,2577.735,1278.08Z"/><path class="c" d="M2712.045,950.883c-1.98-1.066-3.188-.65-4.778,1.228-6.37,7.522-14.635,6.475-19.943-2.257.6-.993,1.678-.737,2.571-.964,6.388,5.183,10.608,5.362,15.007.749,1.178-1.236,1.154-1.98-.571-2.263-2.184-.358-4.393-.564-6.591-.836,10.625-13.785,21.182-27.611,36.171-37.185a81.131,81.131,0,0,1,22.009-9.775,186.817,186.817,0,0,1,48.969-7.258c.161.713.381,1.418.476,2.14a96.515,96.515,0,0,0,4.321,16.849c1.106,3.433,1.789,3.553,4.786,1.65a18.3,18.3,0,0,1,11.075-3.265c3.273.213,5.235-.922,6.839-3.845a5.33,5.33,0,0,0,.2-5.576c-.946-1.884-1.748-3.841-2.614-5.765,5.623,1,11.345,1.524,16.755,3.532-4.486,2.164-7.172,6.131-9.988,9.966-.882,1.2-1.331,2.136.292,3.392a28.62,28.62,0,0,1,9.021,12.091c.387.955.761,1.331,1.784,1.295,9.268-.327,18.451-1.023,26.693-5.928,2.273-1.352,4.485-2.808,6.725-4.217,17.112,12.3,31.134,27.391,41.078,46.04a55.2,55.2,0,0,1,6.13,17.816c-4-4.78-8.048-9.516-11.954-14.368-1.084-1.347-1.707-2.023-2.939-.2a4.914,4.914,0,0,1-3.777,2.08c-5.654.465-11.531-4.123-12.62-9.824.954-.822,2.166-.659,3.283-.86.153.5.3,1,.46,1.5,1.14,3.63,5.633,6.048,9.065,4.858.912-.317,1.891-.783,2.118-1.744.275-1.164-.918-1.49-1.664-1.936a20.775,20.775,0,0,0-9.152-3.2c-7.484-9.688-16.693-17.41-26.865-24.154-4.652-3.085-9.187-4.394-14.538-2.326a12.2,12.2,0,0,1-4.978.941c-5.932-.38-9.436,1.829-9.571,8.138a.7.7,0,0,1-.118.294c-.723,1.312-.058,1.851,1.128,2.323,6.353,2.527,12.009,6.31,17.69,10.024,4.235,2.77,8.127,5.479,13.908,4.44,5.219-.938,10.061,1.936,14.737,4.237,11.436,7.2,20.443,16.8,27.762,28.068a59.518,59.518,0,0,1,7.27,14.811c.24.778.622,1.775-.28,2.331-1.042.644-1.873-.1-2.4-.908a23.57,23.57,0,0,1-2.334-4.149c-3.4-8.635-8.811-15.924-14.942-22.757a64.027,64.027,0,0,0-11.9-10.519c-1.1-.739-1.938-1.171-3.324-.071a12.416,12.416,0,0,1-16.741-1.043,26.644,26.644,0,0,0-3.428-3.308c-2.352-1.612-3.46.587-4.6,1.959-1.286,1.548.393,1.685,1.27,1.972,15.056,4.92,27.074,14.341,37.832,25.583a44.722,44.722,0,0,1,9.092,12.977c.531,1.227,2.019,3.018.442,3.963-1.788,1.072-2.654-1-3.527-2.291-1.545-2.284-3.039-4.6-4.641-6.847-9.4-13.171-22.366-21.851-36.63-28.86-1.783-.876-3.123-.821-3.739,1.65-.908,3.643-3.7,5.547-7.157,6.529a14.142,14.142,0,0,1-11.066-1.406c-.939-.519-1.93-.94-2.1.574-.125,1.108-1.76,2.715.659,3.331a23.2,23.2,0,0,0,3.443.632c10.407,1.008,20.057,4.387,29.263,9.206a68.611,68.611,0,0,1,23.16,19.072c.687.9,2.073,2.129.578,3.236-1.252.927-2.357-.159-3.229-1.171a79.154,79.154,0,0,0-18.282-15.221,76.392,76.392,0,0,0-30.493-11.3c-1.864-.254-2.935.041-3.368,2.168-.558,2.739-2.56,4.178-5.237,4.977-3.949,1.179-7.326-.07-10.577-2.064-2.205-1.352-3.023-.639-3.154,1.759-.217,4,1.91,6.607,6.791,7.86,5.986,1.536,12.173,1.76,18.268,2.582,13.576,1.831,20.844,7.751,23.642,19.562a31.529,31.529,0,0,1,.4,12.006c-1.715,11.647-9.321,19.977-20.769,22.432a21.9,21.9,0,0,0-6.651,2.08c-3.744,2.177-5.471,5.479-4.827,9.311,1.008-.237,1.067-1.247,1.512-1.9,3.616-5.322,8.291-7.516,13.16-5.992,4.662,1.46,8.634,4.821,7.89,12.15-.231,2.269.465,2.723,2.682,2.045a52.292,52.292,0,0,0,20.575-12.324c.853-.8,1.546-2.192,3.04-.59,6.375,6.836,12.829,13.6,17.872,21.536.552.868,1.37,1.7.78,2.886-.5.516-1,1.034-1.506,1.552a26.719,26.719,0,0,1-2.738-3.057c-3.8-5.782-8.85-10.544-12.965-16.061-1.82-2.441-3.69-2.532-5.784-.389a19.486,19.486,0,0,1-1.686,1.451c-9.334,7.579-19.775,11.668-32.02,10.463-10.622-1.045-16.23-7.324-14.5-16.532.591-2.754,2.48-4.668,4.3-6.63,4.774-1.984,9.5-4.089,14.335-5.923,6.406-2.431,10.009-7.2,11.888-13.53.512-1.723.971-3.471,1.308-5.235a21.752,21.752,0,0,0-20.935-25.48l-2.37-.034c-2.545-2.032-5.7-.882-8.492-1.627l-7.7-.785a23.162,23.162,0,0,0-5.783-2.818,13.189,13.189,0,0,0-.727-1.391c-5.864-8.646-1.794-18.46,8.472-19.156,4.522-.307,6.42-1.906,7.079-5.926a.893.893,0,0,1,.1-.3c1.089-1.872.621-2.556-1.6-2.549q-25.8.075-51.6,0c-15.388-.074-30.788.515-46.158-.551-2.135-.148-2.161,1.072-2.526,2.355-.4,1.4-.243,2.386,1.434,2.911a78.385,78.385,0,0,1,8.66,3.143c5.1,2.289,8.545,5.884,8.32,11.951a11.494,11.494,0,0,1-3.175,6.984c-3.785,2.513-8.114,2.139-12.338,2.32l-12.675-.686c-1.7-.034-3.393-.14-5.086-.089-17.235.511-28.173,8.83-32.149,24.418-2.229,8.736,3.248,16.247,12.147,16.333,5.078.049,10.16-.383,15.24-.6,3.1.391,5.97,1.594,8.943,2.437l4.7,6.468c.026,3.106.27,6.224-.5,9.288-2.058,6.382-6.664,10.137-12.767,12.322-9.471,3.391-19.149,3.031-28.893,1.58-4.655-.694-9.071-2.364-14.211-3.849,1.484,4.807,2.56,9,4.067,13.039,3.884,10.4,9.938,19.614,16.108,28.751a36.166,36.166,0,0,1-21.477,15.811c9.209,8.864,11.541,19.323,9.462,31.144-2.17,12.341-9.274,20.234-20.7,23.66l3.784,4.6c10.49,14.12,12.136,29.432,5.826,45.632-2.484,6.377-6.615,11.543-13.108,14.45-2,.894-3.922,1.952-5.689,2.839,10.347,14.135,9.133,28.714,2.412,43.387-2.234,4.877-7.01,7.517-11.867,9.6-1.354.58-2.81.921-4.219,1.372-3.817.118-7.488,1.343-11.346,1.318-11.857-.075-23.247-8.577-26.526-19.956a2.147,2.147,0,0,0-.339-.526c-.263-2.631-.994-5.313-.708-7.883,1.249-11.211,5.175-21.117,14.66-28.118,2.159-1.594,4.713-2.358,6.974-3.673a2.063,2.063,0,0,0-.155-.4c-.562-.768-1.147-1.521-1.7-2.3-6.248-8.842-9.8-18.565-8.846-29.49a45.593,45.593,0,0,1,8.861-23.125c4.107-4.924,8.792-9.122,14.7-11.666-7.016-4.934-11.57-11.36-13.1-20.032a33.582,33.582,0,0,1,17.59-35.929c2.1-1.061,1.654-1.574.429-2.993a51.937,51.937,0,0,1-9.68-17.329c5.5-6.758,12.243-12.249,18.566-18.165,6.633-6.206,14.088-11.552,19.706-18.812a2.913,2.913,0,0,1,3.63-1.156c6.379,2.759,13.023,4.742,19.615,6.881h-3.723c4.279,1.462,8.641,1.834,13.729,1.943-3.655-1.648-7.059-.643-10.05-1.967,6.785.044,13.582.436,20.2-1.748,2.25-.742,2.779-1.255.9-3.227a10.857,10.857,0,0,1-2.379-11.815,9.271,9.271,0,0,1,7.589-6.484c2.482-.405,4.777.508,7.178.951-2.758-3.278-6.575-3.548-10.425-3.491-3.609.054-7.214.329-10.819.534-12.34.7-18.6-7.9-16.5-19.87,2.831-16.134,15-26.674,31.271-27.567a142.273,142.273,0,0,1,18.445.5,33.464,33.464,0,0,0,10.147-.474c3.367-.784,4.637-2.445,4.8-6.377-2.149.54-4.036,1.7-6.321,1.55-6.649-.433-9.779-3.035-10.348-9.641-.205-2.384-1.13-3.1-3.233-3.2-16.564-.766-32.351,2.232-47.081,9.971-4.789,2.516-8.125,6.755-11.414,10.949-1.308,1.668-2.663,3.3-4.079,4.881-.639.712-1.567,1.389-2.52.717s-.566-1.82-.163-2.629a40.359,40.359,0,0,1,7.054-9.775c8.342-8.758,19.23-12.593,30.6-15.285a90.557,90.557,0,0,1,24.939-2.714c3.067.138,4.591-.734,4.882-3.739.11-1.14.919-2.18.407-3.693-5.085,3.811-10.487,4.559-15.817.923a11.464,11.464,0,0,1-5.051-11.321l2.868.074c.124.618.261,1.234.369,1.854,1.088,6.23,5.783,9.1,11.777,7.122,1.889-.623,4.4-1.331,4.492-3.386.086-1.823-2.312-2.729-3.962-3.643l-1.347-.744a195.618,195.618,0,0,1,45.207-19.267c8-2.288,16.315-2.626,24.439-4.135,1.656-.307,2.306-.786,2.31-2.55a29.246,29.246,0,0,1,2.019-9.923c.4-1.088.872-2.042.019-3.259-4.566-6.51-4.535-6.535-12.59-5.047-1.354.25-2.7.546-4.052.8a193.577,193.577,0,0,0-35.151,9.759c-10.1,3.953-19.472,9.315-28.84,14.7C2721.792,942.455,2716.378,945.952,2712.045,950.883Zm3.38,119.973h-6.162c2.1.613,4.208,1.2,6.251.107l.618-.409ZM2831.453,941.7c6.052.051,8.153-2.084,10.032-10.251,1.8-7.814-3-15.668-10.468-17.037-12.119-2.223-20.892,6.477-19.505,19.537.163,1.534,1.278,2.373,2.428,3.157C2818.441,940.175,2823.408,941.737,2831.453,941.7Zm-99.327,114.646c.037-4.095-2.693-7.1-6.46-7.1a6.749,6.749,0,0,0-7.111,6.882c-.05,4.207,2.784,7.6,6.388,7.645C2728.65,1063.816,2732.09,1060.26,2732.126,1056.346Zm128.13,19.056c2.7-.036,5.5.022,6.232-3.457.456-2.176-2.039-7.195-4-8.217-2.9-1.51-5.573-.743-7.987,1.115a11.076,11.076,0,0,0-3.333,4.176c-1.625,3.516-1.512,3.869,2.257,5.074A20.771,20.771,0,0,0,2860.256,1075.4Zm2.649-107.444a21.57,21.57,0,0,0-10.935,2.989c-.51.285-1.377.188-1.269,1.086.087.713.782.949,1.329,1.242,3.768,2.019,9.608.617,12-2.9.464-.682,1.238-1.475.808-2.273C2864.334,967.168,2863.311,968.036,2862.905,967.958Zm15.405-9.811c-.841.134-1.816-.464-2.352.528-.283.525.132,1,.433,1.428,1.96,2.788,8.226,4.912,11.5,3.88.884-.278,2.086-.4,2.165-1.528.066-.952-1.056-1.2-1.768-1.588A26.487,26.487,0,0,0,2878.31,958.147Zm-128,29.337a5.671,5.671,0,0,0,3.039-.717c.771-.47,1.953-.667,1.956-1.8,0-.938-.956-1.376-1.681-1.733a47.223,47.223,0,0,0-5.2-2.264c-1.213-.426-2.778-1.8-3.713-.682-1.192,1.429-.035,3.229.823,4.659A4.994,4.994,0,0,0,2750.312,987.484Zm90.287.741a15.235,15.235,0,0,0,2.736-.4c1.5-.459,2.773-1.456,2.572-3.144-.225-1.883-1.974-1.033-3.078-1.2a9.368,9.368,0,0,0-2.826.045c-2.129.327-5.7.335-5.611,2.228C2834.5,987.937,2837.9,988.067,2840.6,988.225Zm-148.7,80.347-.537-.114a2.067,2.067,0,0,0-.024.4.329.329,0,0,0,.254.036A1.88,1.88,0,0,0,2691.9,1068.572Z"/><path class="b" d="M2914.66,1085.255c.594-1.19-.224-2.019-.776-2.887-5.043-7.936-11.5-14.7-17.872-21.536-1.494-1.6-2.187-.209-3.04.59a52.292,52.292,0,0,1-20.575,12.324c-2.217.678-2.913.224-2.682-2.045.744-7.329-3.228-10.69-7.89-12.15-4.869-1.524-9.544.67-13.16,5.992-.445.655-.5,1.665-1.512,1.9-.644-3.832,1.083-7.134,4.827-9.311a21.9,21.9,0,0,1,6.651-2.08c11.448-2.455,19.054-10.785,20.769-22.432a31.529,31.529,0,0,0-.4-12.006c-2.8-11.811-10.066-17.731-23.642-19.562-6.095-.822-12.282-1.046-18.268-2.582-4.881-1.253-7.008-3.864-6.791-7.86.131-2.4.949-3.111,3.154-1.759,3.251,1.994,6.628,3.243,10.577,2.064,2.677-.8,4.679-2.238,5.237-4.977.433-2.127,1.5-2.422,3.368-2.168a76.392,76.392,0,0,1,30.493,11.3,79.154,79.154,0,0,1,18.282,15.221c.872,1.012,1.977,2.1,3.229,1.171,1.495-1.107.109-2.339-.578-3.236a68.611,68.611,0,0,0-23.16-19.072c-9.206-4.819-18.856-8.2-29.263-9.206a23.2,23.2,0,0,1-3.443-.632c-2.419-.616-.784-2.223-.659-3.331.172-1.514,1.163-1.093,2.1-.574a14.142,14.142,0,0,0,11.066,1.406c3.462-.982,6.249-2.886,7.157-6.529.616-2.471,1.956-2.526,3.739-1.65,14.264,7.009,27.226,15.689,36.63,28.86,1.6,2.243,3.1,4.563,4.641,6.847.873,1.291,1.739,3.363,3.527,2.291,1.577-.945.089-2.736-.442-3.963a44.722,44.722,0,0,0-9.092-12.977c-10.758-11.242-22.776-20.663-37.832-25.583-.877-.287-2.556-.424-1.27-1.972,1.139-1.372,2.247-3.571,4.6-1.959a26.644,26.644,0,0,1,3.428,3.308,12.416,12.416,0,0,0,16.741,1.043c1.386-1.1,2.225-.668,3.324.071a64.027,64.027,0,0,1,11.9,10.519c6.131,6.833,11.546,14.122,14.942,22.757a23.57,23.57,0,0,0,2.334,4.149c.528.81,1.359,1.552,2.4.908.9-.556.52-1.553.28-2.331a59.518,59.518,0,0,0-7.27-14.811c-7.319-11.263-16.326-20.869-27.762-28.068a7.418,7.418,0,0,1,4.5-2.543c1.089,5.7,6.966,10.289,12.62,9.824a4.914,4.914,0,0,0,3.777-2.08c1.232-1.822,1.855-1.146,2.939.2,3.906,4.852,7.958,9.588,11.954,14.368l-.033-.073.573.758c4.685,7.332,9.39,14.651,13.611,22.266,2.056,3.71,4.179,7.387,6.111,11.161,8.427,16.454,19.742,30.9,31.182,45.285s23.09,28.544,34.205,43.181c11.22,14.776,23.541,28.74,35.911,42.612a199.412,199.412,0,0,1,24.377,33c8.716,15.137,9.3,33.915-5.8,48.691a66.291,66.291,0,0,1-15.988,11.971q-19.255,9.9-38.492,19.838a7.176,7.176,0,0,1-1.513.4c-12.1-23.495-23.705-47.217-33.082-71.963,2.927-2.341,6.4-3.737,9.659-5.481,3.5-1.869,3.587-1.863.709-4.752-7.579-7.609-14.362-15.921-21.154-24.2-9.216-11.237-17.9-22.911-27.162-34.108C2932.728,1106.376,2923.176,1096.252,2914.66,1085.255Z"/><path class="d" d="M2626.182,1188.165a45.593,45.593,0,0,0-8.861,23.125c-.959,10.925,2.6,20.648,8.846,29.49.55.777,1.135,1.53,1.7,2.3a2.063,2.063,0,0,1,.155.4c-2.261,1.315-4.815,2.079-6.974,3.673-9.485,7-13.411,16.907-14.66,28.118-.286,2.57.445,5.252.708,7.883-8.714-1.123-17.544-.586-26.253-1.853-2-.291-3.162-1.09-3.1-3.218,1.832-8.35,3.969-16.646,5.43-25.06,2.9-16.7,6-33.346,9.459-49.934.389-1.864.614-3.762.915-5.646.26-1.338.572-2.667.768-4.014.565-3.886,1.309-4.267,5.286-4.663,7.641-.761,15.343-.078,22.963-1.155C2623.751,1187.439,2625.1,1187.184,2626.182,1188.165Z"/><path class="e" d="M2881.257,914.641c-2.24,1.409-4.452,2.865-6.725,4.217-8.242,4.905-17.425,5.6-26.693,5.928-1.023.036-1.4-.34-1.784-1.295a28.62,28.62,0,0,0-9.021-12.091c-1.623-1.256-1.174-2.19-.292-3.392,2.816-3.835,5.5-7.8,9.988-9.966a129.618,129.618,0,0,1,33.879-13.444c7.575-1.784,15.358-1.871,23.119-1.835,2.686.012,2.632,1.178,1.744,3.24-3.7,8.585-10.035,15.162-16.39,21.708C2886.662,910.2,2883.876,912.342,2881.257,914.641Z"/><path class="e" d="M2829.975,894.51c.866,1.924,1.668,3.881,2.614,5.765a5.33,5.33,0,0,1-.2,5.576c-1.6,2.923-3.566,4.058-6.839,3.845a18.3,18.3,0,0,0-11.075,3.265c-3,1.9-3.68,1.783-4.786-1.65a96.515,96.515,0,0,1-4.321-16.849c-.095-.722-.315-1.427-.476-2.14.146-4.341-.763-8.654-.213-13.018.461-3.667.79-3.856,4.086-2.494C2817.7,880.5,2824.32,886.916,2829.975,894.51Z"/><path class="f" d="M2677.938,953.338c-2.815,2.752-6.341,4.528-9.465,6.862a106.708,106.708,0,0,0-29.353,33.527c-.779,1.384-1.641,2.725-2.529,4.043-.468.7-1.04,1.495-2.056.872a1.637,1.637,0,0,1-.512-2.258,47.091,47.091,0,0,1,2.14-4.614c6.661-11.723,14.8-22.234,25.374-30.74,1.069-.861,2.067-1.811,3.1-2.72.614-.279,1.324-.455,1.442-1.325-.893-.262-1.316.475-1.916.784-3.07,1.208-6.144,1.957-9.516,1.15a6.879,6.879,0,0,1-4.965-3.449,5.076,5.076,0,0,1,2.492-1.928,9.787,9.787,0,0,0,14.41-3.748l3.025.152c.355,1.706-.486,3.1-1.181,4.531-.54.4-1.3.651-1.2,1.58.934.175,1.309-.533,1.817-1.006l6.134-3C2676.361,951.917,2677.5,951.887,2677.938,953.338Z"/><path class="g" d="M2697.74,946.54c2.2.272,4.407.478,6.591.836,1.725.283,1.749,1.027.571,2.263-4.4,4.613-8.619,4.434-15.007-.749Z"/><path class="b" d="M2666.582,949.794a9.787,9.787,0,0,1-14.41,3.748C2656.35,949.893,2661.278,949.122,2666.582,949.794Z"/><path class="b" d="M2668.423,954.476c.7-1.431,1.539-2.824,1.184-4.53a15.688,15.688,0,0,1,5.572,2.106q-3.069,1.5-6.135,3Z"/><path class="c" d="M2929,979.182l-.573-.758C2929.079,978.332,2928.957,978.821,2929,979.182Z"/><path class="g" d="M2761.465,991.1c.225-6.067-3.216-9.662-8.32-11.951a78.385,78.385,0,0,0-8.66-3.143c-1.677-.525-1.833-1.513-1.434-2.911.365-1.283.391-2.5,2.526-2.355,15.37,1.066,30.77.477,46.158.551q25.8.121,51.6,0c2.221-.007,2.689.677,1.6,2.549a.893.893,0,0,0-.1.3c-.659,4.02-2.557,5.619-7.079,5.926-10.266.7-14.336,10.51-8.472,19.156a12.527,12.527,0,0,1,.724,1.392c-19.525,9.436-24.889,34.722-10.68,50.692,6.392,7.185,14.82,10.274,24.137,11.369-1.726,9.208,3.882,15.487,14.5,16.532,12.245,1.2,22.686-2.884,32.02-10.463a19.486,19.486,0,0,0,1.686-1.451c2.094-2.143,3.964-2.052,5.784.389,4.115,5.517,9.166,10.279,12.965,16.061a26.8,26.8,0,0,0,2.737,3.057c-.374.984-.683,2-1.133,2.947-4.2,8.859-7.892,17.974-13.2,26.278-.639.835-1.3,1.657-1.915,2.507-5.7,7.821-12.048,14.959-20.243,20.321-6.291,4.117-13.023,7.421-19.6,11.016-4.624,1.841-9.141,4.058-13.9,5.42-4.853,1.387-7.427,2.9-7.034,9.065.432,6.789-.134,13.758-.125,20.652a4.065,4.065,0,0,0-.135,1.258c1.23,5.63-2.177,8.128-6.568,10.3-12.368,6.12-25.249,6.878-38.727,4.983-12.23-1.719-22.854-6.9-32.96-13.436-3.135-2.027-6.952-4.031-6.684-8.847,1.44-11.013,1.321-22.188,3.44-33.128.48-2.474-1.358-2.66-2.926-3.253-15.426-5.836-29.848-13.425-42.522-24.132-3.112-2.63-5.232-6.082-8.048-8.939-6.17-9.137-12.224-18.353-16.108-28.751-1.507-4.036-2.583-8.232-4.067-13.039,5.14,1.485,9.556,3.155,14.211,3.849,9.744,1.451,19.422,1.811,28.893-1.58,6.1-2.185,10.709-5.94,12.766-12.321,9.322,5.754,19.29,8.4,30.294,6.6,8.137-1.333,14.793-5.308,20.627-10.913.9,1.459-.551,2.064-1.153,2.862-4.538,6.017-9.475,11.706-14.368,17.436-2.822,3.306-2.244,4.629,2.05,5.177,5.788.739,11.592,1.351,17.4,1.959a35.006,35.006,0,0,0,4.138.056c.9-.012,1.769-.271,1.821-1.349a1.918,1.918,0,0,0-1.276-2.014,13.826,13.826,0,0,0-2.8-.5c-5.651-.617-11.3-1.21-17.38-1.856.584-.881.827-1.332,1.148-1.718q11.8-14.2,23.6-28.4c1.557-1.876,3.132-3.749,4.528-5.743.687-.981,1.576-2.336.156-3.384-1.259-.929-2.211.193-2.977,1.023-1.654,1.79-3.193,3.688-4.8,5.522-2.481,2.831-4.407,6.161-7.56,8.386-.944-.927.089-1.549.434-2.159,4-7.055,5.225-14.641,4.73-22.656C2794.047,1007.906,2779.545,992.7,2761.465,991.1Zm-.054,115.459.029-.087c2.015,3.407,5.348,5.419,8.448,7.555,11.431,7.875,23.712,12.591,37.976,9.78,13.4-2.64,21.951-10.454,24.585-23.031a39.721,39.721,0,0,0-1.05-19.153c-.573-1.634.355-4.522-3.121-3.73a9.374,9.374,0,0,0-4.925,1.007,70.978,70.978,0,0,0-26.125,20.223c-1.021,1.281-1.907,2.159-3.662,1.665-6.164-1.734-12.548-1.978-18.863-2.228-5.131-.2-10.389-.128-15.316,1.91a1.977,1.977,0,0,0-2.26,1.639c-.226,1.152.6,1.884,1.474,2.482.676.462,1.371.9,2.058,1.342Z"/><path class="h" d="M2857.072,1149.875c6.575-3.595,13.307-6.9,19.6-11.016,8.2-5.362,14.548-12.5,20.243-20.321.619-.85,1.276-1.672,1.916-2.506,8.229,5.462,12.381,13.692,14.207,22.892,2.1,10.58-.6,20.607-5.9,29.919-.636,1.117-1.646,1.994-.013,3.127,3.845,2.671,6.269,6.536,8.588,10.473,4.333,11.041,5.016,22.174,1.258,33.564a31.391,31.391,0,0,1-10.678,15.251c6.471,4.417,8.946,11.041,9.925,18.354,1.24,9.256.539,18.426-4.383,26.5-4.708,7.727-12.542,10.9-21.3,11.415-6.056.357-12.2-.046-17.525-3.429-8.819-5.6-11.311-14.133-10.472-23.995.855-10.038,5.165-18.187,13.887-24.286-9.312-4.829-15-12.554-16.5-22.466-1.451-9.583-.611-19.277,3.807-28.276,2.024-2.425,3.8-5.09,6.52-6.847,1.378-.89.6-1.3-.276-1.97a24.747,24.747,0,0,1-9.272-14.3C2859.733,1157.872,2858.886,1153.723,2857.072,1149.875Z"/><path class="e" d="M2712.045,950.883c4.333-4.931,9.747-8.428,15.376-11.664,9.368-5.385,18.738-10.747,28.84-14.7a193.577,193.577,0,0,1,35.151-9.759c1.353-.253,2.7-.549,4.052-.8,8.055-1.488,8.024-1.463,12.59,5.047.853,1.217.377,2.171-.019,3.259a29.246,29.246,0,0,0-2.019,9.923c0,1.764-.654,2.243-2.31,2.55-8.124,1.509-16.436,1.847-24.439,4.135a195.618,195.618,0,0,0-45.207,19.267c-3.767-.487-7.464-1.637-11.329-1.2l-2.868-.074-4.962.524a3.165,3.165,0,0,0-1.311-3.081Z"/><path class="f" d="M2713.59,954.308a3.165,3.165,0,0,1,1.311,3.081c-16.914,6.461-33.363,13.756-47.12,25.959a72.521,72.521,0,0,0-12.851,15.312c-.285.446-.525.923-.83,1.354-.626.886-1.379,1.912-2.561,1.318-1.077-.541-.523-1.735-.29-2.583,1.217-4.432,3.912-8.029,7.04-11.214a123.17,123.17,0,0,1,43.356-28.97C2705.58,957.028,2709.281,954.8,2713.59,954.308Z"/><path class="i" d="M2851.983,1005.849l2.37.034c2.222,1.152,4.557,2.129,6.642,3.489,5.522,3.6,9.951,8.306,10.593,15.1,1.674,17.689-10.107,29.629-27.774,28.563-17.524-1.056-27.345-17.19-19.956-33.07,3.786-8.136,9.727-13.809,19.2-14.69C2846.044,1005.308,2849.053,1004.966,2851.983,1005.849Zm-9.641,23.23c1.13-.074,2.065-.459,1.884-1.679a3.952,3.952,0,0,0-3.058-3.6,1.625,1.625,0,0,0-1.957,1.91A3.445,3.445,0,0,0,2842.342,1029.079Zm9.108-4.971a3.9,3.9,0,0,0-3.2,3.36,1.489,1.489,0,0,0,1.694,1.786,3.61,3.61,0,0,0,3.22-3.343C2853.309,1024.8,2852.7,1024.137,2851.45,1024.108Zm-.308,9.38c-1.057.21-2.2.473-2.009,1.862a2.9,2.9,0,0,0,2.957,2.7,1.9,1.9,0,0,0,2.051-1.944C2854.058,1034.36,2852.739,1033.695,2851.142,1033.488Zm-9.424.464a2.148,2.148,0,0,0-2.533-1.848c-1.449.165-2.743.777-2.72,2.511.021,1.533,1.213,1.886,2.453,1.82A2.683,2.683,0,0,0,2841.718,1033.952Zm4.029,5.11c-.215-.733-.1-2.1-1.441-1.786a3.613,3.613,0,0,0-2.733,3.462c-.074.93.157,2.228,1.4,1.952C2844.639,1042.32,2845.437,1040.883,2845.747,1039.062Z"/><path class="g" d="M2723.43,1039.783c-5.081.216-10.163.648-15.241.6-8.9-.086-14.376-7.6-12.147-16.333,3.976-15.588,14.914-23.907,32.149-24.418,1.693-.051,3.39.055,5.083.087a7.094,7.094,0,0,1-.7,1.05C2721.74,1011.953,2719.464,1025.136,2723.43,1039.783Z"/><path class="e" d="M2897.175,956.184a7.418,7.418,0,0,0-4.5,2.543c-4.676-2.3-9.518-5.175-14.737-4.237-5.781,1.039-9.673-1.67-13.908-4.44-5.681-3.714-11.337-7.5-17.69-10.024-1.186-.472-1.851-1.011-1.128-2.323a.7.7,0,0,0,.118-.294c.135-6.309,3.639-8.518,9.571-8.138a12.2,12.2,0,0,0,4.978-.941c5.351-2.068,9.886-.759,14.538,2.326,10.172,6.744,19.381,14.466,26.864,24.154l-.826.514C2899.341,955.525,2898.129,955.362,2897.175,956.184Z"/><path class="j" d="M2787.5,1053.661c-5.833,5.6-12.489,9.58-20.626,10.913-11,1.8-20.972-.843-30.294-6.6.769-3.065.525-6.183.5-9.286,1.126.967,2.241,1.94,3.374,2.892,12.638,10.622,30.782,8.081,40.715.292,11.182-8.769,12.369-29.932,2.531-41.868-6.56-7.958-15.424-11.169-25.406-11.921a11.494,11.494,0,0,0,3.175-6.984c18.08,1.6,32.582,16.8,33.718,35.209.495,8.015-.732,15.6-4.73,22.656-.345.61-1.378,1.232-.434,2.159l.028-.023c-1.8-.082-2,1.433-2.566,2.574Z"/><path class="e" d="M2831.453,941.7c-8.045.037-13.012-1.525-17.513-4.594-1.15-.784-2.265-1.623-2.428-3.157-1.387-13.06,7.386-21.76,19.505-19.537,7.465,1.369,12.265,9.223,10.468,17.037C2839.606,939.616,2837.5,941.751,2831.453,941.7Z"/><path class="k" d="M2758.29,998.086c9.982.752,18.846,3.963,25.406,11.921,9.838,11.936,8.651,33.1-2.531,41.868-9.933,7.789-28.077,10.33-40.715-.292-1.133-.952-2.248-1.925-3.374-2.892l-4.7-6.471c-9.432-18.863-.1-34.6,13.58-41.814C2750.176,1000.225,2754.5,1000.6,2758.29,998.086Zm28.848,31.358c-.01-16.257-12.246-28.182-28.911-28.175-15.122.006-26.411,11.419-26.458,26.749-.048,15.428,13.037,27.609,29.719,27.665C2776.894,1055.735,2787.148,1045.246,2787.138,1029.444Z"/><path class="j" d="M2843.461,1062.681c-9.317-1.095-17.745-4.184-24.137-11.369-14.209-15.97-8.845-41.256,10.68-50.692a22.963,22.963,0,0,1,5.783,2.819c-1.492.788-3.041,1.479-4.459,2.377-9.461,5.99-13.71,14.823-13.1,25.772.568,10.245,5.753,17.685,15.262,21.908,4.546,2.019,9.427,2.186,14.271,2.555C2845.941,1058.013,2844.052,1059.927,2843.461,1062.681Z"/><path class="k" d="M2847.757,1056.051c-4.844-.369-9.725-.536-14.271-2.555-9.509-4.223-14.694-11.663-15.262-21.908-.606-10.949,3.643-19.782,13.1-25.772,1.418-.9,2.967-1.589,4.459-2.377l7.7.781c-.146.35-.286.7-.425,1.054-9.474.881-15.415,6.554-19.2,14.69-7.389,15.88,2.432,32.014,19.956,33.07,17.667,1.066,29.448-10.874,27.774-28.563-.642-6.793-5.071-11.5-10.593-15.1-2.085-1.36-4.42-2.337-6.642-3.489a21.752,21.752,0,0,1,20.935,25.48c-.337,1.764-.8,3.512-1.308,5.235-1.879,6.327-5.482,11.1-11.888,13.53C2857.26,1051.962,2852.531,1054.067,2847.757,1056.051Z"/><path class="j" d="M2745.952,1000.406c-13.684,7.209-23.012,22.951-13.58,41.814-2.973-.843-5.847-2.046-8.943-2.437-3.965-14.647-1.689-27.83,9.144-39.015a7.094,7.094,0,0,0,.7-1.05Z"/><path class="g" d="M2732.126,1056.346c-.036,3.914-3.476,7.47-7.183,7.423-3.6-.046-6.438-3.438-6.388-7.645a6.749,6.749,0,0,1,7.111-6.882C2729.433,1049.249,2732.163,1052.251,2732.126,1056.346Z"/><path class="g" d="M2860.256,1075.4a20.771,20.771,0,0,1-6.835-1.309c-3.769-1.205-3.882-1.558-2.257-5.074a11.076,11.076,0,0,1,3.333-4.176c2.414-1.858,5.084-2.625,7.987-1.115,1.965,1.022,4.46,6.041,4,8.217C2865.758,1075.424,2862.953,1075.366,2860.256,1075.4Z"/><path class="g" d="M2722.731,956.939c3.865-.434,7.562.716,11.329,1.2l1.347.744c1.65.914,4.048,1.82,3.962,3.643-.1,2.055-2.6,2.763-4.492,3.386-5.994,1.974-10.689-.892-11.777-7.122C2722.992,958.173,2722.855,957.557,2722.731,956.939Z"/><path class="g" d="M2862.905,967.958c.406.078,1.429-.79,1.933.146.43.8-.344,1.591-.808,2.273-2.392,3.515-8.232,4.917-12,2.9-.547-.293-1.242-.529-1.329-1.242-.108-.9.759-.8,1.269-1.086A21.57,21.57,0,0,1,2862.905,967.958Z"/><path class="g" d="M2878.31,958.147a26.487,26.487,0,0,1,9.981,2.72c.712.385,1.834.636,1.768,1.588-.079,1.123-1.281,1.25-2.165,1.528-3.277,1.032-9.543-1.092-11.5-3.88-.3-.429-.716-.9-.433-1.428C2876.494,957.683,2877.469,958.281,2878.31,958.147Z"/><path class="g" d="M2750.313,987.483a4.992,4.992,0,0,1-4.773-2.533c-.858-1.43-2.015-3.23-.823-4.659.935-1.12,2.5.256,3.713.682a47.223,47.223,0,0,1,5.2,2.264c.725.357,1.683.795,1.681,1.733,0,1.13-1.185,1.327-1.956,1.8A5.659,5.659,0,0,1,2750.313,987.483Z"/><path class="g" d="M2900.458,955.324l.826-.514a20.774,20.774,0,0,1,9.153,3.2c.746.446,1.939.772,1.664,1.936-.227.961-1.206,1.427-2.118,1.744-3.432,1.19-7.925-1.228-9.065-4.858C2900.761,956.328,2900.611,955.825,2900.458,955.324Z"/><path class="g" d="M2840.6,988.225c-2.7-.158-6.1-.288-6.207-2.474-.089-1.893,3.482-1.9,5.611-2.228a9.368,9.368,0,0,1,2.826-.045c1.1.172,2.853-.678,3.078,1.2.2,1.688-1.075,2.685-2.572,3.144A15.235,15.235,0,0,1,2840.6,988.225Z"/><path class="f" d="M2697.6,1068.94c2.991,1.324,6.4.319,10.05,1.967-5.088-.109-9.45-.481-13.729-1.943h3.723Z"/><path class="j" d="M2843.059,1005.274c.139-.352.279-.7.425-1.054,2.8.747,5.954-.4,8.5,1.629C2849.053,1004.966,2846.044,1005.308,2843.059,1005.274Z"/><path class="f" d="M2715.515,1070.964c-2.044,1.091-4.147.505-6.252-.108h6.162Z"/><path class="f" d="M2691.9,1068.572a1.88,1.88,0,0,1-.307.322.329.329,0,0,1-.254-.036,2.067,2.067,0,0,1,.024-.4Z"/><path class="f" d="M2715.425,1070.856l.707-.3-.618.41Z"/><path class="b" d="M2664.161,957.769c.6-.309,1.023-1.046,1.916-.784-.118.87-.828,1.046-1.442,1.325Z"/><path class="b" d="M2669.044,955.051c-.508.473-.883,1.181-1.817,1.006-.1-.929.659-1.176,1.2-1.58C2668.63,954.668,2668.837,954.86,2669.044,955.051Z"/><path class="l" d="M2831.4,1081.624a39.714,39.714,0,0,1,1.051,19.154c-2.634,12.577-11.184,20.391-24.585,23.031-14.264,2.811-26.545-1.9-37.976-9.78-3.1-2.136-6.433-4.148-8.448-7.555,2.606.068,4.943,1.166,7.3,2.066a75.278,75.278,0,0,0,21.832,5.258c11.58.8,21.17-2.973,28.817-11.7C2824.7,1096.037,2827.743,1088.654,2831.4,1081.624Z"/><path class="l" d="M2759.387,1100.472c4.927-2.038,10.185-2.112,15.316-1.91,6.315.25,12.7.494,18.863,2.228,1.755.494,2.641-.384,3.662-1.665a70.978,70.978,0,0,1,26.125-20.223,9.376,9.376,0,0,1,4.926-1.007,69.013,69.013,0,0,1-11.222,20.939,29.481,29.481,0,0,1-24.591,11.338C2780.713,1109.773,2770.067,1104.9,2759.387,1100.472Z"/><path class="c" d="M2759.387,1100.472c10.68,4.432,21.326,9.3,33.079,9.7a29.481,29.481,0,0,0,24.591-11.338,69.013,69.013,0,0,0,11.222-20.939c3.475-.792,2.547,2.1,3.119,3.73-3.655,7.029-6.7,14.412-12.014,20.473-7.647,8.727-17.237,12.5-28.817,11.7a75.278,75.278,0,0,1-21.832-5.258c-2.352-.9-4.689-2-7.3-2.066l-.029.087-.752-.626c-.687-.446-1.382-.88-2.058-1.342-.874-.6-1.7-1.33-1.474-2.482A1.977,1.977,0,0,1,2759.387,1100.472Z"/><path class="f" d="M2790.019,1051.126c3.153-2.225,5.079-5.555,7.56-8.386,1.608-1.834,3.147-3.732,4.8-5.522.766-.83,1.718-1.952,2.977-1.023,1.42,1.048.531,2.4-.156,3.384-1.4,1.994-2.971,3.867-4.528,5.743q-11.79,14.208-23.6,28.4c-.321.386-.564.837-1.148,1.718,6.076.646,11.729,1.239,17.38,1.856a13.826,13.826,0,0,1,2.8.5,1.918,1.918,0,0,1,1.276,2.014c-.052,1.078-.917,1.337-1.821,1.349a35.006,35.006,0,0,1-4.138-.056c-5.8-.608-11.608-1.22-17.4-1.959-4.294-.548-4.872-1.871-2.05-5.177,4.893-5.73,9.83-11.419,14.368-17.436.6-.8,2.055-1.4,1.153-2.862l-.015.016c1.85.133,2.3-1.127,2.566-2.574Z"/><path class="l" d="M2760.659,1105.935l.752.626Z"/><path class="k" d="M2842.342,1029.079a3.445,3.445,0,0,1-3.131-3.372,1.625,1.625,0,0,1,1.957-1.91,3.952,3.952,0,0,1,3.058,3.6C2844.407,1028.62,2843.472,1029.005,2842.342,1029.079Z"/><path class="k" d="M2851.45,1024.108c1.254.029,1.859.691,1.711,1.8a3.61,3.61,0,0,1-3.22,3.343,1.489,1.489,0,0,1-1.694-1.786A3.9,3.9,0,0,1,2851.45,1024.108Z"/><path class="k" d="M2851.142,1033.488c1.6.207,2.916.872,3,2.617a1.9,1.9,0,0,1-2.051,1.944,2.9,2.9,0,0,1-2.957-2.7C2848.938,1033.961,2850.085,1033.7,2851.142,1033.488Z"/><path class="k" d="M2841.718,1033.952a2.683,2.683,0,0,1-2.8,2.483c-1.24.066-2.432-.287-2.453-1.82-.023-1.734,1.271-2.346,2.72-2.511A2.148,2.148,0,0,1,2841.718,1033.952Z"/><path class="k" d="M2845.747,1039.062c-.31,1.821-1.108,3.258-2.773,3.628-1.244.276-1.475-1.022-1.4-1.952a3.613,3.613,0,0,1,2.733-3.462C2845.647,1036.962,2845.532,1038.329,2845.747,1039.062Z"/><path class="g" d="M2790.047,1051.1c-.264,1.447-.716,2.707-2.566,2.574C2788.052,1052.536,2788.248,1051.021,2790.047,1051.1Z"/><path class="i" d="M2787.138,1029.444c.01,15.8-10.244,26.291-25.65,26.239-16.682-.056-29.767-12.237-29.719-27.665.047-15.33,11.336-26.743,26.458-26.749C2774.892,1001.262,2787.128,1013.187,2787.138,1029.444Zm-33.885-6.571a3.528,3.528,0,0,0-3.377-3.119c-1.2-.069-2.57.168-2.483,1.742a3.567,3.567,0,0,0,3.325,3.311A2.1,2.1,0,0,0,2753.253,1022.873Zm6.3-3.159c.021-1.629-.424-2.786-2.127-2.655a2.444,2.444,0,0,0-2.375,2.824c.047,1.354.569,2.73,2.08,2.764C2759.03,1022.689,2759.416,1021.108,2759.552,1019.714Zm7.038,2.558c-.09-1.209-.622-2.145-1.908-1.962a3.635,3.635,0,0,0-3.484,3.429,1.631,1.631,0,0,0,2.055,1.772A3.69,3.69,0,0,0,2766.59,1022.272Zm-13.71,14.772c.129.98.052,2.242,1.663,2.013a3.269,3.269,0,0,0,2.969-3.228c.113-1.409-.623-2.85-2.02-2.726C2753.43,1033.286,2753.242,1035.3,2752.88,1037.044Zm13.768-5.313a3.083,3.083,0,0,0-3.379-2.626c-1.009.034-2.445.431-2.225,1.731.349,2.057,2.121,2.771,4.014,2.871C2766.242,1033.77,2766.638,1032.856,2766.648,1031.731Zm-15.392-.879c.03-1.253-.47-2.123-1.612-2.012a3.886,3.886,0,0,0-3.539,3.482,1.325,1.325,0,0,0,1.393,1.706A4.16,4.16,0,0,0,2751.256,1030.852Z"/><path class="k" d="M2753.253,1022.873a2.1,2.1,0,0,1-2.535,1.934,3.567,3.567,0,0,1-3.325-3.311c-.087-1.574,1.282-1.811,2.483-1.742A3.528,3.528,0,0,1,2753.253,1022.873Z"/><path class="k" d="M2759.552,1019.714c-.136,1.394-.522,2.975-2.422,2.933-1.511-.034-2.033-1.41-2.08-2.764a2.444,2.444,0,0,1,2.375-2.824C2759.128,1016.928,2759.573,1018.085,2759.552,1019.714Z"/><path class="k" d="M2766.59,1022.272a3.69,3.69,0,0,1-3.337,3.239,1.631,1.631,0,0,1-2.055-1.772,3.635,3.635,0,0,1,3.484-3.429C2765.968,1020.127,2766.5,1021.063,2766.59,1022.272Z"/><path class="k" d="M2752.88,1037.044c.362-1.746.55-3.758,2.612-3.941,1.4-.124,2.133,1.317,2.02,2.726a3.269,3.269,0,0,1-2.969,3.228C2752.932,1039.286,2753.009,1038.024,2752.88,1037.044Z"/><path class="k" d="M2766.648,1031.731c-.01,1.125-.406,2.039-1.59,1.976-1.893-.1-3.665-.814-4.014-2.871-.22-1.3,1.216-1.7,2.225-1.731A3.083,3.083,0,0,1,2766.648,1031.731Z"/><path class="k" d="M2751.256,1030.852a4.16,4.16,0,0,1-3.758,3.176,1.325,1.325,0,0,1-1.393-1.706,3.886,3.886,0,0,1,3.539-3.482C2750.786,1028.729,2751.286,1029.6,2751.256,1030.852Z"/></g></svg>