<svg xmlns="http://www.w3.org/2000/svg" xmlns:xlink="http://www.w3.org/1999/xlink" width="1697" height="650" viewBox="0 0 1697 650"><defs><style>.a,.b{fill:#35363a;}.a,.b,.h{font-size:25px;}.a,.h,.i{font-family:Flame SansBold, Flame Sans;}.b,.d,.k{font-family:Flame Sans, Flame;}.c{fill:#408441;}.d{fill:#fff;}.d,.k{font-size:72px;}.e{fill:#00b275;}.f{fill:#f27900;}.g{fill:#c6371e;}.h,.k{fill:#222;}.i{font-size:20px;}.j{fill:none;stroke:#fff;stroke-linecap:round;stroke-width:4px;}.l{fill:url(#a);}.m{filter:url(#n);}.n{filter:url(#k);}.o{filter:url(#h);}.p{filter:url(#e);}.q{filter:url(#b);}</style><linearGradient id="a" x1="0.63" y1="0.33" x2="0.5" y2="0.746" gradientUnits="objectBoundingBox"><stop offset="0" stop-color="#ffe600"/><stop offset="1" stop-color="#f3ad3d"/></linearGradient><filter id="b" x="0" y="290" width="190" height="190" filterUnits="userSpaceOnUse"><feOffset dy="3" input="SourceAlpha"/><feGaussianBlur stdDeviation="5" result="c"/><feFlood flood-opacity="0.161"/><feComposite operator="in" in2="c"/><feComposite in="SourceGraphic"/></filter><filter id="e" x="165" y="296" width="178" height="178" filterUnits="userSpaceOnUse"><feOffset dy="3" input="SourceAlpha"/><feGaussianBlur stdDeviation="3" result="f"/><feFlood flood-opacity="0.161"/><feComposite operator="in" in2="f"/><feComposite in="SourceGraphic"/></filter><filter id="h" x="644" y="296" width="178" height="178" filterUnits="userSpaceOnUse"><feOffset dy="3" input="SourceAlpha"/><feGaussianBlur stdDeviation="3" result="i"/><feFlood flood-opacity="0.161"/><feComposite operator="in" in2="i"/><feComposite in="SourceGraphic"/></filter><filter id="k" x="325" y="296" width="178" height="178" filterUnits="userSpaceOnUse"><feOffset dy="3" input="SourceAlpha"/><feGaussianBlur stdDeviation="3" result="l"/><feFlood flood-opacity="0.161"/><feComposite operator="in" in2="l"/><feComposite in="SourceGraphic"/></filter><filter id="n" x="484" y="296" width="178" height="178" filterUnits="userSpaceOnUse"><feOffset dy="3" input="SourceAlpha"/><feGaussianBlur stdDeviation="3" result="o"/><feFlood flood-opacity="0.161"/><feComposite operator="in" in2="o"/><feComposite in="SourceGraphic"/></filter></defs><g transform="translate(-110 -4120)"><text class="a" transform="translate(113 4719)"><tspan x="0" y="25">Qualitative measurements include: ...WIP</tspan></text><text class="b" transform="translate(1461 4671)"><tspan x="-138.837" y="0">Franchisee Letter Grades</tspan></text><text class="a" transform="translate(1258 4150)"><tspan x="0" y="25">Our best operators who we celebrate and love</tspan></text><text class="a" transform="translate(1258 4277)"><tspan x="0" y="25">Meeting expectations</tspan></text><text class="a" transform="translate(1258 4531)"><tspan x="0" y="25">Not acceptable and need to move up or out</tspan></text><text class="a" transform="translate(1258 4404)"><tspan x="0" y="25">At an inflection point but need to improve</tspan></text><circle class="c" cx="50" cy="50" r="50" transform="translate(1115 4120)"/><text class="d" transform="translate(1140 4196)"><tspan x="0" y="0">A</tspan></text><circle class="e" cx="50" cy="50" r="50" transform="translate(1115 4247)"/><text class="d" transform="translate(1144 4326)"><tspan x="0" y="0">B</tspan></text><circle class="f" cx="50" cy="50" r="50" transform="translate(1115 4374)"/><text class="d" transform="translate(1143 4450)"><tspan x="0" y="0">D</tspan></text><circle class="g" cx="50" cy="50" r="50" transform="translate(1115 4501)"/><text class="d" transform="translate(1146 4580)"><tspan x="0" y="0">F</tspan></text><g transform="translate(0 62)"><text class="b" transform="translate(565 4609)"><tspan x="-197.725" y="0">Franchisee Letter Grade Thresholds</tspan></text><text class="h" transform="translate(524 4320)"><tspan x="-15.625" y="0">2.5</tspan></text><g transform="translate(199 4186.484)"><text class="i" transform="translate(224 20)"><tspan x="-16.96" y="0">&lt;2.5</tspan></text><text class="i" transform="translate(92 20)"><tspan x="-91.54" y="0">Average Star Rating:</tspan></text></g><text class="i" transform="translate(666 4206.484)"><tspan x="-32.84" y="0">3.0 - 3.7</tspan></text><text class="i" transform="translate(560 4206.484)"><tspan x="-32.49" y="0">2.5 - 2.9</tspan></text><text class="i" transform="translate(842 4206.484)"><tspan x="-24.04" y="0">&gt;= 3.8</tspan></text><text class="h" transform="translate(595 4320)"><tspan x="-15.212" y="0">2.9</tspan></text><text class="h" transform="translate(736 4320)"><tspan x="-14.275" y="0">3.7</tspan></text><rect class="c" width="187" height="33" transform="translate(736 4241)"/><rect class="g" width="399" height="33" transform="translate(125 4241)"/><rect class="e" width="141" height="33" transform="translate(595 4241)"/><rect class="f" width="71" height="33" transform="translate(524 4241)"/><line class="j" y1="33" transform="translate(736 4241)"/><line class="j" y1="33" transform="translate(595 4241)"/><line class="j" y1="33" transform="translate(524 4241)"/><text class="k" transform="translate(817 4142)"><tspan x="0" y="0">A</tspan></text><text class="k" transform="translate(644 4142)"><tspan x="0" y="0">B</tspan></text><text class="k" transform="translate(560 4142)"><tspan x="-24.192" y="0">D</tspan></text><text class="k" transform="translate(300 4142)"><tspan x="0" y="0">F</tspan></text><g transform="translate(124.842 4360)"><g transform="translate(0.158)"><g class="q" transform="matrix(1, 0, 0, 1, -15, -302)"><path class="l" d="M78.1,5.64a2,2,0,0,1,3.792,0L99.555,58.177a2,2,0,0,0,1.842,1.362l53.169,1.429a2,2,0,0,1,1.2,3.557L113.39,98.672a2,2,0,0,0-.67,2.1l15.16,53.691a2,2,0,0,1-3.1,2.164l-43.61-31.556a2,2,0,0,0-2.345,0l-43.61,31.556a2,2,0,0,1-3.1-2.164l15.16-53.691a2,2,0,0,0-.67-2.1L4.233,64.525a2,2,0,0,1,1.2-3.557L58.6,59.539a2,2,0,0,0,1.842-1.362Z" transform="translate(15 302)"/></g></g><g transform="translate(159.158)"><g class="p" transform="matrix(1, 0, 0, 1, -174, -302)"><path class="l" d="M78.1,5.64a2,2,0,0,1,3.792,0L99.555,58.177a2,2,0,0,0,1.842,1.362l53.169,1.429a2,2,0,0,1,1.2,3.557L113.39,98.672a2,2,0,0,0-.67,2.1l15.16,53.691a2,2,0,0,1-3.1,2.164l-43.61-31.556a2,2,0,0,0-2.345,0l-43.61,31.556a2,2,0,0,1-3.1-2.164l15.16-53.691a2,2,0,0,0-.67-2.1L4.233,64.525a2,2,0,0,1,1.2-3.557L58.6,59.539a2,2,0,0,0,1.842-1.362Z" transform="translate(174 302)"/></g></g><g transform="translate(638.158)"><g class="o" transform="matrix(1, 0, 0, 1, -653, -302)"><path class="l" d="M78.1,5.64a2,2,0,0,1,3.792,0L99.555,58.177a2,2,0,0,0,1.842,1.362l53.169,1.429a2,2,0,0,1,1.2,3.557L113.39,98.672a2,2,0,0,0-.67,2.1l15.16,53.691a2,2,0,0,1-3.1,2.164l-43.61-31.556a2,2,0,0,0-2.345,0l-43.61,31.556a2,2,0,0,1-3.1-2.164l15.16-53.691a2,2,0,0,0-.67-2.1L4.233,64.525a2,2,0,0,1,1.2-3.557L58.6,59.539a2,2,0,0,0,1.842-1.362Z" transform="translate(653 302)"/></g></g><g transform="translate(319.158)"><g class="n" transform="matrix(1, 0, 0, 1, -334, -302)"><path class="l" d="M78.1,5.64a2,2,0,0,1,3.792,0L99.555,58.177a2,2,0,0,0,1.842,1.362l53.169,1.429a2,2,0,0,1,1.2,3.557L113.39,98.672a2,2,0,0,0-.67,2.1l15.16,53.691a2,2,0,0,1-3.1,2.164l-43.61-31.556a2,2,0,0,0-2.345,0l-43.61,31.556a2,2,0,0,1-3.1-2.164l15.16-53.691a2,2,0,0,0-.67-2.1L4.233,64.525a2,2,0,0,1,1.2-3.557L58.6,59.539a2,2,0,0,0,1.842-1.362Z" transform="translate(334 302)"/></g></g><g transform="translate(478.158)"><g class="m" transform="matrix(1, 0, 0, 1, -493, -302)"><path class="l" d="M78.1,5.64a2,2,0,0,1,3.792,0L99.555,58.177a2,2,0,0,0,1.842,1.362l53.169,1.429a2,2,0,0,1,1.2,3.557L113.39,98.672a2,2,0,0,0-.67,2.1l15.16,53.691a2,2,0,0,1-3.1,2.164l-43.61-31.556a2,2,0,0,0-2.345,0l-43.61,31.556a2,2,0,0,1-3.1-2.164l15.16-53.691a2,2,0,0,0-.67-2.1L4.233,64.525a2,2,0,0,1,1.2-3.557L58.6,59.539a2,2,0,0,0,1.842-1.362Z" transform="translate(493 302)"/></g></g></g></g></g></svg>