<svg xmlns="http://www.w3.org/2000/svg" width="184.527" height="320.988" viewBox="0 0 184.527 320.988"><defs><style>.a{fill:#f4eadb;}.b{fill:#fd8733;}.c{fill:#512415;}.d{fill:#592e1f;}.e{fill:#5a2f20;}.f{fill:#5b3021;}.g{fill:#dbdbdb;}.h{fill:#f4e7d7;}.i{fill:#f2e5d5;}.j{fill:#693118;}.k{fill:#72361a;}</style></defs><g transform="translate(1031.43 -2053.97)"><path class="a" d="M-982.675,2443.537c0-2.086,0-4.172.017-6.258.009-1.1-.16-2.061-1.568-1.995-4.334.2-7.818-1.959-11.317-4.059a68.738,68.738,0,0,1-22.094-21.264c-2.8-4.214-6.113-8.059-8.5-12.566-3.255-6.145-4.255-12.833-4.977-19.584a59.838,59.838,0,0,1,2.154-23.009c2.789-9.714,8.844-16.093,19.2-17.481,3.11-.417,6.042.728,8.739,2.341.992.593,1.854,1.515,3.17,1.367.683,4.559,3.544,8.112,5.588,12.039a.825.825,0,0,0,1.172.337,1.149,1.149,0,0,0,.536-1.409c-1.8-3.858-2.637-8.265-6.265-11.085.266-3.856-.715-7.8.917-11.56,4.452-10.248,17.1-13.846,26.874-7.607,1.141.728,2.2,1.582,3.3,2.378a6.087,6.087,0,0,0-.047,1.611c1.158,4.8,3.943,8.861,6.05,13.23a1.142,1.142,0,0,0,1.645.434c.733-.369.649-1.058.386-1.645-.99-2.217-1.92-4.473-3.085-6.6-1.318-2.408-1.665-5.343-3.9-7.252a18.874,18.874,0,0,1,18.223-17.145c3.424-.124,6.457,1.474,9.147,3.615.5.395.931,1.394,1.756.7.539-.456.138-1.178-.016-1.789q-1.526-6.04-3.026-12.085a2.764,2.764,0,0,1,2.61-.319c3.417,1.977,7.1,2.018,10.9,2.424,3.972.425,8.081.433,12.033,1.726a27.977,27.977,0,0,0,7.615.833c4.924.158,9.882-.374,14.833-.011,1.122,5.59,2.842,11.018,4.477,16.469-.3,2.488.513,4.832.932,7.23,1.276,7.3,2.479,14.62,3.833,21.908.217,1.165.294,3.313,2.042,2.858,1.64-.426.762-2.361.529-3.576-1.8-9.418-3.693-18.818-5.556-28.224,3.277-2.2,6.932-1.7,10.471-1.227,7.322.969,12.562,5.455,16.89,10.99,7.31,9.348,10.9,20.03,9.907,31.93-.881,10.53-3.889,20.546-9.894,29.3-3.375,4.92-8.194,8.7-12.766,12.553-6.1,5.133-12.321,10.139-19.642,13.508a17.979,17.979,0,0,1-4.553,1.742c-3.332.514-4.507,2.6-4.758,5.592q-.588,7.021-1.167,14.043c-.711.109-1.419.282-2.134.319-13.761.714-27.444,2.178-41.119,3.862A396.006,396.006,0,0,1-982.675,2443.537Zm47.954-130.988c-.245-.215-.414-.147-.526.14-.582,6.3,2.439,11.741,4.181,17.486a.971.971,0,0,0,.363.4c.357.275.751.6,1.216.389a1.036,1.036,0,0,0,.6-1.34C-930.459,2323.8-931.315,2317.741-934.721,2312.549Z" transform="translate(0 -110.403)"/><path class="b" d="M-939.6,2116.047a11.441,11.441,0,0,0-6.205,1.676c-.151.1-.305.277-.46.279-6.392.1-11.921,4.049-18.244,4.221a34.712,34.712,0,0,1-14.729-2.655c-3.468-1.513-7.076-3.714-9.231-7.045-1.568-2.424-2.214-5.446-3.267-8.2a.354.354,0,0,1-.013-.267c2.584-3.988.946-9.641,5.14-13.008a5.1,5.1,0,0,0,1.589-1.841c2.716-6.672,8.778-9.692,14.143-13.656,2.855-2.11,6.487-2.945,8.826-5.768a1.75,1.75,0,0,1,1.257-.378c2.3.075,3.992-1.162,5.48-2.643a11.835,11.835,0,0,1,8.261-3.363,7.791,7.791,0,0,0,4.813-1.568,3.292,3.292,0,0,1,1.667-.856c4.567-.2,8.127-3.339,12.467-4.178a49.661,49.661,0,0,1,7.628-.788c5-.164,9.577-2.154,14.69-2.03,5.617.136,11.081,1.262,16.65,1.375,2.209.044,2.851,2.141,4.032,3.34,2.329,2.364,4.933,4.336,6.312,7.838,2.132,5.41.189,10.024-.912,15-.854,3.854-4.33,5.561-6.323,8.458-.792,1.152-3.106,2.132-4.748,2.9-3.8,1.769-6.762,4.84-10.675,6.323a16.018,16.018,0,0,1-6.145,3.113,3.311,3.311,0,0,0-2.126,1.5,61.785,61.785,0,0,0-18.56,8.439c-1.1.182-2.279-.112-3.284.584C-935.01,2111.991-936.969,2114.86-939.6,2116.047Zm3.793-43.006c-1.36.785-3.019,1.118-4.409,2.865,2.281-.332,3.7-1.056,4.652-2.617.2-.17.4-.347.079-.569C-935.509,2072.705-935.7,2072.929-935.807,2073.042Zm20.26,8.813c.922-.362,1.871-.668,2.761-1.1,4.165-2.01,7-5.649,10.38-8.617,1.11-.976.179-1.779-.994-2.019a2.8,2.8,0,0,0-1.337.041c-5.647,1.749-11.766,2.13-16.759,5.791a2.241,2.241,0,0,1-1.5.508c-3.338-.648-6.026,1.728-9.182,1.886-2.879.145-4.737,3-7.747,2.922a13.642,13.642,0,0,0-7.867,2.527c-1.849,1.19-3.674,2.889-5.917,3.037-1.392.092-2.466.145-3.248,1.323a2.945,2.945,0,0,1-2.762,1.392c-.615-.021-1.32-.116-1.681.59a8.234,8.234,0,0,1-4.083,3.456c-2.293,1.116-.271,2.226-.063,3.258.314,1.57,1.332.627,2.056.317,1.213-.518,2.2-1.7,3.7-1.339,3.466.845,6.933-.221,9.769-1.516a74.034,74.034,0,0,1,11.544-3.842c3.652-2.032,8.556-.473,11.682-4.068.19-.218.676-.239,1.027-.248C-921.792,2086.057-918.607,2084.108-915.547,2081.855Zm21.323-7.411a5.917,5.917,0,0,0-5.056,6.645C-897.795,2078.389-896.584,2075.955-894.224,2074.445Zm-64.714,41.452c2.684.115,4.51-1.212,4.854-3.511Zm-19.57-3.338c-1.935-.682-3.277-1.495-4.92-1.108C-982.147,2112.506-980.885,2113.639-978.508,2112.558Zm86.988-52.149c.527,2.9.527,2.9,2.935,3.575C-889.578,2062.658-890.025,2061.448-891.52,2060.409Zm-84.054,43.418c1.8-.994,2.747-1.852,2.726-3.657C-974.434,2100.819-975.195,2101.8-975.574,2103.828Zm52.321,1.273a8.615,8.615,0,0,0-4.146-3.012A4.492,4.492,0,0,0-923.253,2105.1Z" transform="translate(-18.042)"/><path class="c" d="M-955.307,2560.613a396.006,396.006,0,0,0,39.576-2.41c13.675-1.683,27.358-3.148,41.119-3.862a21.564,21.564,0,0,0,2.134-.32c5.16.249,4.921.258,5.139,5.917.373,9.69,1.063,19.368,1.653,29.049.215,3.529.421,7.063.826,10.573.258,2.236-.373,2.885-2.7,2.876-24.21-.091-48.421-.056-72.631-.056-9.7,0-19.405-.039-29.107.036-1.82.014-2.359-.3-1.691-2.2,3.808-10.846,7.28-21.8,10.087-32.952.2-.788.519-1.546.707-2.336C-959.581,2562.329-958.256,2560.558-955.307,2560.613Z" transform="translate(-27.367 -227.479)"/><path class="b" d="M-846.821,2262.46c-4.952-.363-9.91.169-14.833.011a27.977,27.977,0,0,1-7.615-.833c-3.953-1.292-8.062-1.3-12.033-1.726-3.806-.406-7.487-.447-10.9-2.424a2.764,2.764,0,0,0-2.61.319c-4.087-1.186-8.476-1.313-12.272-3.533a3.1,3.1,0,0,0-1.766-.6c-3.349.542-6.1-1.3-9.113-2.109-4.151-1.119-6.7-4.481-10-6.783-3.377-2.354-3.873-6.206-6.252-8.946-.932-1.073.066-2.312-.654-3.566-1.278-2.228,1.361-9.377,3.249-11.105a44.172,44.172,0,0,1,10.454-7.187c4.568-2.27,9.246-2.679,13.875-3.9,1.509,5.531,3.158,11.025,4.265,16.659-1.566.579-3.21.258-4.814.388-1.954.159-.954,1.671-1.335,2.555-.306.708-.287,1.507.5,1.362,2.941-.546,4.911,1.668,7.4,2.357,2.239.074,3.829,2.218,6.023,2.1a18.3,18.3,0,0,1,6.952.869c2.556.85,5.383,1.059,7.766,2.218,4.216,2.05,8.869,1.678,13.222,2.956,3.053.9,6.463.02,9.675.79,1.582.38,3.007-.35,4.308-1.239,2.154-.135,4.367.276,6.439-.615.644-.277,1.431-.564,1.4-1.454-.027-.719-.677-1.012-1.23-1.328a25.665,25.665,0,0,0-7.715-2.47,15.677,15.677,0,0,1-1.142-2.4c-1.647-5.766-3.237-11.548-4.846-17.324.361.006.884-.143,1.057.04,2.223,2.346,5.7,2.006,8.155,3.857a10.167,10.167,0,0,0,4.615,1.5,10.05,10.05,0,0,1,3.286,1.235,109.353,109.353,0,0,1,15.665,10.82c1.717,1.4,1.151,3.653,1.967,5.435,1.815,3.959,1.115,8.058-.06,12.084-.957,3.275-4.18,4.652-6.026,7.186-2.428,3.334-6.62,3.009-9.925,4.493C-842.947,2262.706-845.1,2262.007-846.821,2262.46Zm-1.106-13.87a19.349,19.349,0,0,1,7.252-2.736C-843.724,2244.715-846.761,2245.875-847.927,2248.59Zm-59.616-.834-5.336.608C-910.717,2249.748-909.1,2249.126-907.543,2247.755Zm-12.818-17.615c2.337.393,2.565.3,3.628-1.49A4.4,4.4,0,0,0-920.361,2230.141Zm-7,6.146a6.634,6.634,0,0,0-3.473-3.572C-930.209,2234.635-929.424,2235.728-927.358,2236.286Z" transform="translate(-43.771 -71.015)"/><path class="a" d="M-835.531,2207.822c-1.3.889-2.727,1.619-4.308,1.239-3.212-.77-6.623.107-9.675-.79-4.353-1.279-9.006-.907-13.222-2.956-2.383-1.159-5.21-1.368-7.766-2.218a18.3,18.3,0,0,0-6.952-.869c-2.193.122-3.783-2.022-6.023-2.1l-1.744-6.662c-1.107-5.634-2.757-11.128-4.265-16.659-1.653-7.825-4.208-15.393-6.575-23.015,2.631-1.187,4.59-4.056,8.033-3.21,2.837,3.087,6.561,3.059,10.272,2.791,7.9-.57,13.449-6.026,13.7-13.317a15.983,15.983,0,0,0,6.146-3.111c4.433,9.955,7.592,20.361,10.873,30.722,1.531,4.833,2.945,9.7,4.412,14.556,1.609,5.777,3.2,11.559,4.846,17.324a15.68,15.68,0,0,0,1.142,2.4Q-836.084,2204.888-835.531,2207.822Z" transform="translate(-61.581 -37.748)"/><path class="d" d="M-763.112,2336.309c1.863,9.406,3.753,18.806,5.556,28.224.232,1.214,1.111,3.149-.529,3.576-1.748.455-1.826-1.693-2.042-2.858-1.354-7.288-2.557-14.6-3.834-21.908-.419-2.4-1.227-4.742-.932-7.23C-764.25,2335.729-763.628,2335.547-763.112,2336.309Z" transform="translate(-121.222 -128.199)"/><path class="d" d="M-909.915,2346.635c2.234,1.909,2.58,4.844,3.9,7.252,1.164,2.126,2.095,4.382,3.085,6.6.262.588.346,1.276-.386,1.645a1.142,1.142,0,0,1-1.645-.434c-2.107-4.37-4.892-8.433-6.05-13.23a6.094,6.094,0,0,1,.047-1.611Z" transform="translate(-54.758 -133.137)"/><path class="e" d="M-968.785,2377.84c3.628,2.82,4.469,7.227,6.265,11.085a1.149,1.149,0,0,1-.536,1.409.826.826,0,0,1-1.172-.337c-2.045-3.927-4.905-7.48-5.588-12.039Z" transform="translate(-28.029 -147.332)"/><path class="f" d="M-854.51,2325.809c3.406,5.192,4.262,11.254,5.831,17.074a1.037,1.037,0,0,1-.6,1.34c-.465.215-.859-.114-1.216-.389a.969.969,0,0,1-.363-.4c-1.743-5.745-4.763-11.186-4.181-17.486Z" transform="translate(-80.21 -123.663)"/><path class="g" d="M-854.449,2325.7l-.526.14C-854.863,2325.556-854.694,2325.488-854.449,2325.7Z" transform="translate(-80.272 -123.557)"/><path class="h" d="M-893.992,2113.239c2.4-4.576,6.727-6.482,11.254-8.12a20.6,20.6,0,0,1,11.671-.5c-3.06,2.252-6.245,4.2-10.215,4.3-.351.009-.837.03-1.027.248C-885.436,2112.765-890.34,2111.206-893.992,2113.239Z" transform="translate(-62.522 -22.767)"/><path class="i" d="M-875.3,2153.852a61.744,61.744,0,0,1,18.56-8.437c-.3.85-.535,1.726-.9,2.543C-860.468,2154.219-869.809,2157.327-875.3,2153.852Z" transform="translate(-71.026 -41.599)"/><path class="f" d="M-878.039,2152.6c5.49,3.476,14.831.368,17.657-5.894.369-.817.606-1.693.9-2.543a3.305,3.305,0,0,1,2.126-1.5c-.249,7.288-5.8,12.744-13.7,13.314-3.711.268-7.435.3-10.272-2.791C-880.318,2152.487-879.136,2152.781-878.039,2152.6Z" transform="translate(-68.286 -40.346)"/><path class="j" d="M-817.09,2091.532c-2.36,1.51-3.571,3.944-5.056,6.645A5.917,5.917,0,0,1-817.09,2091.532Z" transform="translate(-95.176 -17.087)"/><path class="k" d="M-931.538,2164.648l4.855-3.511C-927.028,2163.436-928.854,2164.762-931.538,2164.648Z" transform="translate(-45.442 -48.752)"/><path class="j" d="M-971.546,2160.446c-2.377,1.082-3.639-.053-4.92-1.108C-974.823,2158.951-973.481,2159.764-971.546,2160.446Z" transform="translate(-25.004 -47.888)"/><path class="k" d="M-807.855,2065.783c1.495,1.039,1.942,2.249,2.935,3.575C-807.328,2068.685-807.328,2068.685-807.855,2065.783Z" transform="translate(-101.707 -5.374)"/><path class="k" d="M-892.537,2089.209c-.952,1.559-2.374,2.284-4.655,2.615,1.39-1.748,3.049-2.08,4.409-2.865C-892.7,2089.043-892.62,2089.126-892.537,2089.209Z" transform="translate(-61.067 -15.917)"/><path class="j" d="M-962.058,2142.385c.379-2.023,1.14-3.009,2.726-3.658C-959.311,2140.533-960.258,2141.39-962.058,2142.385Z" transform="translate(-31.558 -38.557)"/><path class="k" d="M-869.531,2145.259a4.491,4.491,0,0,1-4.146-3.012A8.614,8.614,0,0,1-869.531,2145.259Z" transform="translate(-71.764 -40.158)"/><path class="k" d="M-889.1,2088.69c.111-.113.3-.337.322-.321.325.222.121.4-.077.57C-888.94,2088.858-889.022,2088.774-889.1,2088.69Z" transform="translate(-64.746 -15.648)"/><path class="k" d="M-775.083,2278.084c1.166-2.715,4.2-3.875,7.252-2.736A19.341,19.341,0,0,0-775.083,2278.084Z" transform="translate(-116.615 -100.51)"/><path class="k" d="M-888.906,2279.2c-1.552,1.371-3.174,1.992-5.336.608Z" transform="translate(-62.408 -102.46)"/><path class="k" d="M-907.968,2245.641a4.4,4.4,0,0,1,3.628-1.49C-905.4,2245.938-905.631,2246.034-907.968,2245.641Z" transform="translate(-56.164 -86.516)"/><path class="j" d="M-923.7,2255.178c-2.066-.557-2.851-1.651-3.473-3.572A6.636,6.636,0,0,1-923.7,2255.178Z" transform="translate(-47.426 -89.907)"/></g></svg>