<svg xmlns="http://www.w3.org/2000/svg" xmlns:xlink="http://www.w3.org/1999/xlink" width="414" height="360" viewBox="0 0 414 360"><defs><style>.a{fill:#fff;stroke:#707070;}.b{clip-path:url(#a);}.c{fill:#fda901;}.d{fill:#fda800;}.e{fill:#5a2b13;}.f{fill:#fca800;}.g{fill:#fda902;}.h{fill:#fca801;}.i{fill:#fca902;}.j{fill:#5b2c13;}.k{fill:#fba701;}.l{fill:#fba802;}.m{fill:#f9a601;}.n{fill:#f4eadb;}.o{fill:#fe8632;}.p{fill:#fea900;}.q{fill:#fe8732;}.r{fill:#fad17e;}.s{fill:#f9c45b;}.t{fill:#fea901;}.u{fill:#fea902;}.v{fill:#d72b0c;}.w{fill:#fe8835;}.x{fill:#f5ebdd;}.y{fill:#d51600;}.z{fill:#f5d1b5;}.aa{fill:#f7a066;}.ab{fill:#fe842d;}.ac{fill:#d51f09;}.ad{fill:#f7d595;}.ae{fill:#f7d18a;}.af{fill:#f4ebde;}.ag{fill:#fef5e5;}.ah{fill:#f5dbb7;}.ai{fill:#f8cf82;}.aj{fill:#faf0e1;}.ak{fill:#fe9718;}.al{fill:#f7d28c;}.am{fill:#f4ede4;}.an{fill:#f8cc75;}.ao{fill:#f9ca6e;}.ap{fill:#f8cf7f;}.aq{fill:#f9d184;}.ar{fill:#f9c766;}.as{fill:#db3f24;}.at{fill:#fbc356;}.au{fill:#f9c358;}.av{fill:#f8c96b;}.aw{fill:#f4eee4;}.ax{fill:#f9c663;}.ay{fill:#f4ede5;}.az{fill:#f4ece1;}.ba{fill:#f5a16d;}.bb{fill:#fac04f;}.bc{fill:#fdd070;}.bd{fill:#f9c664;}.be{fill:#fe0c00;}.bf{fill:#f5e3c4;}.bg{fill:#f2efed;}.bh{fill:#fea803;}.bi{fill:#fe9023;}.bj{fill:#fea802;}.bk{fill:#feaa01;}.bl{fill:#fe941d;}.bm{fill:#fe9122;}.bn{fill:#fe9121;}.bo{fill:#fe961b;}.bp{fill:#feb200;}.bq{fill:#fe882f;}.br{fill:#fea408;}.bs{fill:#fe951b;}.bt{fill:#fe9220;}.bu{fill:#f7d084;}.bv{fill:#fe9817;}.bw{fill:#d83210;}.bx{fill:#e27358;}.by{fill:#d7260c;}.bz{fill:#d62202;}.ca{fill:#e0694d;}.cb{fill:#e2745a;}.cc{fill:#e37e65;}.cd{fill:#efccbc;}.ce{fill:#d72c0f;}.cf{fill:#f3e7d9;}.cg{fill:#d72a0d;}.ch{fill:#d51a00;}.ci{fill:#d6250e;}.cj{fill:#e0664a;}.ck{fill:#df6145;}.cl{fill:#e69179;}.cm{fill:#f6ead8;}.cn{fill:#fdf6e6;}.co{fill:#fef8ef;}.cp{fill:#fdf5e6;}.cq{fill:#fdf5e5;}.cr{fill:#fef6e6;}.cs{fill:#fe931f;}.ct{fill:#d83312;}</style><clipPath id="a"><rect class="a" width="414" height="360" transform="translate(259 271)"/></clipPath></defs><g class="b" transform="translate(-259 -271)"><g transform="translate(-478.472 -4957.613)"><path class="c" d="M1185.835,5553.966a27.7,27.7,0,0,1,7.035,2.117,2.308,2.308,0,0,0,3.01-.494c5.536-5.014,11.473-9.469,18.416-12.427,1.451-.618,2.89-1.263,4.354-1.852a1.418,1.418,0,0,1,1.441.125,27.329,27.329,0,0,1,3.227,2.366c-1.578.707-3.154,1.42-4.734,2.122a63.2,63.2,0,0,0-17.31,10.808,29.834,29.834,0,0,0-8.1,11.3c-1.722-.69-3.289-1.7-4.972-2.466-.526-.24-.323-.542-.139-.871.154-.276.447-.549-.1-.771-2.915-1.194-5.574-3-8.713-3.658-.208-.043-.417-.085-.625-.127a11.555,11.555,0,0,0-.1-1.269c-.166-.913.216-1.129,1.087-1.1a26.769,26.769,0,0,1,10.581,2.735c.376.178.81.509,1.058-.1.222-.547-.38-.543-.632-.665a26.629,26.629,0,0,0-11.3-2.79c-.7-.01-1.022-.173-.95-.9a2.178,2.178,0,0,0-.006-.636c-.161-.791.217-1.073.951-1.175a53.461,53.461,0,0,1,6.082-.416Z" transform="translate(-318.049 -151.888)"/><path class="d" d="M1138.67,5533.236c-.023,2.119.24,4.219.406,6.326l-.207.018c-1.339.031-2.665-.151-4-.214-.589-.027-.824-.2-.915-.826-.751-5.23-1.378-10.471-1.7-15.747a147.224,147.224,0,0,1,.193-19.661c.244-3.359.553-6.713.832-10.069.792.185,1.588.357,2.376.559a1.133,1.133,0,0,1,.9,1.184c.1,1.416.277,2.826.424,4.24-.024.18-.054.359-.072.54-.3,3,.1,6.006.056,9.011a227.5,227.5,0,0,0,1.283,22.813A2.963,2.963,0,0,0,1138.67,5533.236Z" transform="translate(-277.441 -109.72)"/><path class="c" d="M816.276,5390.973c.31-1.484.641-2.965.92-4.455a1.41,1.41,0,0,1,.737-.961,44.825,44.825,0,0,1,6.925-3.433c8.061-3.537,16.253-6.747,24.6-9.543,5.119-1.715,10.319-3.18,15.522-4.623.746-.206,1.008-.01.959.745-.051.786-.053,1.575-.077,2.362a2.891,2.891,0,0,0-1.133.3c-13.689,4.616-27.069,10.014-40.291,15.822C821.688,5388.394,819.066,5389.863,816.276,5390.973Z" transform="translate(-0.702 0)"/><path class="e" d="M912.557,5491.871c-.28,3.356-.589,6.71-.832,10.069a147.2,147.2,0,0,0-.193,19.661c.323,5.277.95,10.518,1.7,15.748.09.627.326.8.914.826,1.333.063,2.66.245,4,.213l.251.159-.016-.017a1.579,1.579,0,0,1-.064.617c-.867,1.469-1.792,2.861-3.836,2.657a14.747,14.747,0,0,0-1.547.011c-.511,0-1.022,0-1.534,0a1.165,1.165,0,0,0,.56.5c2.89,1.416,5.965,2.392,8.884,3.737a1.3,1.3,0,0,0,1.279-.168,35.263,35.263,0,0,1,5.264-2.469c.264.243.161.528.1.811-1.641.776-3.276,1.565-4.928,2.318a.957.957,0,0,0-.614.895,36.083,36.083,0,0,0-.09,4.54.777.777,0,0,1-1.118-.094c.054-.91.133-1.818.159-2.728.072-2.5.044-2.451-2.331-3.316a66.975,66.975,0,0,1-11.522-5.071c-3.105-1.847-6.353-3.44-9.438-5.311-3.849-2.333-7.26-5.285-10.844-7.99a38.674,38.674,0,0,0-6.182-4.16c.027-.344-.114-.784.463-.818,1.1.75,2.231,1.459,3.294,2.26,2.74,2.064,5.482,4.127,8.163,6.267,4.516,3.6,9.641,6.18,14.721,8.836l.112.1,0-.207a63.321,63.321,0,0,1-1.813-7.434l-.471-3.388q-.128-1.455-.255-2.913a11.212,11.212,0,0,0-1.3,3.59,1.12,1.12,0,0,1-1.132.081c.354-1.032.7-2.066,1.065-3.095.129-.361.121-.6-.283-.8-1.794-.876-3.438-2.061-5.392-2.6l-.069-.23a1.779,1.779,0,0,1,.593-.675,41.254,41.254,0,0,1,5.759-3.985c.3-.184.7-.3.734-.741.09-1.064.173-2.13.266-3.275-.231.1-.345.135-.449.191-.268.143-.534.288-.8.442a53.737,53.737,0,0,0-10.188,8.063,3.161,3.161,0,0,0-1.233,2.66,10.432,10.432,0,0,1-.095,1.726c-.042.513-.3.792-.844.669-.74-.167-1.481-.329-2.212-.528a1.089,1.089,0,0,1-.833-.971,22.424,22.424,0,0,1-.313-3.531l.216-.174a7.1,7.1,0,0,1,2.648.593,1.184,1.184,0,0,0,1.447-.3,63.054,63.054,0,0,1,12.323-9.745c.258-.15.513-.281.535-.662.109-1.912.513-3.785.8-5.673l.053-.146-.2-.009a32.284,32.284,0,0,0-8.332,4.357c-1.546,1.063-2.925,2.356-4.553,3.3l-.335-.086c.162-.181.313-.372.487-.54a42.479,42.479,0,0,1,11.892-7.658c.357-.167.737-.295,1.073-.5a1.175,1.175,0,0,0,.5-1.282c-.126-.533-.592,0-.91-.065a1.656,1.656,0,0,0-.623.1,73.207,73.207,0,0,0-18.529,6.945,25.933,25.933,0,0,0-5.846,3.833c-.281-.088-.625-.12-.495-.567a9.743,9.743,0,0,1,1.694-1.368,64.442,64.442,0,0,1,8.074-4.366,66.482,66.482,0,0,1,16.052-5.439,1.316,1.316,0,0,0,1.187-1.136,25.184,25.184,0,0,1,1.163-3.535l.385-.3c.209.472-.047.9-.171,1.317a80.194,80.194,0,0,0-3.151,20.738,63.9,63.9,0,0,0,1.154,12.591,52.094,52.094,0,0,0,1.642,6.9c.194.6.428.69.966.39.8-.446,1.5-1.032,2.285-1.494a1.664,1.664,0,0,0,.837-1.886c-.523-4.524-1.119-9.04-1.487-13.582a142.617,142.617,0,0,1,.145-21.671c.233-3.271.527-6.537.794-9.806C911.92,5491.617,912.2,5491.618,912.557,5491.871Zm-7.88,27.079a21.226,21.226,0,0,0-5.711,3.792c1.625.832,3.013,1.764,4.568,2.374.659.258,1.124,0,1.134-.666C904.694,5522.669,904.677,5520.89,904.677,5518.95ZM909.955,5541c1.743,0,3.352-.061,4.953.022a2.328,2.328,0,0,0,2.115-1.289c.356-.491.176-.615-.331-.626a21.519,21.519,0,0,1-3.363-.185.663.663,0,0,0-.44.039C911.923,5539.617,910.969,5540.292,909.955,5541Zm-18.265-15.575c.2-.776-.231-1.188-1.125-1.412-1.813-.453-1.782-.494-1.626,1.347.062.739.142,1.341,1.057,1.5C891.722,5527.159,891.526,5527.674,891.69,5525.426Z" transform="translate(-56.718 -108.528)"/><path class="f" d="M1090.96,5494.922c-.266,3.27-.561,6.535-.794,9.806a142.617,142.617,0,0,0-.145,21.671c.368,4.541.964,9.057,1.487,13.581a1.663,1.663,0,0,1-.837,1.886c-.78.462-1.485,1.048-2.285,1.495-.538.3-.772.215-.966-.391a52.023,52.023,0,0,1-1.642-6.9,63.906,63.906,0,0,1-1.154-12.591,80.191,80.191,0,0,1,3.151-20.738c.123-.42.38-.845.171-1.317A23.121,23.121,0,0,1,1090.96,5494.922Z" transform="translate(-235.896 -111.35)"/><path class="g" d="M881.385,5747.623a38.7,38.7,0,0,1,6.182,4.161c3.584,2.705,6.995,5.657,10.844,7.99,3.086,1.87,6.333,3.464,9.438,5.311a67.09,67.09,0,0,0,11.522,5.071c2.376.864,2.4.814,2.331,3.316-.026.91-.1,1.818-.159,2.728a42.966,42.966,0,0,1-4.666-2.012c-5.228-2.082-10.1-4.878-15.088-7.454a69.527,69.527,0,0,1-8.2-5.567,141.167,141.167,0,0,1-11.533-9.187,2.732,2.732,0,0,1-.942-2.3A5.317,5.317,0,0,1,881.385,5747.623Z" transform="translate(-57.53 -332.839)"/><path class="g" d="M867.926,5400.549a5.619,5.619,0,0,1-2.8,3.606c-4.435,2.337-9,4.39-13.549,6.488a208.408,208.408,0,0,1-27.55,10.2,17.157,17.157,0,0,1-3.3.653,1.813,1.813,0,0,1-2.022-1.008c3.115-1.645,6.308-3.129,9.519-4.575,10.6-4.774,21.416-9.025,32.365-12.935A62.009,62.009,0,0,1,867.926,5400.549Z" transform="translate(-2.832 -28.633)"/><path class="h" d="M913.253,5700.126c-5.08-2.656-10.2-5.23-14.721-8.836-2.68-2.14-5.423-4.2-8.163-6.268-1.062-.8-2.193-1.508-3.293-2.259a21.116,21.116,0,0,1,4.469-.552c.921-.011,1.7.719,2.558,1.066a22.434,22.434,0,0,0,.313,3.531,1.09,1.09,0,0,0,.833.971c.731.2,1.472.361,2.212.528.546.122.8-.156.844-.67a10.423,10.423,0,0,0,.095-1.726,3.164,3.164,0,0,1,1.233-2.661,53.734,53.734,0,0,1,10.188-8.062c.262-.153.528-.3.8-.442.1-.056.218-.094.449-.19-.092,1.145-.176,2.21-.266,3.274-.037.444-.437.557-.734.74a41.285,41.285,0,0,0-5.759,3.984,1.791,1.791,0,0,0-.593.676c-.582.385-1.187.738-1.743,1.157-2.436,1.841-2.392,2.1.219,3.727,2.954,1.847,6.262,2.933,9.357,4.472a63.294,63.294,0,0,0,1.813,7.435C913.323,5700.056,913.288,5700.09,913.253,5700.126Z" transform="translate(-62.758 -268.797)"/><path class="i" d="M1335.089,5567.943a.715.715,0,0,1,.061.17c.266,3.01.274,3.04-2.613,3.84-4.954,1.374-9.257,4.074-13.538,6.757a31.706,31.706,0,0,0-6.295,5.216c-.439.469-.462.755.027,1.244a59.853,59.853,0,0,1,5.649,5.923,9.526,9.526,0,0,0-.917.879.953.953,0,0,1-1.571.179c-1.9-1.462-3.835-2.867-5.772-4.276-.221-.161-.476-.6-.825-.147-.334.428-.035.667.3.859,1.745,1,3.2,2.413,4.917,3.43a6.769,6.769,0,0,1,3.356,4.167c.008.029.014.06.021.089a61.591,61.591,0,0,1-8.578-3.925,5.876,5.876,0,0,0-4.108-.871c.392-.819.743-1.663,1.184-2.455a36.754,36.754,0,0,1,11.175-11.913A82,82,0,0,1,1335.089,5567.943Z" transform="translate(-429.24 -175.352)"/><path class="j" d="M1172.6,5575.688a2.964,2.964,0,0,1-.426-1.829,227.378,227.378,0,0,1-1.283-22.812c.042-3.005-.354-6.006-.056-9.011.018-.181.048-.36.072-.541l.38.047a31.146,31.146,0,0,1,.1,3.913c.012.569.174.677.7.464.9-.361,1.827-.653,2.742-.977a69.4,69.4,0,0,1,9.369-2.245c.77-.093,1.538-.229,2.31-.263.445-.019,1-.06,1.12.608a59.8,59.8,0,0,0-14.938,3.532c-.843.319-1.356.654-1.16,1.669a6.7,6.7,0,0,1,.022,1.819c-.069.8.238.752.8.471a34.79,34.79,0,0,1,4.561-1.827,101.155,101.155,0,0,1,11.443-3.333q-.023.383-.046.766a95.64,95.64,0,0,0-14.579,4.572,13.21,13.21,0,0,0-1.627.813c-.818.474-.646,1.3-.481,1.966.177.711.843.249,1.24.188a18.212,18.212,0,0,1,5.173,0c.278.037.648-.019.688.426a53.576,53.576,0,0,0-6.082.415c-.733.1-1.112.384-.95,1.174a2.169,2.169,0,0,1,.005.636c-.072.722.254.885.95.895a26.636,26.636,0,0,1,11.3,2.79c.252.122.854.118.632.665-.248.61-.682.28-1.058.1a26.761,26.761,0,0,0-10.581-2.736c-.871-.03-1.253.186-1.086,1.1a11.7,11.7,0,0,1,.1,1.269q0,.231.009.464c.012.475-.152.992.218,1.394,2.129,2.314,4.092,4.8,7,6.262a19.532,19.532,0,0,1,5.843,4.1,1.014,1.014,0,0,0,1,.257c.869-.122,1.739-.236,2.608-.353a1.053,1.053,0,0,1,.064.87c-.625.073-1.248.168-1.875.213-.8.058-1.258.359-1.227,1.267a12.514,12.514,0,0,1-.2,1.873c-.249.146-.474.027-.7-.066.069-.817.128-1.634.211-2.45a1.123,1.123,0,0,0-.313-.991,12.817,12.817,0,0,0-3.643-2.852,21.833,21.833,0,0,1-7.677-5.882,4.077,4.077,0,0,0-1.192-1.1c.069,1.146.187,2.146.173,3.144a2.119,2.119,0,0,0,1.011,1.887q4.053,2.949,8.052,5.973a4.331,4.331,0,0,1,1.608,1.567l-.3.274a23.778,23.778,0,0,1-3.007-2.2c-2.3-1.779-4.631-3.514-7.058-5.161-.2.5.116.737.353,1a63.39,63.39,0,0,1,5.521,6.652c1.144,1.657,2.431,2.681,4.471,2.625a.573.573,0,0,1-.172.666c-.688-.112-1.381-.2-2.063-.342-.53-.111-.779.054-.878.593-.153.833-.367,1.656-.555,2.483-.518.2-.526-.3-.729-.535a19.5,19.5,0,0,1,.431-2.131,1.933,1.933,0,0,0-.342-1.858c-1.181-1.651-2.4-3.275-3.7-4.827-.666-.791-1.381-1.539-2.074-2.305a6.3,6.3,0,0,0-.054,1.651c.027,1.049.4,2.093.053,3.148Z" transform="translate(-311.367 -152.171)"/><path class="d" d="M963.469,5614.838c-.29,1.888-.693,3.761-.8,5.673-.022.381-.277.511-.535.662a63.016,63.016,0,0,0-12.323,9.745,1.184,1.184,0,0,1-1.447.3,7.1,7.1,0,0,0-2.648-.594c.4-3.03,2.332-5.221,4.119-7.49.2-.26.4-.527.6-.791,1.629-.949,3.008-2.24,4.553-3.3a32.284,32.284,0,0,1,8.332-4.357Z" transform="translate(-114.152 -216.319)"/><path class="h" d="M908.435,5549.949a25.207,25.207,0,0,0-1.163,3.535,1.316,1.316,0,0,1-1.187,1.136,66.442,66.442,0,0,0-16.052,5.439,64.441,64.441,0,0,0-8.074,4.366,9.7,9.7,0,0,0-1.694,1.368,12.645,12.645,0,0,1,.259-2.985,2.368,2.368,0,0,1,.931-1.5,34.536,34.536,0,0,1,7.256-4.16,131.1,131.1,0,0,1,17.158-6.6A11.183,11.183,0,0,1,908.435,5549.949Z" transform="translate(-56.769 -159.58)"/><path class="h" d="M884.42,5604.361a25.926,25.926,0,0,1,5.846-3.833,73.209,73.209,0,0,1,18.529-6.946,1.665,1.665,0,0,1,.623-.1c.318.065.785-.468.91.065a1.175,1.175,0,0,1-.5,1.282c-.336.2-.716.328-1.073.5a42.477,42.477,0,0,0-11.892,7.658c-.173.168-.325.359-.487.54a35.836,35.836,0,0,0-9.824,1.187A4.143,4.143,0,0,1,884.42,5604.361Z" transform="translate(-60.43 -197.582)"/><path class="h" d="M1184.211,5587.071c-.04-.445-.41-.389-.688-.425a18.2,18.2,0,0,0-5.173-.005c-.4.061-1.063.522-1.239-.188-.166-.666-.337-1.493.481-1.965a12.932,12.932,0,0,1,1.627-.812,95.476,95.476,0,0,1,14.579-4.573,29.563,29.563,0,0,1-1.288,5.277c-.1.4-.439.442-.765.532-2.159.595-4.319,1.189-6.467,1.82-.228.066-.756-.1-.644.48Z" transform="translate(-316.848 -185.132)"/><path class="h" d="M1193.841,5556.357a101.246,101.246,0,0,0-11.443,3.333,34.66,34.66,0,0,0-4.561,1.828c-.566.281-.873.329-.8-.472a6.7,6.7,0,0,0-.022-1.819c-.2-1.016.317-1.35,1.16-1.669a59.8,59.8,0,0,1,14.938-3.532A2.825,2.825,0,0,1,1193.841,5556.357Z" transform="translate(-316.845 -163.154)"/><path class="h" d="M1148.894,5875.718a35.265,35.265,0,0,0-5.264,2.469,1.294,1.294,0,0,1-1.279.168c-2.919-1.345-5.994-2.321-8.884-3.737a1.161,1.161,0,0,1-.56-.505c.511,0,1.022,0,1.534,0a14.746,14.746,0,0,1,1.547-.011c2.044.2,2.969-1.188,3.835-2.657a1.577,1.577,0,0,0,.064-.617,6.794,6.794,0,0,1,2.056,1.109C1144.278,5873.164,1146.58,5874.453,1148.894,5875.718Z" transform="translate(-278.226 -440.825)"/><path class="k" d="M1192.489,5731.616a4.328,4.328,0,0,0-1.608-1.568q-4-3.021-8.052-5.973a2.117,2.117,0,0,1-1.011-1.887c.014-1-.1-2-.173-3.144a4.086,4.086,0,0,1,1.192,1.1,21.835,21.835,0,0,0,7.677,5.882,12.834,12.834,0,0,1,3.643,2.851,1.123,1.123,0,0,1,.313.991c-.083.816-.142,1.634-.211,2.451A4.949,4.949,0,0,1,1192.489,5731.616Z" transform="translate(-320.943 -307.79)"/><path class="j" d="M865.094,5394.491a62.105,62.105,0,0,0-7.337,2.432c-10.949,3.909-21.762,8.16-32.365,12.935-3.211,1.445-6.4,2.93-9.519,4.575-.253-.244-.561-.468-.3-.884,2.79-1.11,5.411-2.58,8.16-3.788,13.222-5.809,26.6-11.206,40.291-15.822a2.89,2.89,0,0,1,1.133-.3A1.158,1.158,0,0,1,865.094,5394.491Z" transform="translate(0 -22.576)"/><path class="l" d="M1197.242,5710.129c-.869.117-1.74.23-2.608.353a1.013,1.013,0,0,1-1-.258,19.54,19.54,0,0,0-5.843-4.1c-2.906-1.458-4.869-3.949-7-6.262-.37-.4-.206-.919-.218-1.394,5.136,3.614,10.748,6.521,15.614,10.534A4.35,4.35,0,0,1,1197.242,5710.129Z" transform="translate(-319.984 -289.758)"/><path class="h" d="M1188.2,5542.4a69.329,69.329,0,0,0-9.369,2.245c-.915.324-1.842.617-2.742.977-.531.212-.693.105-.7-.464a31.174,31.174,0,0,0-.1-3.913,82.627,82.627,0,0,1,12.067.265C1187.934,5541.588,1188.267,5541.77,1188.2,5542.4Z" transform="translate(-315.369 -151.874)"/><path class="j" d="M1329.169,5563.145a82,82,0,0,0-17.527,9.167,36.765,36.765,0,0,0-11.175,11.913c-.441.793-.791,1.636-1.184,2.455a.781.781,0,0,1-.834.019,29.837,29.837,0,0,1,8.1-11.3,63.189,63.189,0,0,1,17.31-10.808c1.581-.7,3.156-1.414,4.734-2.122C1328.895,5562.6,1329.219,5562.712,1329.169,5563.145Z" transform="translate(-423.32 -170.554)"/><path class="g" d="M1217.312,5924.737a36.083,36.083,0,0,1,.09-4.54.958.958,0,0,1,.614-.895c1.651-.753,3.286-1.542,4.928-2.317.034,2.016-.826,3.823-1.346,5.709-.089.322-.414.438-.678.568A20.985,20.985,0,0,1,1217.312,5924.737Z" transform="translate(-352.178 -481.282)"/><path class="k" d="M1195.407,5773.731c-2.039.056-3.326-.968-4.47-2.625a63.3,63.3,0,0,0-5.521-6.652c-.237-.259-.555-.5-.353-1,2.427,1.648,4.758,3.383,7.058,5.161a23.737,23.737,0,0,0,3.007,2.2A11.78,11.78,0,0,1,1195.407,5773.731Z" transform="translate(-323.882 -346.717)"/><path class="l" d="M1187.037,5784.593c.35-1.056-.026-2.1-.053-3.148a6.309,6.309,0,0,1,.054-1.652c.693.767,1.408,1.516,2.074,2.306,1.307,1.551,2.522,3.176,3.7,4.826a1.935,1.935,0,0,1,.342,1.859,19.474,19.474,0,0,0-.431,2.13c-1.594-1.772-2.961-3.745-4.716-5.377C1187.678,5785.229,1187.361,5784.907,1187.037,5784.593Z" transform="translate(-325.597 -361.034)"/><path class="j" d="M1345.891,5735.275c-.007-.029-.013-.06-.02-.088a6.767,6.767,0,0,0-3.356-4.167c-1.715-1.017-3.172-2.435-4.917-3.43-.336-.192-.636-.432-.3-.86.349-.448.6-.013.826.148,1.937,1.408,3.877,2.813,5.772,4.276a.954.954,0,0,0,1.571-.179,9.34,9.34,0,0,1,.917-.88.943.943,0,0,1,.369.62,5.478,5.478,0,0,1-.6.681,1.341,1.341,0,0,0-.277,1.969,4.339,4.339,0,0,1,.652,1.871C1346.338,5735.582,1346.115,5735.44,1345.891,5735.275Z" transform="translate(-457.242 -314.354)"/><path class="l" d="M1289.435,5803.25a12.509,12.509,0,0,0,.2-1.874c-.031-.907.424-1.209,1.227-1.267.627-.045,1.25-.141,1.875-.214-.021.3-.017.605-.066.9C1292.218,5803.588,1292.513,5803.287,1289.435,5803.25Z" transform="translate(-415.42 -378.655)"/><path class="l" d="M1239.572,5852.109c.188-.827.4-1.649.555-2.482.1-.54.348-.7.878-.593.682.143,1.375.23,2.063.342a4.93,4.93,0,0,0-.245.574A2.875,2.875,0,0,1,1239.572,5852.109Z" transform="translate(-371.715 -421.695)"/><path class="l" d="M1406.3,5764.909a4.351,4.351,0,0,0-.652-1.872,1.34,1.34,0,0,1,.277-1.968,5.438,5.438,0,0,0,.6-.681q.164,1.52.328,3.039A2.568,2.568,0,0,1,1406.3,5764.909Z" transform="translate(-517.007 -344.027)"/><path class="h" d="M1187.773,5869.711l-.251-.158.207-.018Z" transform="translate(-326.094 -439.694)"/><path class="i" d="M1012.37,5746.657c1.954.545,3.6,1.729,5.392,2.6.4.2.412.437.283.8-.366,1.028-.711,2.063-1.065,3.094-2.238-.46-3.928-1.952-5.807-3.089-.323-.2-.2-.456-.1-.715A18.061,18.061,0,0,1,1012.37,5746.657Z" transform="translate(-171.344 -331.992)"/><path class="m" d="M1037.955,5712.3c0,1.94.017,3.721-.009,5.5-.01.665-.475.925-1.134.666-1.555-.609-2.943-1.542-4.568-2.373A21.253,21.253,0,0,1,1037.955,5712.3Z" transform="translate(-189.995 -301.88)"/><path class="m" d="M1121.211,5875.958c1.014-.709,1.968-1.384,2.935-2.039a.654.654,0,0,1,.44-.039,21.521,21.521,0,0,0,3.363.184c.506.012.687.136.331.626a2.328,2.328,0,0,1-2.115,1.289C1124.563,5875.9,1122.954,5875.958,1121.211,5875.958Z" transform="translate(-267.973 -443.484)"/><path class="m" d="M953.337,5752.86c-.165,2.248.032,1.733-1.694,1.434-.915-.158-.995-.761-1.057-1.5-.156-1.841-.187-1.8,1.626-1.347C953.106,5751.671,953.537,5752.083,953.337,5752.86Z" transform="translate(-118.364 -335.962)"/><path class="m" d="M1070.378,5772.446a4.041,4.041,0,0,1-1.551.678,11.21,11.21,0,0,1,1.3-3.591Z" transform="translate(-222.06 -352.043)"/><path class="d" d="M1088.234,5614.684l.2.009-.053.146Z" transform="translate(-239.07 -216.319)"/><path class="h" d="M1099.12,5880.729l.005.207-.112-.1C1099.047,5880.8,1099.083,5880.762,1099.12,5880.729Z" transform="translate(-248.517 -449.504)"/></g><g transform="translate(1890.323 -4526.912) rotate(15)"><g transform="translate(-230.893 5092.66)"><path class="n" d="M-60.339,5690.963h1.286c2.183-2.152,1.739-4.916,1.866-7.561.314-6.549-.717-13.147.761-19.638a5.971,5.971,0,0,0,.716-1.78c.172-2.617-.713-5.245,0-7.876a6.2,6.2,0,0,0-.008-1.721,6.284,6.284,0,0,0-.61-1.58,7.585,7.585,0,0,1,.041-7.747,8.437,8.437,0,0,0,.83-1.489,27.309,27.309,0,0,0,1.09-5.935,5.454,5.454,0,0,0-.312-1.7c-1.659-2.888-1.975-5.8-.117-8.736a8.063,8.063,0,0,0,.807-1.6,12.5,12.5,0,0,0,.191-6.257c-.661-2.448-1.61-4.906.3-7.266a8.067,8.067,0,0,0,.809-1.625,12.266,12.266,0,0,0,.076-6.5c-.752-2.064-1.254-4.275-3.3-5.612-3.553-1.105-5.76,1.569-8.46,2.875-.768.451-1.5.952-2.245,1.444-3.96,2.583-8.436,3.827-13.023,4.777a19.836,19.836,0,0,1-4.453.666,17.67,17.67,0,0,0-5.652.5,4.758,4.758,0,0,0-1.544.952,1.134,1.134,0,0,0-.134,1.14c.756,1.41,2.159.951,3.356,1.08-1.425.053-2.863.157-3.985-.976a3.2,3.2,0,0,0-2.417-.334,4.232,4.232,0,0,0-1.352.909c-4.888,1.16-9.792.551-14.684.2a7.436,7.436,0,0,0-1.679-.311c-1.343-.074-2.615.851-4.494.293-.366.008.648-1.187.521-.363-.082.535.305.673.852.526a1.528,1.528,0,0,0,1.28-1.079c-1.052-2.694-3.8-2.542-5.934-3.432a24.9,24.9,0,0,1-8.179-3.433c-2.574-1.1-4.57-3.7-7.871-2.919-1.625,1.11-1.882,2.793-2,4.538a69.369,69.369,0,0,0,.282,10.616c1.477,3.738.786,7.648.935,11.491a61.565,61.565,0,0,0,.342,8.5c1.226,2.994.932,6.14.948,9.253a72.1,72.1,0,0,0,.332,9.377,17.586,17.586,0,0,1,.967,6.98,36.978,36.978,0,0,0,.436,7.086,17.234,17.234,0,0,1,.849,6.932c.005,2.068,0,4.134,0,6.2-.043,4,.372,7.878,3.136,11.121h2.572c5.247-2.6,11.086-4.338,14.5-9.57-1.337-2.143,1.275-2.023,1.868-3.071.321.735-.063,1.817,1.12,2.148,3.34.982,6.294-.6,9.317-1.391,12.013-3.159,22.784-1.163,31.918,7.323A23.512,23.512,0,0,0-60.339,5690.963Z" transform="translate(154.229 -5508.497)"/><path class="o" d="M-230.893,5272.789c3.314,5.375,4.164,11.651,6.633,17.335,1.108,2.236-.365,5.542,2.965,6.858a3.65,3.65,0,0,0,2.306-2.808c.636-2.251,1.646-3.847,4.454-3.309,2.918.56,5.347,1.566,5.792,4.916s.188,6.7.3,10.044c.156,4.829.315,9.658,3.093,13.93a14.057,14.057,0,0,0,7.858,3.4c1.57-4.35-1.046-8.088-1.919-12.063-.627-2.853-1.378-5.683-1.962-8.55-.648-3.185.371-5.22,3.731-6.12,3.137-.84,4.857.5,5.989,3.154a175.015,175.015,0,0,1,5.86,17.223c1.086,3.52,1.521,7.483,5.208,9.721a6.466,6.466,0,0,0,4.873-.317c2.081-2.433.785-4.934.173-7.421-.981-2.4-2.975-4.32-3.437-6.967-.428-2.062-1.351-4.054-.93-6.244a4.847,4.847,0,0,0-.349-1.583,19.093,19.093,0,0,1-1.931-3.64c-1.982-3.571-2.3-8.043-6.016-10.671-1.8-1.357-4.847-.156-6.024-2.819-2.187-8.687-5.959-16.854-8.43-25.447-2.271-7.9-9.231-8.065-15.853-8.575-5.225,3.077-7.663,8.827-12.38,12.4Z" transform="translate(230.893 -5224.97)"/><path class="o" d="M271.884,5204.577c2.235-3.161.343-8.4,5.344-10.166v-10.067c-1.548-1.438-2.719-3.611-5.478-2.7-3.621,3.305-4.231,8.006-5.85,12.231-1.554,4.057-2.483,8.364-5.931,13.258.032-3.388,1.126-5.247,1.572-7.2.535-2.341,1.966-4.853-1.053-6.669-.949-.52-2.056-.823-2.657-1.835-.97-2.586.569-4.844,1.048-7.209.667-3.287,1.592-6.759.006-9.734-2.53-4.747-1.33-8.72,1.353-12.746a6.606,6.606,0,0,0,.426-1.929c-.45-4.683-2.98-6.9-7.847-6.347-5.293,4.344-4.881,10.917-6.775,16.594a9.227,9.227,0,0,0,.207,2.862c1.049,3.21,3.579,5.843,2.915,9.763-.672,3.973-2.157,6.486-6.563,6.583a6.85,6.85,0,0,0-1.727.816c-1.863,1.884-3.614,3.813-2.768,6.752a4.707,4.707,0,0,0,1.307,1.306c2.786,1.445,5.884,2.081,8.825,3.145,3.418,1.236,4.47,2.94,1.39,5.694-1.911,1.709-3.558,3.562-2.424,6.405a5.1,5.1,0,0,0,1.381,1.212c4.551,2.073,9.843,1.687,14.284,4.133,3.8-.375,4.352-3.626,5.44-6.192C269.448,5209.859,270.1,5206.983,271.884,5204.577Z" transform="translate(-156.328 -5142.817)"/><path class="p" d="M93.543,5095.382c-2.3-.159-.55,2.531-2.659,3.049v-5.771H79.308a13.354,13.354,0,0,0-1.838,2.4c-3.038,10.185-.854,18.524,6.141,23.491,3.849-.713,4.007-4.542,6.017-6.8a3.073,3.073,0,0,1,2.963-.479c3.179,1.1,6.454,2.8,8.715-1.485a9.316,9.316,0,0,0-2.591-12.24A11.624,11.624,0,0,0,93.543,5095.382Z" transform="translate(-22.716 -5092.66)"/><path class="q" d="M51.848,5095.193q.083-1.265.166-2.533H45.583c.858,4.708-1.78,9.081-1.382,13.744a3.573,3.573,0,0,0-.871,3.988,2.675,2.675,0,0,0,3.546,1.549c3.326-2.548,2-6.318,2.5-9.567C49.769,5099.792,49.161,5096.986,51.848,5095.193Z" transform="translate(4.578 -5092.66)"/><path class="r" d="M318.511,5992.029c-.842-4.543,3.694-8.992.249-13.581a1.688,1.688,0,0,0-.1-2.516c-2.9.3-2.391,2.519-2.408,4.3-.076,8.164-.073,16.329-.1,24.493h1.286l.073-6.166C318.784,5996.52,317.416,5994.094,318.511,5992.029Z" transform="translate(-220.973 -5822.257)"/><path class="s" d="M-111.42,6076.861c1.567,2.786,1.252,5.793,1.079,8.784h2.572l-1.416-11.292a1.037,1.037,0,0,0-1.32-.35C-111.16,6074.848-110.794,6076.006-111.42,6076.861Z" transform="translate(132.206 -5903.178)"/><path class="q" d="M136.714,5100.573c2.052,1.764,4.191,3.442,6.138,5.312,3.208,3.081.9,6.531-.256,9.279-1.384,3.3-3.916.3-5.868-.287-1.9-.574-3.827-2.541-5.247.59a1.122,1.122,0,0,0-.435.992c.047.371.117.556.208.556a7.009,7.009,0,0,0,2.4,1.992c6.532,3.869,6.825,5.668,1.982,12.05-1.444.38-2.969.344-4.391.84a4.553,4.553,0,0,0-2.8,2.46,4.862,4.862,0,0,0,1.069,3.663c4.91,5.379,7.852,11.255,5.561,18.751a8.393,8.393,0,0,0,.968,6.068c3.015,7.836,2.091,16.025,2.366,24.113.11,3.223-.811,6.771,2.27,9.335a27.149,27.149,0,0,0,14.008-5.244c-.669-2.709.421-5.326.449-8.007.1-4.4-.151-8.8.113-13.177.288-4.779-1.44-8.121-6.1-9.839a17.555,17.555,0,0,1-1.6-.933c-2.653-3.391-1.329-7.08-.748-10.668.536-3.314,1-6.573-.83-9.665-1.037-1.751-2.845-3.424-1.383-5.622,1.67-2.511,4.118-1.311,6.344-.893.623.118,1.244.242,1.871.341a4.463,4.463,0,0,0,1.749-.271c1.746-.936,1.548-3.018,2.658-4.331q-.01-1.233-.021-2.462c-5.138-2.427-7.287-6.164-5.535-11.741a3.452,3.452,0,0,0-.795-3.433c.36-.728,1.175-1.971,1.014-2.107-3.548-2.99-6.221-7.021-10.559-9.032C139.722,5098.46,138.051,5099.443,136.714,5100.573Z" transform="translate(-65.888 -5097.852)"/><path class="p" d="M-53.211,5518.883c-3.853-9.088-5.667-18.833-9.543-27.95-1.662-3.909-3.308-4.686-7.1-3.212-3.51,1.365-7.737,1.547-6.264,7.187,1.9,7.282,3.433,14.656,6.22,21.691l6.712,2.376c.79.86,1.967.673,2.941,1.038C-57.8,5520.21-55.238,5521.146-53.211,5518.883Z" transform="translate(103.293 -5418.412)"/><path class="t" d="M55.4,5471.559l1.388,7.3c1.164,1.381,2.478,1.2,3.856.354l2.408-.377a2.24,2.24,0,0,0,1.578-.512,3.109,3.109,0,0,0,1.076-.347,8.334,8.334,0,0,0,.913-5.484c-1.131-9.563-2.718-19.081-2.812-28.743a6.333,6.333,0,0,0-1.218-3.533c-3.32-2.785-6.563-1.409-9.806.172-4.637,3.6-.954,8.308-1.726,12.427C52.556,5459.054,52.25,5465.69,55.4,5471.559Z" transform="translate(-1.456 -5378.429)"/><path class="q" d="M42.127,5736.079c-8.321-8.976-25.137-10.247-34.411-2.7-2.149,1.749-3.4,3.626-2.674,6.411a6.9,6.9,0,0,0,5.215,1.878c8.488.063,16.983.248,25.462-.1C39.031,5741.437,42.92,5741.159,42.127,5736.079Z" transform="translate(36.179 -5617.827)"/><path class="u" d="M-161.89,5486.692c-.4-8.322-.689-16.65-1.228-24.963-.29-4.478-4.918-7.226-11.133-6.736-4.673.368-2.219,4.086-2.923,6.324-.245.778-.579,1.531-.872,2.295-1.121,5.548,2.106,9.731,4.62,14.14,1.38,1.982,2.687,4.048,5.233,4.821Z" transform="translate(187.43 -5391.907)"/><path class="q" d="M115.753,5441.967a164.169,164.169,0,0,0,3.921,37.84l6.552-.39c1.88-1.913,1.445-4.237,1.064-6.466-1.5-8.8-1.729-17.718-2.712-26.569a6.792,6.792,0,0,0-5.918-5.547A3.368,3.368,0,0,0,115.753,5441.967Z" transform="translate(-55.421 -5380.256)"/><path class="u" d="M294.555,5503.232c-.69-3.662-3.974-3.25-6.513-3.854-2.474-.588-5.023-.876-7.539-1.3-2.756,2.3-3.124,5.437-3.189,8.677a10.853,10.853,0,0,1-.543,3.459,37.129,37.129,0,0,0-.611,4.181c1.585,1.359-2.3,4.56,1.784,5.076,3.172-.167,4.8-3.074,7.52-4.049a3.354,3.354,0,0,0,2.329-.69,37.9,37.9,0,0,0,4.217-4C293.253,5508.367,296.485,5506.631,294.555,5503.232Z" transform="translate(-187.81 -5427.544)"/><path class="v" d="M112.157,5852.8c3.329-4.049-.424-7.422-1.108-11.087.547-2.408-1.161-1.821-2.459-1.791-1.02.228-2.006.594-3.025.831a10.107,10.107,0,0,1-2.985-.5,15.612,15.612,0,0,0-2.42-.434c-1.766-.13-3.492-.547-5.265-.643a3.73,3.73,0,0,0-2.632,1.076,5.431,5.431,0,0,0-.882,1.781c-.335,3.3-.674,6.6.376,9.845a3.208,3.208,0,0,0,2.1,1.718,28.684,28.684,0,0,0,5.173-.128,6.945,6.945,0,0,0,3.05-1.332,4.066,4.066,0,0,0,.947-1.292,5.625,5.625,0,0,1,.269-.988c.024.24.042.581.053,1.071a3.562,3.562,0,0,0,1.811,2.677,7.024,7.024,0,0,0,1.758.583,7.861,7.861,0,0,0,3.739-.276A4.853,4.853,0,0,0,112.157,5852.8Z" transform="translate(-35.035 -5709.298)"/><path class="u" d="M157.121,5461.449c-1.988,6.585.422,13.064.615,19.593.139,4.725,1.32,9.419,2.036,14.126a5.069,5.069,0,0,0,3.994-.725c-.618-10.311.382-20.671-1.216-30.977-.335-2.159-.069-3.605-2.8-3.3C158.292,5459.455,157.621,5460.286,157.121,5461.449Z" transform="translate(-88.968 -5396.008)"/><path class="w" d="M44.679,5919.206l-3.949-.077a6.735,6.735,0,0,1-2.214,1.462c-6.752.4-13.5-.005-20.235.189-2.928.084-6.062-.177-7.511,3.24,6.8,4.877,26.466,5.951,33.434,1.816,1.106-.655,2.1-1.418,2.2-2.838C47.013,5921.218,45.476,5920.373,44.679,5919.206Z" transform="translate(31.276 -5775.336)"/><path class="x" d="M327.369,5790.043l.1,2.517c2.968-2.355,2.535-5.663,2.583-8.836,1.052-7.119,1.677-14.293,3.036-21.376.357-1.863.614-3.657,1.847-5.176v-1.282c-1.547-1.866-1.356-5.511-5.283-4.94-.324,1.154-.923,2.214-1.229,3.376-.28,2.07-.171,4.167-.446,6.24a2.91,2.91,0,0,0,.716,1.61l.02,1.309c-1.233,1.9-.311,4.049-.706,6.045a14.317,14.317,0,0,0-.465,10.095l-.165,1.62a9.952,9.952,0,0,0,.042,7.344Z" transform="translate(-229.687 -5636.368)"/><path class="y" d="M2.272,5858.211a.841.841,0,0,0,.306.8,2.354,2.354,0,0,0,2.325.68c1.635-.914,3.229-.252,4.84.144a2.956,2.956,0,0,0,2.488-1.111,14.492,14.492,0,0,0,.895-9.752c-1.539-1.746-3.709-1.879-5.816-2.2-2.2.25-4.33.649-5.429,2.888C1.944,5852.518,1.415,5855.4,2.272,5858.211Z" transform="translate(38.704 -5715.574)"/><path class="z" d="M42.583,5772.323c-.642,3.782-3.579,3.8-6.519,3.794q-15.283-.035-30.567-.081a4.253,4.253,0,0,0-.105,1.2c.722,1.437,2.127,1.785,3.532,2.138a34.332,34.332,0,0,0,4.915.122,27.123,27.123,0,0,1,3.131.009c.523.071,1.046.1,1.571.132,1.606.117,3.187.484,4.806.455a9.727,9.727,0,0,0,1.628-.161,13.682,13.682,0,0,1,4.724-.566c1.06-.051,2.171-1.11,3.177.175a6.985,6.985,0,0,0,3.185.55,7.59,7.59,0,0,0,1.633-.278c1.191-.6,2.645-.45,3.776-1.233C43.189,5776.72,45.936,5775.041,42.583,5772.323Z" transform="translate(35.723 -5654.073)"/><path class="aa" d="M13.951,5908.587l-2.523.006c-1.3-.141-2.629-.564-3.838.328l-2.424.216q-.127,1.222-.255,2.445a144.486,144.486,0,0,0,30.994.084q-.009-1.09-.016-2.177l-1.354-.1c-1.432.552-2.321-.817-3.557-.96-1.139-.479-2.162-.562-2.773.771-1.359.778-2.685-.292-4.033-.071l-2.193-.074a7.773,7.773,0,0,0-2.845-1.446A7.129,7.129,0,0,0,13.951,5908.587Z" transform="translate(36.114 -5765.698)"/><path class="ab" d="M35.359,5931.237l-30.994-.083a2.342,2.342,0,0,0,1.02,2.8c7.862-2.951,16.055-.708,24.048-1.507C31.411,5932.248,33.86,5933.783,35.359,5931.237Z" transform="translate(36.661 -5785.268)"/><path class="ac" d="M186.507,5805.389c-1.31-.662-2.614-.959-3.9.06a5.725,5.725,0,0,0-1.6,4.751,4.241,4.241,0,0,0,1.329,2.748c1.024-.108,2.155-1.08,2.987.355C189.97,5811.273,185.52,5807.943,186.507,5805.389Z" transform="translate(-109.314 -5680.887)"/><path class="ad" d="M-140.656,5711.064c-.046-3.89,1.244-7.879-.9-11.612a3.066,3.066,0,0,0-2.265,1.487c-1.183,2.6-.945,5.318-.635,8.041a5.819,5.819,0,0,0,.671,1.655,2.8,2.8,0,0,0,1.473.95A2.534,2.534,0,0,0-140.656,5711.064Z" transform="translate(159.704 -5593.88)"/><path class="ae" d="M320.826,5866.979c2.13-3.165.814-6.629.9-9.971-.382-.508-.7-.5-.954.107l-.633-.015-.633.012c-.763,3.485-2.191,7.051,1.29,10.012Z" transform="translate(-222.967 -5723.721)"/><path class="af" d="M13.256,5674.965c5.542,1.9,11.085,2.3,16.63.014A49.343,49.343,0,0,0,13.256,5674.965Z" transform="translate(29.222 -5573.076)"/><path class="ag" d="M103.452,6043.044h13.043l-.006-.63H102.922Z" transform="translate(-44.843 -5877.171)"/><path class="ah" d="M10.71,5671.377l16.631.013q.043-.557.08-1.115l-3.855-.354-5.252.037-7.654.258c-.444.281-.584.551-.421.806s.315.375.473.375Z" transform="translate(31.768 -5569.487)"/><path class="ai" d="M-132.029,5824.253c-.037-3.022.917-6.149-.988-8.975a3.018,3.018,0,0,0-2.223,1.47,6.518,6.518,0,0,0-.6,1.738c-.207,2.24.019,4.339,2.046,5.831A1.825,1.825,0,0,0-132.029,5824.253Z" transform="translate(152.427 -5689.554)"/><path class="aj" d="M-13.345,6066.068c.94-.155,2.134.209,2.48-1.161a8.209,8.209,0,0,0,1.073-1.442c.624-1.373-.59-1.222-1.154-.991-1.853.756-3.629,1.693-6.571,3.105Z" transform="translate(54.64 -5893.616)"/><path class="ad" d="M328.289,5766.2c1.943-1.88,1.067-4.2,1.036-6.385-.721-.659-.082-1.964-1.207-2.433q-.549.073-1.1.122C326.339,5760.555,324.89,5763.716,328.289,5766.2Z" transform="translate(-229.211 -5641.729)"/><path class="ak" d="M270.659,5594.59c-1.585-1.423,1.113-3.944-1.376-5.134q-.63-.878-1.259,0c-.264,2.269-2.377,4.9,1.311,6.394Z" transform="translate(-180.526 -5502.659)"/><path class="al" d="M335.9,5670.492q-.537.084-1.078.139c-1.079,2.45-1.249,4.854.4,7.163a1.49,1.49,0,0,0,1.7.66c2.377-1.691,2.107-3.921,1.341-6.257A3.151,3.151,0,0,0,335.9,5670.492Z" transform="translate(-235.714 -5569.959)"/><path class="am" d="M324.348,5766.775c-2.023-2.675-1.142-5.756-1.272-8.7-1.523,3.566-3.454,7.18,1.2,10.037Q324.314,5767.446,324.348,5766.775Z" transform="translate(-225.27 -5642.307)"/><path class="an" d="M-143.717,5646.887c.4-.437.8-.874,1.206-1.314q-.168-5.585-.338-11.169a1.347,1.347,0,0,0-1.85.486c-1.521,2.641-1.145,5.511-1.061,8.351C-145.5,5644.684-145.154,5646.079-143.717,5646.887Z" transform="translate(160.656 -5540)"/><path class="ao" d="M-123.493,5928.633c.083-2.181.643-4.423-.846-6.406a1.405,1.405,0,0,0-1.8-.1c-1,1.059-.932,2.375-.933,3.677.045,1.355.36,2.573,1.747,3.234A1.962,1.962,0,0,0-123.493,5928.633Z" transform="translate(145.137 -5777.581)"/><path class="ap" d="M-147.274,5593.265q.521,0,1.04.017c.383-1.279-.316-2.955,1.428-3.737l-3.752-5.1c-.235.2-.471.4-.71.6a5.611,5.611,0,0,0-.436,4.465C-149.224,5590.963-148.749,5592.426-147.274,5593.265Z" transform="translate(164.042 -5498.878)"/><path class="aq" d="M-113.971,6010.327c0-2.177.862-4.5-1.122-6.34q-.44.182-.881.36c-1.872,1.884-.963,4.025-.59,6.117A2.017,2.017,0,0,0-113.971,6010.327Z" transform="translate(136.91 -5845.43)"/><path class="ar" d="M-128.975,5876.217l1.321-.055q-.2-4.975-.4-9.948-.643-.064-1.284-.13c-1.182-.075-1.578.657-1.751,1.625a34.235,34.235,0,0,0,.491,6.332A3.219,3.219,0,0,0-128.975,5876.217Z" transform="translate(148.452 -5731.516)"/><path class="as" d="M3.446,5801.84c-1.007-1.486-2.639-1.1-4.076-1.306a7.357,7.357,0,0,0-.217,7.933c.246-.125.491-.253.74-.375C1.1,5806.02,2.109,5803.841,3.446,5801.84Z" transform="translate(41.745 -5677.375)"/><path class="am" d="M316.921,5869.358c-2.148-3.125-1.164-6.638-1.291-10.012C314.11,5862.924,312.04,5866.569,316.921,5869.358Z" transform="translate(-219.087 -5725.955)"/><path class="at" d="M-120.047,5960.61q-.486-.034-.973-.052c-2.842,2.5-2.041,5.168-.383,7.881a1.341,1.341,0,0,0,1.617-.4l-.088.07Z" transform="translate(141.691 -5809.558)"/><path class="au" d="M-135.541,5775.279l1.093-1.267q-.179-4.271-.361-8.541c-.3-.042-.588-.094-.88-.151-1.938,1.671-2.007,3.9-1.921,6.174C-137.437,5773.025-137.112,5774.479-135.541,5775.279Z" transform="translate(153.857 -5648.287)"/><path class="as" d="M1.29,5841.834l5.111-1.1a1.7,1.7,0,0,0-.066-1.914,3.756,3.756,0,0,0-4.836.061c-.184.172-.369.341-.556.509l-.681,2.337Q.679,5842.638,1.29,5841.834Z" transform="translate(39.955 -5708.294)"/><path class="av" d="M344.156,5627.643l1.249,1.33c2.848-2.724,2.329-5.882,1.234-9.117a2.421,2.421,0,0,0-1.7-1.239q-1.318.321-.792,1.549Q344.15,5623.9,344.156,5627.643Z" transform="translate(-243.972 -5527.109)"/><path class="aw" d="M124.726,5665.8a.985.985,0,0,0-1.578.512c2.167,2.639,5.033.978,7.686.845Z" transform="translate(-61.55 -5565.905)"/><path class="ax" d="M337.59,5720.463l1.208,2.434q.191-1.752.383-3.5c1.809-2.176,1.739-4.286-.234-6.328l.094.031c-.409-.545-.806-.564-1.189.028Z" transform="translate(-238.683 -5604.812)"/><path class="ay" d="M331.582,5678.933a5.654,5.654,0,0,1,1.188-.025c-1.6-2.353-1.325-5-1.252-7.616C329.455,5673.854,329.508,5676.4,331.582,5678.933Z" transform="translate(-232.412 -5570.619)"/><path class="az" d="M332.9,5596.827a8.814,8.814,0,0,0,.331-1.144c1.263-2.305,2.1-4.486-1.634-5.32l-1.215,1.29Z" transform="translate(-232.731 -5503.771)"/><path class="v" d="M-.916,5859.676q-.514-.058-1.028-.11c-.583,3.135-.885,6.247.759,9.207Q-1.05,5864.225-.916,5859.676Z" transform="translate(42.161 -5726.136)"/><path class="ba" d="M205.669,5917.837q.858,1.894,1.718,3.791c4.028-1.921-.115-2.8-.552-4.156A8.043,8.043,0,0,1,205.669,5917.837Z" transform="translate(-129.714 -5773.968)"/><path class="bb" d="M323.581,5932.705q-.021-3.672-.042-7.345C321.576,5927.819,321.515,5930.268,323.581,5932.705Z" transform="translate(-225.846 -5780.483)"/><path class="bc" d="M-112.192,6040.387l-2.147-.008a1.133,1.133,0,0,0-.537,1.46c.845,1.529.4,3.522,1.822,4.845q.472-.018.945-.018Q-112.151,6043.527-112.192,6040.387Z" transform="translate(135.131 -5875.492)"/><path class="am" d="M-11.334,5672.011q-.009-.591-.051-1.181l-2.319-.166q-1.405.179-2.811.357l.115.989Z" transform="translate(53.814 -5570.101)"/><path class="bd" d="M330.382,5829.564q.477-.064.955-.106.131-3.086.265-6.171C329.366,5825.039,330.489,5827.416,330.382,5829.564Z" transform="translate(-232.573 -5696.169)"/><path class="n" d="M345.39,5494.131q.116,3.163.233,6.327c1.291,1.917,2.135,4.246,4.754,4.938l10.3-57.762c-4.041,1-3.609,4.952-5.194,7.568-1.264,2.084-2.415,4.236-3.616,6.359l-3.995,7.235c-1.8,2.811-1.013,5.927-1.1,8.94q-.108,5-.217,10C346.57,5489.939,347.393,5492.282,345.39,5494.131Z" transform="translate(-245.126 -5385.875)"/><path class="n" d="M350.357,5787a2.643,2.643,0,0,0-2.338,2.524c-1.146,7.98-3.145,15.872-2.545,24.028,2.637-6.224,2.4-12.991,3.6-19.478C349.5,5791.753,350.792,5789.481,350.357,5787Z" transform="translate(-245.105 -5666.192)"/><path class="be" d="M323.914,6068.449c-1.628,1.986-1.245,4.267-1,6.528C325.113,6073.076,323.854,6070.665,323.914,6068.449Z" transform="translate(-226.376 -5898.677)"/><path class="n" d="M-181.886,5528.989l-.536-3.759c-1.1-1.972.341-4.336-1.01-6.27l0,.048c-1.369-4.556-.826-9.14-.22-13.726q.109-4.449.219-8.9c-.221-1.358-.021-2.85-1.284-3.88-1.453-1.457-.429-3.182-.54-4.784l.541-.159-6.1-13.855c-1.058-2.128-.664-4.837-2.751-6.552-.93,10.4,2.269,20.454,2.742,30.79.53,11.587,3.121,23.08,4.769,34.62,1.391,9.734,2.716,19.479,4.071,29.219,1.352.514,1.971-.31,2.5-1.308a9.176,9.176,0,0,1-.04-7.477l-1.441-2.562c-1.04-2-.722-4.046-.2-6.1,0-2.2.931-4.532-1-6.44-1.036-2.246-.11-4.863-1.39-7.073-.142-.246-.5-.512-.243-.893a1.1,1.1,0,0,0,1.541.416Z" transform="translate(200.203 -5401.997)"/><path class="bf" d="M-116.184,6050.173c-.5-1.7.374-3.78-1.5-5.086-.339-.62-.692-.66-1.062-.024l1.275,7.6Z" transform="translate(138.262 -5878.981)"/><path class="bg" d="M-124.9,6011.137q.532-.005,1.062.026a6.861,6.861,0,0,1,.218-1.219,8.849,8.849,0,0,1,1.113-6.4l-.6.031-.6-.039-2.5,1.306C-124.784,6006.745-125.332,6009.037-124.9,6011.137Z" transform="translate(144.414 -5845.055)"/><path class="q" d="M-144.076,5134.91c-5.534-.673-8.781.971-7.635,7.15.708,3.82-1.359,4.581-4.746,4.323a37.78,37.78,0,0,1-5.512-1.15c-7.78-1.746-9.228-.424-8.8,7.387,2.94,2.288,6.539,2.865,10.049,3.579,3.659.745,5.794,2.456,6.726,6.321,1.552,6.438,4.681,12.421,6.626,18.76,1.008,3.286,2.338,6.687.844,10.231,2.17,2.4,5.061.97,7.608,1.368-3.79-5.673-1.63-11.9-1.75-17.917a56.75,56.75,0,0,0-.35-8.087c-.135-1.395-.772-2.668-.984-4.044-.241-3.254-.085-6.507-.108-9.766-.243-3.974.535-7.92.3-11.885C-141.948,5138.894-142,5136.541-144.076,5134.91Z" transform="translate(181.286 -5127.443)"/><path class="t" d="M-16.071,5307.609c-.438,6.645.717,13.383-1.3,19.936-1.327,4.321,2.4,4.963,4.99,6.412q2.609,5.663,5.221,11.325c2.973-.065,2.247-2.364,2.549-4.041-1.625-7.518,2.432-14.291,2.967-21.529.435-4.312,1.437-8.688-1.429-12.644C-7.488,5305.255-11.856,5304.691-16.071,5307.609Z" transform="translate(54.746 -5268.522)"/><path class="t" d="M-161.434,5310.334c-4.528-.835-5.1.7-4.342,3.3,1.346,4.622,2.556,9.285,4.059,13.857s6,4.278,9.608,4.734c2.126.268,1.558-1.9,1.128-3.326-1.513-5.013-3.094-10.006-4.505-15.046C-156.574,5309.967-160.217,5311.063-161.434,5310.334Z" transform="translate(177.337 -5272.273)"/><path class="bh" d="M-146.206,5276.255c2.312-3.717,1.683-7.648.476-11.419-2.294-7.165-6.01-13.842-7.7-21.236-.583-2.558-2.632-3.669-5.122-4.112q-5.953-1.058-11.9-2.124l1.274,3.762c9.6.6,15.357,4.649,16.948,14.8C-151.152,5262.792-146.782,5269.041-146.206,5276.255Z" transform="translate(180.967 -5212.188)"/><path class="bi" d="M57.224,5537.04l-2.548-18.88a1.121,1.121,0,0,0-1.718.322c-.123,1.621-.968,3.312.488,4.778q-.025.548-.011,1.1c-1.29,2.116,1.83,4.212.028,6.331C53.83,5533.308,54.75,5535.614,57.224,5537.04Z" transform="translate(-3.278 -5443.91)"/><path class="t" d="M52.126,5561.375c2.379-2.12.8-4.222-.028-6.33C49.493,5557.166,52.292,5559.264,52.126,5561.375Z" transform="translate(-1.941 -5474.598)"/><path class="t" d="M45.215,5517.979q0-2.554-.007-5.107c.521-1.327-.142-1.528-1.275-1.282-.038,1.394.136,2.858-1.3,3.8A2.443,2.443,0,0,0,45.215,5517.979Z" transform="translate(4.952 -5438.629)"/><path class="p" d="M-17.024,5128.566l.116,18.975c1.648,3.289-.345,6.98,1.185,10.282,3.026,1.079,3.686-.978,4.305-3.093.176-1.229.536-2.586.085-3.7-2.534-6.247.038-10.051,5.907-12.409q-.014-1.89-.029-3.78c-.333-.212-.916-.383-.962-.644C-7.775,5126.467-8.966,5125.826-17.024,5128.566Z" transform="translate(54.234 -5121.1)"/><path class="t" d="M363.189,5304.982c-.4-1.327-1.6-1.086-2.58-1.268a4.83,4.83,0,0,0-2.516-1.119c-4.784.319-5.278,4.563-7.2,7.512a11.513,11.513,0,0,0-.725,1.648c-.332,1.953-1.776,3.942.132,5.849,3.94,3.189-.985,5.749-.641,8.676.248,2.114-3.884,4.812.22,6.2,3.353,1.136,3.953-2.234,4.813-4.556Q358.943,5316.455,363.189,5304.982Z" transform="translate(-247.327 -5266.07)"/><path class="bj" d="M238.5,5436.327q.63.021,1.259,0l1.276-3.693a17.647,17.647,0,0,1,.624-4.931c-.54-2.649,1.188-5.09.729-7.728.214-2.158.726-4.234,3.142-4.937,2.533-.736,3.188-2.453,3.2-4.745.021-2.969-2.581-3.008-4.417-3.674-3.181-1.154-6.475-2.008-9.722-2.986-3.677,2.151-3.52,5.382-2.6,8.829,5.542,1.653,7.159,5.362,6.577,10.8C238.116,5427.574,238.5,5431.97,238.5,5436.327Z" transform="translate(-151.006 -5349.529)"/><path class="t" d="M340.893,5201.562c-4.072,3.286-5.585,6.936-2.381,11.771,1.979,2.987.965,6.341.516,9.671-.443,3.279-3.581,6.469-.691,9.969,3.432-.126,2.336-3.561,3.871-5.074l-.021.033c1.633-4.334,4.194-8.3,5.317-12.845a39.343,39.343,0,0,0,.936-4.938C349.268,5203.82,347.939,5202.328,340.893,5201.562Z" transform="translate(-238.016 -5182.614)"/><path class="t" d="M214.925,5276.462c-7.758-3.809-10.674-3.168-11.767,2.513-.248,1.289-.633,2.563.755,3.321,4.751,2.593,3.231,6.609,2.676,10.488-.605,4.232-2.02,8.534.591,12.634,2.111-2.586,1.521-5.942,2.628-8.814l2.57-6.251C214.8,5286,216.253,5281.475,214.925,5276.462Z" transform="translate(-127.438 -5242.5)"/><path class="bk" d="M249.37,5158.192c-.446,1.993-1.063,3.965-1.308,5.981-.961,7.906-.917,7.911,7.638,9.193q2.49-8.059,4.978-16.12C256.77,5155.977,253.181,5158.356,249.37,5158.192Z" transform="translate(-164.389 -5145.7)"/><path class="q" d="M360.4,5189.828c8.278,2.231,5.349,8.458,5.115,13.725-1.574,2.9-.063,4.238,2.625,4.986l2.666-.013c-.665-4.892,1.981-9.115,3.223-13.555,1.087-3.886-.005-5.4-3.481-5.879-3.328-.457-6.526-3.162-10.077-.741Q360.439,5189.09,360.4,5189.828Z" transform="translate(-257.528 -5170.882)"/><path class="bj" d="M269.359,5265.821c-2.5.19-2.566,2-2.648,3.806-2.561,4.314-2.74,9.033-2.451,13.832,2.48-.5,6.367,1.633,7.192-1.778C272.739,5276.358,275.338,5270.405,269.359,5265.821Z" transform="translate(-178.026 -5235.694)"/><path class="bl" d="M258.465,5301.532q1.226-6.913,2.451-13.831-.6.032-1.2.029c-1.6,4.5-2.782,9.069-2.546,13.892Z" transform="translate(-172.231 -5253.768)"/><path class="bm" d="M230.066,5403.62c-1.827,2.667-2.3,5.719-2.628,8.814q.627.008,1.253.014,1.3-4.414,2.6-8.828l-.611,0Z" transform="translate(-147.696 -5349.515)"/><path class="bi" d="M286.994,5497.557c-1.8,2.74-1.272,5.827-1.373,8.82-.513,1.328.125,1.531,1.267,1.24-.5-3.455,1.09-6.626,1.412-9.968Z" transform="translate(-195.608 -5427.11)"/><path class="bn" d="M349.578,5352.947l-3.871,5.074a2.784,2.784,0,0,0,2.655,1.176Q348.971,5356.072,349.578,5352.947Z" transform="translate(-245.388 -5307.661)"/><path class="q" d="M61.182,5143.7q.016,6.267.033,12.534a22.817,22.817,0,0,0,.042,11.415l8.887-1.259,2.649-.041c.621-1.433-.548-1.936-1.4-2.609a2.966,2.966,0,0,1-1.824-2.5c-.97-8.09-2.6-16.17.094-24.211,1.274-1.64,3.018-1.812,4.9-1.492,2.676,1.037-.069,3.021.791,4.365l5.163.022c2.936-8.208,1.744-10.6-5.733-11.541a11.605,11.605,0,0,0-3.232,1.478c-5.352-6.745-9-13.873-5.322-22.648-3.845,1.079-3.557,4.212-3.689,7.124-.141,3.1.542,6.319-1.311,9.189.147.247.294.493.433.744,2,1.608,2.914,3.5,1.7,5.995-1.618,3.306-1.215,6.9-1.516,10.382A25.31,25.31,0,0,1,61.182,5143.7Z" transform="translate(-9.811 -5104.684)"/><path class="bo" d="M124.02,5201.479l2.61-.076c2-1.777,3.255-3.7,1.236-6.237.011-.417.011-.835,0-1.251Z" transform="translate(-62.271 -5176.298)"/><path class="bp" d="M139.149,5133.751c1.168-3.267.928-5.633.312-9.07C138.316,5128.077,138.6,5130.445,139.149,5133.751Z" transform="translate(-74.37 -5119.109)"/><path class="bq" d="M9.164,5193.381c-8.675.89-9.4,1.879-7.911,10.318a42.217,42.217,0,0,1,.313,4.875c1.15,2.232-.558,6.907,4.88,5.474,1.4-1.045,1.429-2.568,1.173-4-1.028-5.757-1.306-11.269,4.192-15.292l-.029-.05A2.808,2.808,0,0,1,9.164,5193.381Z" transform="translate(39.644 -5175.857)"/><path class="t" d="M110.9,5337.7l2.454,1.347c2.2.629,3.607,2.306,5.172,3.772l2.627-1.286c.044-1.873-.411-3.923.214-5.586,3.144-8.374-.553-14.359-6.663-19.638a1.9,1.9,0,0,0-2.151.949C110.018,5323.913,108.322,5330.649,110.9,5337.7Z" transform="translate(-50.374 -5277.381)"/><path class="bh" d="M96.363,5260.425c-3.4.744-2.27,3.453-2.449,5.534-.676,7.85.808,15.6,1.239,23.4,1.5.358,1.816-.6,1.866-1.7.323-7.081,1.9-13.97,3.284-20.89l2.507-1.282c3.91-2.063,5.333-4.137.028-6.241C100.881,5260.683,98.326,5259.009,96.363,5260.425Z" transform="translate(-37.259 -5230.254)"/><path class="br" d="M140.255,5201.108q-.619,3.119-1.237,6.237c8.726-.585,5.791,5.827,6.356,10.139C152.927,5209.035,151.562,5204.669,140.255,5201.108Z" transform="translate(-74.659 -5182.24)"/><path class="bs" d="M107.012,5302.478c-3.031,5.415-2.857,11.515-3.851,17.361-.3,1.785.453,3.8-1.3,5.234a2.548,2.548,0,0,0,2.634,1.224c.476-7.265.576-14.594,3.8-21.392Z" transform="translate(-43.968 -5265.973)"/><path class="bt" d="M52.642,5400.395q-.021-5.708-.042-11.416a79.478,79.478,0,0,0-2.519,21.408l1.275,1.282q.619,0,1.237,0C53.724,5407.918,50.018,5404.144,52.642,5400.395Z" transform="translate(-1.196 -5337.424)"/><path class="bu" d="M340.151,5578.2c2.073-2.779.959-5.934,1.1-8.94l-3.882,3.67c2.243,1.274,1.123,3.536,1.633,5.319Q339.577,5578.218,340.151,5578.2Z" transform="translate(-238.5 -5486.342)"/><path class="bv" d="M282.152,5549.491l-1.266-1.24c-1.585,1.287-1.56,2.566.02,3.838A2.769,2.769,0,0,0,282.152,5549.491Z" transform="translate(-190.872 -5468.985)"/><path class="bw" d="M76.722,5805.895c-1.791.386-3.455-1.636-5.3-.268-1.746,1.879-1.6,4.042-.994,6.28a3.594,3.594,0,0,0,2.4,2.2c1.185.126,2.257.009,2.777-1.268q-.018-.43-.035-.864C77.068,5810.15,78.767,5808.362,76.722,5805.895Z" transform="translate(-17.662 -5681.184)"/><path class="bx" d="M79.409,5849.361l-2.394.589c-3.257,3.625-3,7.359-.365,11.168l2.91-.057Q79.485,5855.213,79.409,5849.361Z" transform="translate(-21.467 -5717.707)"/><path class="by" d="M155.466,5808.66l-3.8-.1c-2.941,2.725-2.245,5.432.041,8.132l2.516.707c1.281-1.527,1.293-3.36,1.3-5.192C155.434,5811.025,156,5809.833,155.466,5808.66Z" transform="translate(-83.497 -5684.003)"/><path class="bz" d="M111.74,5819.1c1.417,1.691,3.408,1.051,5.2,1.224,1.674-2.674.282-4.427-1.861-5.963-1.27-.57-2.548-1.255-3.82,0C110.619,5816.016,110.3,5817.643,111.74,5819.1Z" transform="translate(-51.283 -5688.211)"/><path class="ca" d="M131.08,5808.272c1.1,1.569,3.233,2.613,2.678,5.028.853.187,1.7.374,2.556.568-.811-2.7-.423-5.413-.042-8.126-.746-1.493-1.651.36-2.445-.111A3.88,3.88,0,0,0,131.08,5808.272Z" transform="translate(-68.102 -5681.187)"/><path class="cb" d="M104.482,5815.629q.176-2.462.353-4.925a.63.63,0,0,0-.14-1.016l-1.609-.237q-.578,3.041-1.154,6.081Z" transform="translate(-44.025 -5684.741)"/><path class="cc" d="M175.669,5822.728l-.046,6.262,2.3-1.331q.038-1.219.078-2.438C177.113,5824.489,178.2,5821.99,175.669,5822.728Z" transform="translate(-104.896 -5695.596)"/><path class="cd" d="M153.751,5903.769c.416,3.047,1.88,2.377,3.556.961a2.343,2.343,0,0,1-1.327-2.384c-1.468-1.4-1.705.39-2.436.9A.329.329,0,0,1,153.751,5903.769Z" transform="translate(-86.657 -5761.04)"/><path class="ce" d="M153.543,5885.822l2.436-.9q0-2.023,0-4.044l-.87-.149Z" transform="translate(-86.657 -5743.615)"/><path class="cf" d="M115.614,5912.234c1.31,1.88,2.662,1.521,4.033.072C118.306,5912.148,117,5909.994,115.614,5912.234Z" transform="translate(-55.327 -5768.805)"/><path class="cg" d="M61.983,5854.987q.182-5.585.364-11.169l-1.583-1.52a1.607,1.607,0,0,0-1.476-.3,3.983,3.983,0,0,0-1.252.972c-.122.234-.24.471-.36.706a1.723,1.723,0,0,0,.417,1.439c-1.647,2.96-1.045,6.2-1.227,9.346Z" transform="translate(-6.8 -5711.575)"/><path class="v" d="M40.476,5843.127l.009-1.484c-1.1-2.333-2.717-2.721-4.838-1.246q-.055.809-.109,1.62C36.947,5843.4,38.817,5842.816,40.476,5843.127Z" transform="translate(10.816 -5709.583)"/><path class="v" d="M20.308,5904.761c1.27-.215,2.688,1.239,3.838-.328C22.6,5901.548,21.338,5901.865,20.308,5904.761Z" transform="translate(23.397 -5761.537)"/><path class="ch" d="M11.224,5810.1a8.123,8.123,0,0,1,4.839,1.247s.16-.021.16-.021a5.254,5.254,0,0,0,1.006-3.5c-.34-1.551-.819-3.029-2.308-3.937-1.626-1.066-3.267-1.625-4.969-.143-4.823-.05-4.049,3.172-3.738,6.121Q8.72,5809.986,11.224,5810.1Z" transform="translate(35.24 -5679.288)"/><path class="ci" d="M117.816,5802.588a10.1,10.1,0,0,0,.138,1.016l2.17,1.122a2.528,2.528,0,0,0,2.747-2.64C120.918,5799.68,119.388,5801.332,117.816,5802.588Z" transform="translate(-57.146 -5677.642)"/><path class="cj" d="M175.89,5811.171l2.332,2.494q.094-2.531.19-5.062l-1.327.093Z" transform="translate(-105.116 -5684.04)"/><path class="ck" d="M57.409,5804.125c.134,1.3-.345,2.8,1.261,3.614,1.158-.646,1.244-1.8,1.446-2.9q.094-.409.187-.817C59.292,5802.852,58.323,5802.778,57.409,5804.125Z" transform="translate(-7.249 -5679.519)"/><path class="cl" d="M68.764,5814.636l1.342-.443q-.1-3.141-.2-6.281-.354.034-.709.058l-.546.164A10.209,10.209,0,0,0,68.764,5814.636Z" transform="translate(-16.142 -5683.47)"/><path class="am" d="M-142.838,5686.305c-1.235,4.6-2.714,9.194.22,13.725q.085-5.06.17-10.123Q-142.642,5688.106-142.838,5686.305Z" transform="translate(159.387 -5583.021)"/><path class="cm" d="M-134.921,5764.92c.167,2.116-.737,4.4,1.011,6.271q.192-3.1.387-6.2Z" transform="translate(151.691 -5647.958)"/><path class="cn" d="M-136.135,5819.007l-1.757-2.4c.189,3.388-.191,6.881,1.849,9.945q.544-.666,1.086-1.333A12.482,12.482,0,0,1-136.135,5819.007Z" transform="translate(154.073 -5690.656)"/><path class="co" d="M-126.893,5910.792c-1.5,2.081-1.6,4.118.2,6.1q.122-1.869.245-3.738Q-126.672,5911.973-126.893,5910.792Z" transform="translate(145.927 -5768.45)"/><path class="am" d="M-149.746,5585.356a5.926,5.926,0,0,0-.5,5.671c.5,1.161.742-.447,1.044-.886Q-149.476,5587.749-149.746,5585.356Z" transform="translate(164.69 -5499.634)"/><path class="cp" d="M-163.854,5638.342c-.685,2.6-1,4.16.071,5.793C-162.839,5642.447-163.027,5640.871-163.854,5638.342Z" transform="translate(176.036 -5543.402)"/><path class="cq" d="M-156.277,5707.125c1.47-2.084.691-3.677.952-6.734C-157.058,5703.416-156.573,5705-156.277,5707.125Z" transform="translate(169.503 -5594.656)"/><path class="cr" d="M-171.359,5576.664a3.3,3.3,0,0,0,.123,4A3.244,3.244,0,0,0-171.359,5576.664Z" transform="translate(182.223 -5492.455)"/><path class="cs" d="M-7.432,5285.729c-4.3.852-3.324-3.448-5.13-5.031-.07,1.8-.044,3.655-2.625,3.784-.417-.669-.844-.642-1.278-.016q.683,1.3,1.367,2.6L-2.4,5287a2.935,2.935,0,0,0,2.661-1.25C-2.3,5283.689-4.86,5283.621-7.432,5285.729Z" transform="translate(53.772 -5247.982)"/><path class="t" d="M-16.465,5254.675q.639.027,1.278.016c-.522-3.34,1.211-6.951-1.259-10.058Q-16.455,5249.654-16.465,5254.675Z" transform="translate(53.772 -5218.192)"/><path class="bn" d="M374.285,5285.436c-1.533-1.331-3-2.7-2.625-4.986l-3.822,12.646C370.812,5291.206,370.03,5286.292,374.285,5285.436Z" transform="translate(-263.669 -5247.777)"/><path class="t" d="M25.807,5219.774l7.693.025c.448-4.347-.655-8.665,2.049-13.019,2.007-3.231.334-6.451-4.626-5.857-8.544.848-7.526,6.516-6.427,12.216C24.923,5215.354,25.37,5217.563,25.807,5219.774Z" transform="translate(20.533 -5182.028)"/><path class="br" d="M108.816,5260.172c2.195-.211,4.619.775,6.476-1.189C113.09,5259.154,110.69,5258.292,108.816,5260.172Z" transform="translate(-49.712 -5230.002)"/><path class="ct" d="M65.761,5815.688q-.057-3.252-.114-6.5c-1.415.878-1.059,2.274-1.087,3.557q.02,1.907.041,3.818Z" transform="translate(-13.14 -5684.522)"/></g></g></g></svg>