<svg xmlns="http://www.w3.org/2000/svg" width="120.9" height="182.467" viewBox="0 0 120.9 182.467"><defs><style>.a{fill:#f4eadb;}.b{fill:#fe8632;}.c{fill:#fea900;}.d{fill:#fe8732;}.e{fill:#fad17e;}.f{fill:#f9c45b;}.g{fill:#fea901;}.h{fill:#fea902;}.i{fill:#d72b0c;}.j{fill:#fe8835;}.k{fill:#f5ebdd;}.l{fill:#d51600;}.m{fill:#f5d1b5;}.n{fill:#f7a066;}.o{fill:#fe842d;}.p{fill:#d51f09;}.q{fill:#f7d595;}.r{fill:#f7d18a;}.s{fill:#f4ebde;}.t{fill:#fef5e5;}.u{fill:#f5dbb7;}.v{fill:#f8cf82;}.w{fill:#faf0e1;}.x{fill:#fe9718;}.y{fill:#f7d28c;}.z{fill:#f4ede4;}.aa{fill:#f8cc75;}.ab{fill:#f9ca6e;}.ac{fill:#f8cf7f;}.ad{fill:#f9d184;}.ae{fill:#f9c766;}.af{fill:#db3f24;}.ag{fill:#fbc356;}.ah{fill:#f9c358;}.ai{fill:#f8c96b;}.aj{fill:#f4eee4;}.ak{fill:#f9c663;}.al{fill:#f4ede5;}.am{fill:#f4ece1;}.an{fill:#f5a16d;}.ao{fill:#fac04f;}.ap{fill:#fdd070;}.aq{fill:#f9c664;}.ar{fill:#fe0c00;}.as{fill:#f5e3c4;}.at{fill:#f2efed;}.au{fill:#fea803;}.av{fill:#fe9023;}.aw{fill:#fea802;}.ax{fill:#feaa01;}.ay{fill:#fe941d;}.az{fill:#fe9122;}.ba{fill:#fe9121;}.bb{fill:#fe961b;}.bc{fill:#feb200;}.bd{fill:#fe882f;}.be{fill:#fea408;}.bf{fill:#fe951b;}.bg{fill:#fe9220;}.bh{fill:#f7d084;}.bi{fill:#fe9817;}.bj{fill:#d83210;}.bk{fill:#e27358;}.bl{fill:#d7260c;}.bm{fill:#d62202;}.bn{fill:#e0694d;}.bo{fill:#e2745a;}.bp{fill:#e37e65;}.bq{fill:#efccbc;}.br{fill:#d72c0f;}.bs{fill:#f3e7d9;}.bt{fill:#d72a0d;}.bu{fill:#d51a00;}.bv{fill:#d6250e;}.bw{fill:#e0664a;}.bx{fill:#df6145;}.by{fill:#e69179;}.bz{fill:#f6ead8;}.ca{fill:#fdf6e6;}.cb{fill:#fef8ef;}.cc{fill:#fdf5e6;}.cd{fill:#fdf5e5;}.ce{fill:#fef6e6;}.cf{fill:#fe931f;}.cg{fill:#d83312;}</style></defs><path class="a" d="M-60.339,5690.963h1.286c2.183-2.152,1.739-4.916,1.866-7.561.314-6.549-.717-13.147.761-19.638a5.971,5.971,0,0,0,.716-1.78c.172-2.617-.713-5.245,0-7.876a6.2,6.2,0,0,0-.008-1.721,6.284,6.284,0,0,0-.61-1.58,7.585,7.585,0,0,1,.041-7.747,8.437,8.437,0,0,0,.83-1.489,27.309,27.309,0,0,0,1.09-5.935,5.454,5.454,0,0,0-.312-1.7c-1.659-2.888-1.975-5.8-.117-8.736a8.063,8.063,0,0,0,.807-1.6,12.5,12.5,0,0,0,.191-6.257c-.661-2.448-1.61-4.906.3-7.266a8.067,8.067,0,0,0,.809-1.625,12.266,12.266,0,0,0,.076-6.5c-.752-2.064-1.254-4.275-3.3-5.612-3.553-1.105-5.76,1.569-8.46,2.875-.768.451-1.5.952-2.245,1.444-3.96,2.583-8.436,3.827-13.023,4.777a19.836,19.836,0,0,1-4.453.666,17.67,17.67,0,0,0-5.652.5,4.758,4.758,0,0,0-1.544.952,1.134,1.134,0,0,0-.134,1.14c.756,1.41,2.159.951,3.356,1.08-1.425.053-2.863.157-3.985-.976a3.2,3.2,0,0,0-2.417-.334,4.232,4.232,0,0,0-1.352.909c-4.888,1.16-9.792.551-14.684.2a7.436,7.436,0,0,0-1.679-.311c-1.343-.074-2.615.851-4.494.293-.366.008.648-1.187.521-.363-.082.535.305.673.852.526a1.528,1.528,0,0,0,1.28-1.079c-1.052-2.694-3.8-2.542-5.934-3.432a24.9,24.9,0,0,1-8.179-3.433c-2.574-1.1-4.57-3.7-7.871-2.919-1.625,1.11-1.882,2.793-2,4.538a69.369,69.369,0,0,0,.282,10.616c1.477,3.738.786,7.648.935,11.491a61.565,61.565,0,0,0,.342,8.5c1.226,2.994.932,6.14.948,9.253a72.1,72.1,0,0,0,.332,9.377,17.586,17.586,0,0,1,.967,6.98,36.978,36.978,0,0,0,.436,7.086,17.234,17.234,0,0,1,.849,6.932c.005,2.068,0,4.134,0,6.2-.043,4,.372,7.878,3.136,11.121h2.572c5.247-2.6,11.086-4.338,14.5-9.57-1.337-2.143,1.275-2.023,1.868-3.071.321.735-.063,1.817,1.12,2.148,3.34.982,6.294-.6,9.317-1.391,12.013-3.159,22.784-1.163,31.918,7.323A23.512,23.512,0,0,0-60.339,5690.963Z" transform="translate(154.229 -5508.497)"/><path class="b" d="M-230.893,5272.789c3.314,5.375,4.164,11.651,6.633,17.335,1.108,2.236-.365,5.542,2.965,6.858a3.65,3.65,0,0,0,2.306-2.808c.636-2.251,1.646-3.847,4.454-3.309,2.918.56,5.347,1.566,5.792,4.916s.188,6.7.3,10.044c.156,4.829.315,9.658,3.093,13.93a14.057,14.057,0,0,0,7.858,3.4c1.57-4.35-1.046-8.088-1.919-12.063-.627-2.853-1.378-5.683-1.962-8.55-.648-3.185.371-5.22,3.731-6.12,3.137-.84,4.857.5,5.989,3.154a175.015,175.015,0,0,1,5.86,17.223c1.086,3.52,1.521,7.483,5.208,9.721a6.466,6.466,0,0,0,4.873-.317c2.081-2.433.785-4.934.173-7.421-.981-2.4-2.975-4.32-3.437-6.967-.428-2.062-1.351-4.054-.93-6.244a4.847,4.847,0,0,0-.349-1.583,19.093,19.093,0,0,1-1.931-3.64c-1.982-3.571-2.3-8.043-6.016-10.671-1.8-1.357-4.847-.156-6.024-2.819-2.187-8.687-5.959-16.854-8.43-25.447-2.271-7.9-9.231-8.065-15.853-8.575-5.225,3.077-7.663,8.827-12.38,12.4Z" transform="translate(230.893 -5224.97)"/><path class="b" d="M271.884,5204.577c2.235-3.161.343-8.4,5.344-10.166v-10.067c-1.548-1.438-2.719-3.611-5.478-2.7-3.621,3.305-4.231,8.006-5.85,12.231-1.554,4.057-2.483,8.364-5.931,13.258.032-3.388,1.126-5.247,1.572-7.2.535-2.341,1.966-4.853-1.053-6.669-.949-.52-2.056-.823-2.657-1.835-.97-2.586.569-4.844,1.048-7.209.667-3.287,1.592-6.759.006-9.734-2.53-4.747-1.33-8.72,1.353-12.746a6.606,6.606,0,0,0,.426-1.929c-.45-4.683-2.98-6.9-7.847-6.347-5.293,4.344-4.881,10.917-6.775,16.594a9.227,9.227,0,0,0,.207,2.862c1.049,3.21,3.579,5.843,2.915,9.763-.672,3.973-2.157,6.486-6.563,6.583a6.85,6.85,0,0,0-1.727.816c-1.863,1.884-3.614,3.813-2.768,6.752a4.707,4.707,0,0,0,1.307,1.306c2.786,1.445,5.884,2.081,8.825,3.145,3.418,1.236,4.47,2.94,1.39,5.694-1.911,1.709-3.558,3.562-2.424,6.405a5.1,5.1,0,0,0,1.381,1.212c4.551,2.073,9.843,1.687,14.284,4.133,3.8-.375,4.352-3.626,5.44-6.192C269.448,5209.859,270.1,5206.983,271.884,5204.577Z" transform="translate(-156.328 -5142.817)"/><path class="c" d="M93.543,5095.382c-2.3-.159-.55,2.531-2.659,3.049v-5.771H79.308a13.354,13.354,0,0,0-1.838,2.4c-3.038,10.185-.854,18.524,6.141,23.491,3.849-.713,4.007-4.542,6.017-6.8a3.073,3.073,0,0,1,2.963-.479c3.179,1.1,6.454,2.8,8.715-1.485a9.316,9.316,0,0,0-2.591-12.24A11.624,11.624,0,0,0,93.543,5095.382Z" transform="translate(-22.716 -5092.66)"/><path class="d" d="M51.848,5095.193q.083-1.265.166-2.533H45.583c.858,4.708-1.78,9.081-1.382,13.744a3.573,3.573,0,0,0-.871,3.988,2.675,2.675,0,0,0,3.546,1.549c3.326-2.548,2-6.318,2.5-9.567C49.769,5099.792,49.161,5096.986,51.848,5095.193Z" transform="translate(4.578 -5092.66)"/><path class="e" d="M318.511,5992.029c-.842-4.543,3.694-8.992.249-13.581a1.688,1.688,0,0,0-.1-2.516c-2.9.3-2.391,2.519-2.408,4.3-.076,8.164-.073,16.329-.1,24.493h1.286l.073-6.166C318.784,5996.52,317.416,5994.094,318.511,5992.029Z" transform="translate(-220.973 -5822.257)"/><path class="f" d="M-111.42,6076.861c1.567,2.786,1.252,5.793,1.079,8.784h2.572l-1.416-11.292a1.037,1.037,0,0,0-1.32-.35C-111.16,6074.848-110.794,6076.006-111.42,6076.861Z" transform="translate(132.206 -5903.178)"/><path class="d" d="M136.714,5100.573c2.052,1.764,4.191,3.442,6.138,5.312,3.208,3.081.9,6.531-.256,9.279-1.384,3.3-3.916.3-5.868-.287-1.9-.574-3.827-2.541-5.247.59a1.122,1.122,0,0,0-.435.992c.047.371.117.556.208.556a7.009,7.009,0,0,0,2.4,1.992c6.532,3.869,6.825,5.668,1.982,12.05-1.444.38-2.969.344-4.391.84a4.553,4.553,0,0,0-2.8,2.46,4.862,4.862,0,0,0,1.069,3.663c4.91,5.379,7.852,11.255,5.561,18.751a8.393,8.393,0,0,0,.968,6.068c3.015,7.836,2.091,16.025,2.366,24.113.11,3.223-.811,6.771,2.27,9.335a27.149,27.149,0,0,0,14.008-5.244c-.669-2.709.421-5.326.449-8.007.1-4.4-.151-8.8.113-13.177.288-4.779-1.44-8.121-6.1-9.839a17.555,17.555,0,0,1-1.6-.933c-2.653-3.391-1.329-7.08-.748-10.668.536-3.314,1-6.573-.83-9.665-1.037-1.751-2.845-3.424-1.383-5.622,1.67-2.511,4.118-1.311,6.344-.893.623.118,1.244.242,1.871.341a4.463,4.463,0,0,0,1.749-.271c1.746-.936,1.548-3.018,2.658-4.331q-.01-1.233-.021-2.462c-5.138-2.427-7.287-6.164-5.535-11.741a3.452,3.452,0,0,0-.795-3.433c.36-.728,1.175-1.971,1.014-2.107-3.548-2.99-6.221-7.021-10.559-9.032C139.722,5098.46,138.051,5099.443,136.714,5100.573Z" transform="translate(-65.888 -5097.852)"/><path class="c" d="M-53.211,5518.883c-3.853-9.088-5.667-18.833-9.543-27.95-1.662-3.909-3.308-4.686-7.1-3.212-3.51,1.365-7.737,1.547-6.264,7.187,1.9,7.282,3.433,14.656,6.22,21.691l6.712,2.376c.79.86,1.967.673,2.941,1.038C-57.8,5520.21-55.238,5521.146-53.211,5518.883Z" transform="translate(103.293 -5418.412)"/><path class="g" d="M55.4,5471.559l1.388,7.3c1.164,1.381,2.478,1.2,3.856.354l2.408-.377a2.24,2.24,0,0,0,1.578-.512,3.109,3.109,0,0,0,1.076-.347,8.334,8.334,0,0,0,.913-5.484c-1.131-9.563-2.718-19.081-2.812-28.743a6.333,6.333,0,0,0-1.218-3.533c-3.32-2.785-6.563-1.409-9.806.172-4.637,3.6-.954,8.308-1.726,12.427C52.556,5459.054,52.25,5465.69,55.4,5471.559Z" transform="translate(-1.456 -5378.429)"/><path class="d" d="M42.127,5736.079c-8.321-8.976-25.137-10.247-34.411-2.7-2.149,1.749-3.4,3.626-2.674,6.411a6.9,6.9,0,0,0,5.215,1.878c8.488.063,16.983.248,25.462-.1C39.031,5741.437,42.92,5741.159,42.127,5736.079Z" transform="translate(36.179 -5617.827)"/><path class="h" d="M-161.89,5486.692c-.4-8.322-.689-16.65-1.228-24.963-.29-4.478-4.918-7.226-11.133-6.736-4.673.368-2.219,4.086-2.923,6.324-.245.778-.579,1.531-.872,2.295-1.121,5.548,2.106,9.731,4.62,14.14,1.38,1.982,2.687,4.048,5.233,4.821Z" transform="translate(187.43 -5391.907)"/><path class="d" d="M115.753,5441.967a164.169,164.169,0,0,0,3.921,37.84l6.552-.39c1.88-1.913,1.445-4.237,1.064-6.466-1.5-8.8-1.729-17.718-2.712-26.569a6.792,6.792,0,0,0-5.918-5.547A3.368,3.368,0,0,0,115.753,5441.967Z" transform="translate(-55.421 -5380.256)"/><path class="h" d="M294.555,5503.232c-.69-3.662-3.974-3.25-6.513-3.854-2.474-.588-5.023-.876-7.539-1.3-2.756,2.3-3.124,5.437-3.189,8.677a10.853,10.853,0,0,1-.543,3.459,37.129,37.129,0,0,0-.611,4.181c1.585,1.359-2.3,4.56,1.784,5.076,3.172-.167,4.8-3.074,7.52-4.049a3.354,3.354,0,0,0,2.329-.69,37.9,37.9,0,0,0,4.217-4C293.253,5508.367,296.485,5506.631,294.555,5503.232Z" transform="translate(-187.81 -5427.544)"/><path class="i" d="M112.157,5852.8c3.329-4.049-.424-7.422-1.108-11.087.547-2.408-1.161-1.821-2.459-1.791-1.02.228-2.006.594-3.025.831a10.107,10.107,0,0,1-2.985-.5,15.612,15.612,0,0,0-2.42-.434c-1.766-.13-3.492-.547-5.265-.643a3.73,3.73,0,0,0-2.632,1.076,5.431,5.431,0,0,0-.882,1.781c-.335,3.3-.674,6.6.376,9.845a3.208,3.208,0,0,0,2.1,1.718,28.684,28.684,0,0,0,5.173-.128,6.945,6.945,0,0,0,3.05-1.332,4.066,4.066,0,0,0,.947-1.292,5.625,5.625,0,0,1,.269-.988c.024.24.042.581.053,1.071a3.562,3.562,0,0,0,1.811,2.677,7.024,7.024,0,0,0,1.758.583,7.861,7.861,0,0,0,3.739-.276A4.853,4.853,0,0,0,112.157,5852.8Z" transform="translate(-35.035 -5709.298)"/><path class="h" d="M157.121,5461.449c-1.988,6.585.422,13.064.615,19.593.139,4.725,1.32,9.419,2.036,14.126a5.069,5.069,0,0,0,3.994-.725c-.618-10.311.382-20.671-1.216-30.977-.335-2.159-.069-3.605-2.8-3.3C158.292,5459.455,157.621,5460.286,157.121,5461.449Z" transform="translate(-88.968 -5396.008)"/><path class="j" d="M44.679,5919.206l-3.949-.077a6.735,6.735,0,0,1-2.214,1.462c-6.752.4-13.5-.005-20.235.189-2.928.084-6.062-.177-7.511,3.24,6.8,4.877,26.466,5.951,33.434,1.816,1.106-.655,2.1-1.418,2.2-2.838C47.013,5921.218,45.476,5920.373,44.679,5919.206Z" transform="translate(31.276 -5775.336)"/><path class="k" d="M327.369,5790.043l.1,2.517c2.968-2.355,2.535-5.663,2.583-8.836,1.052-7.119,1.677-14.293,3.036-21.376.357-1.863.614-3.657,1.847-5.176v-1.282c-1.547-1.866-1.356-5.511-5.283-4.94-.324,1.154-.923,2.214-1.229,3.376-.28,2.07-.171,4.167-.446,6.24a2.91,2.91,0,0,0,.716,1.61l.02,1.309c-1.233,1.9-.311,4.049-.706,6.045a14.317,14.317,0,0,0-.465,10.095l-.165,1.62a9.952,9.952,0,0,0,.042,7.344Z" transform="translate(-229.687 -5636.368)"/><path class="l" d="M2.272,5858.211a.841.841,0,0,0,.306.8,2.354,2.354,0,0,0,2.325.68c1.635-.914,3.229-.252,4.84.144a2.956,2.956,0,0,0,2.488-1.111,14.492,14.492,0,0,0,.895-9.752c-1.539-1.746-3.709-1.879-5.816-2.2-2.2.25-4.33.649-5.429,2.888C1.944,5852.518,1.415,5855.4,2.272,5858.211Z" transform="translate(38.704 -5715.574)"/><path class="m" d="M42.583,5772.323c-.642,3.782-3.579,3.8-6.519,3.794q-15.283-.035-30.567-.081a4.253,4.253,0,0,0-.105,1.2c.722,1.437,2.127,1.785,3.532,2.138a34.332,34.332,0,0,0,4.915.122,27.123,27.123,0,0,1,3.131.009c.523.071,1.046.1,1.571.132,1.606.117,3.187.484,4.806.455a9.727,9.727,0,0,0,1.628-.161,13.682,13.682,0,0,1,4.724-.566c1.06-.051,2.171-1.11,3.177.175a6.985,6.985,0,0,0,3.185.55,7.59,7.59,0,0,0,1.633-.278c1.191-.6,2.645-.45,3.776-1.233C43.189,5776.72,45.936,5775.041,42.583,5772.323Z" transform="translate(35.723 -5654.073)"/><path class="n" d="M13.951,5908.587l-2.523.006c-1.3-.141-2.629-.564-3.838.328l-2.424.216q-.127,1.222-.255,2.445a144.486,144.486,0,0,0,30.994.084q-.009-1.09-.016-2.177l-1.354-.1c-1.432.552-2.321-.817-3.557-.96-1.139-.479-2.162-.562-2.773.771-1.359.778-2.685-.292-4.033-.071l-2.193-.074a7.773,7.773,0,0,0-2.845-1.446A7.129,7.129,0,0,0,13.951,5908.587Z" transform="translate(36.114 -5765.698)"/><path class="o" d="M35.359,5931.237l-30.994-.083a2.342,2.342,0,0,0,1.02,2.8c7.862-2.951,16.055-.708,24.048-1.507C31.411,5932.248,33.86,5933.783,35.359,5931.237Z" transform="translate(36.661 -5785.268)"/><path class="p" d="M186.507,5805.389c-1.31-.662-2.614-.959-3.9.06a5.725,5.725,0,0,0-1.6,4.751,4.241,4.241,0,0,0,1.329,2.748c1.024-.108,2.155-1.08,2.987.355C189.97,5811.273,185.52,5807.943,186.507,5805.389Z" transform="translate(-109.314 -5680.887)"/><path class="q" d="M-140.656,5711.064c-.046-3.89,1.244-7.879-.9-11.612a3.066,3.066,0,0,0-2.265,1.487c-1.183,2.6-.945,5.318-.635,8.041a5.819,5.819,0,0,0,.671,1.655,2.8,2.8,0,0,0,1.473.95A2.534,2.534,0,0,0-140.656,5711.064Z" transform="translate(159.704 -5593.88)"/><path class="r" d="M320.826,5866.979c2.13-3.165.814-6.629.9-9.971-.382-.508-.7-.5-.954.107l-.633-.015-.633.012c-.763,3.485-2.191,7.051,1.29,10.012Z" transform="translate(-222.967 -5723.721)"/><path class="s" d="M13.256,5674.965c5.542,1.9,11.085,2.3,16.63.014A49.343,49.343,0,0,0,13.256,5674.965Z" transform="translate(29.222 -5573.076)"/><path class="t" d="M103.452,6043.044h13.043l-.006-.63H102.922Z" transform="translate(-44.843 -5877.171)"/><path class="u" d="M10.71,5671.377l16.631.013q.043-.557.08-1.115l-3.855-.354-5.252.037-7.654.258c-.444.281-.584.551-.421.806s.315.375.473.375Z" transform="translate(31.768 -5569.487)"/><path class="v" d="M-132.029,5824.253c-.037-3.022.917-6.149-.988-8.975a3.018,3.018,0,0,0-2.223,1.47,6.518,6.518,0,0,0-.6,1.738c-.207,2.24.019,4.339,2.046,5.831A1.825,1.825,0,0,0-132.029,5824.253Z" transform="translate(152.427 -5689.554)"/><path class="w" d="M-13.345,6066.068c.94-.155,2.134.209,2.48-1.161a8.209,8.209,0,0,0,1.073-1.442c.624-1.373-.59-1.222-1.154-.991-1.853.756-3.629,1.693-6.571,3.105Z" transform="translate(54.64 -5893.616)"/><path class="q" d="M328.289,5766.2c1.943-1.88,1.067-4.2,1.036-6.385-.721-.659-.082-1.964-1.207-2.433q-.549.073-1.1.122C326.339,5760.555,324.89,5763.716,328.289,5766.2Z" transform="translate(-229.211 -5641.729)"/><path class="x" d="M270.659,5594.59c-1.585-1.423,1.113-3.944-1.376-5.134q-.63-.878-1.259,0c-.264,2.269-2.377,4.9,1.311,6.394Z" transform="translate(-180.526 -5502.659)"/><path class="y" d="M335.9,5670.492q-.537.084-1.078.139c-1.079,2.45-1.249,4.854.4,7.163a1.49,1.49,0,0,0,1.7.66c2.377-1.691,2.107-3.921,1.341-6.257A3.151,3.151,0,0,0,335.9,5670.492Z" transform="translate(-235.714 -5569.959)"/><path class="z" d="M324.348,5766.775c-2.023-2.675-1.142-5.756-1.272-8.7-1.523,3.566-3.454,7.18,1.2,10.037Q324.314,5767.446,324.348,5766.775Z" transform="translate(-225.27 -5642.307)"/><path class="aa" d="M-143.717,5646.887c.4-.437.8-.874,1.206-1.314q-.168-5.585-.338-11.169a1.347,1.347,0,0,0-1.85.486c-1.521,2.641-1.145,5.511-1.061,8.351C-145.5,5644.684-145.154,5646.079-143.717,5646.887Z" transform="translate(160.656 -5540)"/><path class="ab" d="M-123.493,5928.633c.083-2.181.643-4.423-.846-6.406a1.405,1.405,0,0,0-1.8-.1c-1,1.059-.932,2.375-.933,3.677.045,1.355.36,2.573,1.747,3.234A1.962,1.962,0,0,0-123.493,5928.633Z" transform="translate(145.137 -5777.581)"/><path class="ac" d="M-147.274,5593.265q.521,0,1.04.017c.383-1.279-.316-2.955,1.428-3.737l-3.752-5.1c-.235.2-.471.4-.71.6a5.611,5.611,0,0,0-.436,4.465C-149.224,5590.963-148.749,5592.426-147.274,5593.265Z" transform="translate(164.042 -5498.878)"/><path class="ad" d="M-113.971,6010.327c0-2.177.862-4.5-1.122-6.34q-.44.182-.881.36c-1.872,1.884-.963,4.025-.59,6.117A2.017,2.017,0,0,0-113.971,6010.327Z" transform="translate(136.91 -5845.43)"/><path class="ae" d="M-128.975,5876.217l1.321-.055q-.2-4.975-.4-9.948-.643-.064-1.284-.13c-1.182-.075-1.578.657-1.751,1.625a34.235,34.235,0,0,0,.491,6.332A3.219,3.219,0,0,0-128.975,5876.217Z" transform="translate(148.452 -5731.516)"/><path class="af" d="M3.446,5801.84c-1.007-1.486-2.639-1.1-4.076-1.306a7.357,7.357,0,0,0-.217,7.933c.246-.125.491-.253.74-.375C1.1,5806.02,2.109,5803.841,3.446,5801.84Z" transform="translate(41.745 -5677.375)"/><path class="z" d="M316.921,5869.358c-2.148-3.125-1.164-6.638-1.291-10.012C314.11,5862.924,312.04,5866.569,316.921,5869.358Z" transform="translate(-219.087 -5725.955)"/><path class="ag" d="M-120.047,5960.61q-.486-.034-.973-.052c-2.842,2.5-2.041,5.168-.383,7.881a1.341,1.341,0,0,0,1.617-.4l-.088.07Z" transform="translate(141.691 -5809.558)"/><path class="ah" d="M-135.541,5775.279l1.093-1.267q-.179-4.271-.361-8.541c-.3-.042-.588-.094-.88-.151-1.938,1.671-2.007,3.9-1.921,6.174C-137.437,5773.025-137.112,5774.479-135.541,5775.279Z" transform="translate(153.857 -5648.287)"/><path class="af" d="M1.29,5841.834l5.111-1.1a1.7,1.7,0,0,0-.066-1.914,3.756,3.756,0,0,0-4.836.061c-.184.172-.369.341-.556.509l-.681,2.337Q.679,5842.638,1.29,5841.834Z" transform="translate(39.955 -5708.294)"/><path class="ai" d="M344.156,5627.643l1.249,1.33c2.848-2.724,2.329-5.882,1.234-9.117a2.421,2.421,0,0,0-1.7-1.239q-1.318.321-.792,1.549Q344.15,5623.9,344.156,5627.643Z" transform="translate(-243.972 -5527.109)"/><path class="aj" d="M124.726,5665.8a.985.985,0,0,0-1.578.512c2.167,2.639,5.033.978,7.686.845Z" transform="translate(-61.55 -5565.905)"/><path class="ak" d="M337.59,5720.463l1.208,2.434q.191-1.752.383-3.5c1.809-2.176,1.739-4.286-.234-6.328l.094.031c-.409-.545-.806-.564-1.189.028Z" transform="translate(-238.683 -5604.812)"/><path class="al" d="M331.582,5678.933a5.654,5.654,0,0,1,1.188-.025c-1.6-2.353-1.325-5-1.252-7.616C329.455,5673.854,329.508,5676.4,331.582,5678.933Z" transform="translate(-232.412 -5570.619)"/><path class="am" d="M332.9,5596.827a8.814,8.814,0,0,0,.331-1.144c1.263-2.305,2.1-4.486-1.634-5.32l-1.215,1.29Z" transform="translate(-232.731 -5503.771)"/><path class="i" d="M-.916,5859.676q-.514-.058-1.028-.11c-.583,3.135-.885,6.247.759,9.207Q-1.05,5864.225-.916,5859.676Z" transform="translate(42.161 -5726.136)"/><path class="an" d="M205.669,5917.837q.858,1.894,1.718,3.791c4.028-1.921-.115-2.8-.552-4.156A8.043,8.043,0,0,1,205.669,5917.837Z" transform="translate(-129.714 -5773.968)"/><path class="ao" d="M323.581,5932.705q-.021-3.672-.042-7.345C321.576,5927.819,321.515,5930.268,323.581,5932.705Z" transform="translate(-225.846 -5780.483)"/><path class="ap" d="M-112.192,6040.387l-2.147-.008a1.133,1.133,0,0,0-.537,1.46c.845,1.529.4,3.522,1.822,4.845q.472-.018.945-.018Q-112.151,6043.527-112.192,6040.387Z" transform="translate(135.131 -5875.492)"/><path class="z" d="M-11.334,5672.011q-.009-.591-.051-1.181l-2.319-.166q-1.405.179-2.811.357l.115.989Z" transform="translate(53.814 -5570.101)"/><path class="aq" d="M330.382,5829.564q.477-.064.955-.106.131-3.086.265-6.171C329.366,5825.039,330.489,5827.416,330.382,5829.564Z" transform="translate(-232.573 -5696.169)"/><path class="a" d="M345.39,5494.131q.116,3.163.233,6.327c1.291,1.917,2.135,4.246,4.754,4.938l10.3-57.762c-4.041,1-3.609,4.952-5.194,7.568-1.264,2.084-2.415,4.236-3.616,6.359l-3.995,7.235c-1.8,2.811-1.013,5.927-1.1,8.94q-.108,5-.217,10C346.57,5489.939,347.393,5492.282,345.39,5494.131Z" transform="translate(-245.126 -5385.875)"/><path class="a" d="M350.357,5787a2.643,2.643,0,0,0-2.338,2.524c-1.146,7.98-3.145,15.872-2.545,24.028,2.637-6.224,2.4-12.991,3.6-19.478C349.5,5791.753,350.792,5789.481,350.357,5787Z" transform="translate(-245.105 -5666.192)"/><path class="ar" d="M323.914,6068.449c-1.628,1.986-1.245,4.267-1,6.528C325.113,6073.076,323.854,6070.665,323.914,6068.449Z" transform="translate(-226.376 -5898.677)"/><path class="a" d="M-181.886,5528.989l-.536-3.759c-1.1-1.972.341-4.336-1.01-6.27l0,.048c-1.369-4.556-.826-9.14-.22-13.726q.109-4.449.219-8.9c-.221-1.358-.021-2.85-1.284-3.88-1.453-1.457-.429-3.182-.54-4.784l.541-.159-6.1-13.855c-1.058-2.128-.664-4.837-2.751-6.552-.93,10.4,2.269,20.454,2.742,30.79.53,11.587,3.121,23.08,4.769,34.62,1.391,9.734,2.716,19.479,4.071,29.219,1.352.514,1.971-.31,2.5-1.308a9.176,9.176,0,0,1-.04-7.477l-1.441-2.562c-1.04-2-.722-4.046-.2-6.1,0-2.2.931-4.532-1-6.44-1.036-2.246-.11-4.863-1.39-7.073-.142-.246-.5-.512-.243-.893a1.1,1.1,0,0,0,1.541.416Z" transform="translate(200.203 -5401.997)"/><path class="as" d="M-116.184,6050.173c-.5-1.7.374-3.78-1.5-5.086-.339-.62-.692-.66-1.062-.024l1.275,7.6Z" transform="translate(138.262 -5878.981)"/><path class="at" d="M-124.9,6011.137q.532-.005,1.062.026a6.861,6.861,0,0,1,.218-1.219,8.849,8.849,0,0,1,1.113-6.4l-.6.031-.6-.039-2.5,1.306C-124.784,6006.745-125.332,6009.037-124.9,6011.137Z" transform="translate(144.414 -5845.055)"/><path class="d" d="M-144.076,5134.91c-5.534-.673-8.781.971-7.635,7.15.708,3.82-1.359,4.581-4.746,4.323a37.78,37.78,0,0,1-5.512-1.15c-7.78-1.746-9.228-.424-8.8,7.387,2.94,2.288,6.539,2.865,10.049,3.579,3.659.745,5.794,2.456,6.726,6.321,1.552,6.438,4.681,12.421,6.626,18.76,1.008,3.286,2.338,6.687.844,10.231,2.17,2.4,5.061.97,7.608,1.368-3.79-5.673-1.63-11.9-1.75-17.917a56.75,56.75,0,0,0-.35-8.087c-.135-1.395-.772-2.668-.984-4.044-.241-3.254-.085-6.507-.108-9.766-.243-3.974.535-7.92.3-11.885C-141.948,5138.894-142,5136.541-144.076,5134.91Z" transform="translate(181.286 -5127.443)"/><path class="g" d="M-16.071,5307.609c-.438,6.645.717,13.383-1.3,19.936-1.327,4.321,2.4,4.963,4.99,6.412q2.609,5.663,5.221,11.325c2.973-.065,2.247-2.364,2.549-4.041-1.625-7.518,2.432-14.291,2.967-21.529.435-4.312,1.437-8.688-1.429-12.644C-7.488,5305.255-11.856,5304.691-16.071,5307.609Z" transform="translate(54.746 -5268.522)"/><path class="g" d="M-161.434,5310.334c-4.528-.835-5.1.7-4.342,3.3,1.346,4.622,2.556,9.285,4.059,13.857s6,4.278,9.608,4.734c2.126.268,1.558-1.9,1.128-3.326-1.513-5.013-3.094-10.006-4.505-15.046C-156.574,5309.967-160.217,5311.063-161.434,5310.334Z" transform="translate(177.337 -5272.273)"/><path class="au" d="M-146.206,5276.255c2.312-3.717,1.683-7.648.476-11.419-2.294-7.165-6.01-13.842-7.7-21.236-.583-2.558-2.632-3.669-5.122-4.112q-5.953-1.058-11.9-2.124l1.274,3.762c9.6.6,15.357,4.649,16.948,14.8C-151.152,5262.792-146.782,5269.041-146.206,5276.255Z" transform="translate(180.967 -5212.188)"/><path class="av" d="M57.224,5537.04l-2.548-18.88a1.121,1.121,0,0,0-1.718.322c-.123,1.621-.968,3.312.488,4.778q-.025.548-.011,1.1c-1.29,2.116,1.83,4.212.028,6.331C53.83,5533.308,54.75,5535.614,57.224,5537.04Z" transform="translate(-3.278 -5443.91)"/><path class="g" d="M52.126,5561.375c2.379-2.12.8-4.222-.028-6.33C49.493,5557.166,52.292,5559.264,52.126,5561.375Z" transform="translate(-1.941 -5474.598)"/><path class="g" d="M45.215,5517.979q0-2.554-.007-5.107c.521-1.327-.142-1.528-1.275-1.282-.038,1.394.136,2.858-1.3,3.8A2.443,2.443,0,0,0,45.215,5517.979Z" transform="translate(4.952 -5438.629)"/><path class="c" d="M-17.024,5128.566l.116,18.975c1.648,3.289-.345,6.98,1.185,10.282,3.026,1.079,3.686-.978,4.305-3.093.176-1.229.536-2.586.085-3.7-2.534-6.247.038-10.051,5.907-12.409q-.014-1.89-.029-3.78c-.333-.212-.916-.383-.962-.644C-7.775,5126.467-8.966,5125.826-17.024,5128.566Z" transform="translate(54.234 -5121.1)"/><path class="g" d="M363.189,5304.982c-.4-1.327-1.6-1.086-2.58-1.268a4.83,4.83,0,0,0-2.516-1.119c-4.784.319-5.278,4.563-7.2,7.512a11.513,11.513,0,0,0-.725,1.648c-.332,1.953-1.776,3.942.132,5.849,3.94,3.189-.985,5.749-.641,8.676.248,2.114-3.884,4.812.22,6.2,3.353,1.136,3.953-2.234,4.813-4.556Q358.943,5316.455,363.189,5304.982Z" transform="translate(-247.327 -5266.07)"/><path class="aw" d="M238.5,5436.327q.63.021,1.259,0l1.276-3.693a17.647,17.647,0,0,1,.624-4.931c-.54-2.649,1.188-5.09.729-7.728.214-2.158.726-4.234,3.142-4.937,2.533-.736,3.188-2.453,3.2-4.745.021-2.969-2.581-3.008-4.417-3.674-3.181-1.154-6.475-2.008-9.722-2.986-3.677,2.151-3.52,5.382-2.6,8.829,5.542,1.653,7.159,5.362,6.577,10.8C238.116,5427.574,238.5,5431.97,238.5,5436.327Z" transform="translate(-151.006 -5349.529)"/><path class="g" d="M340.893,5201.562c-4.072,3.286-5.585,6.936-2.381,11.771,1.979,2.987.965,6.341.516,9.671-.443,3.279-3.581,6.469-.691,9.969,3.432-.126,2.336-3.561,3.871-5.074l-.021.033c1.633-4.334,4.194-8.3,5.317-12.845a39.343,39.343,0,0,0,.936-4.938C349.268,5203.82,347.939,5202.328,340.893,5201.562Z" transform="translate(-238.016 -5182.614)"/><path class="g" d="M214.925,5276.462c-7.758-3.809-10.674-3.168-11.767,2.513-.248,1.289-.633,2.563.755,3.321,4.751,2.593,3.231,6.609,2.676,10.488-.605,4.232-2.02,8.534.591,12.634,2.111-2.586,1.521-5.942,2.628-8.814l2.57-6.251C214.8,5286,216.253,5281.475,214.925,5276.462Z" transform="translate(-127.438 -5242.5)"/><path class="ax" d="M249.37,5158.192c-.446,1.993-1.063,3.965-1.308,5.981-.961,7.906-.917,7.911,7.638,9.193q2.49-8.059,4.978-16.12C256.77,5155.977,253.181,5158.356,249.37,5158.192Z" transform="translate(-164.389 -5145.7)"/><path class="d" d="M360.4,5189.828c8.278,2.231,5.349,8.458,5.115,13.725-1.574,2.9-.063,4.238,2.625,4.986l2.666-.013c-.665-4.892,1.981-9.115,3.223-13.555,1.087-3.886-.005-5.4-3.481-5.879-3.328-.457-6.526-3.162-10.077-.741Q360.439,5189.09,360.4,5189.828Z" transform="translate(-257.528 -5170.882)"/><path class="aw" d="M269.359,5265.821c-2.5.19-2.566,2-2.648,3.806-2.561,4.314-2.74,9.033-2.451,13.832,2.48-.5,6.367,1.633,7.192-1.778C272.739,5276.358,275.338,5270.405,269.359,5265.821Z" transform="translate(-178.026 -5235.694)"/><path class="ay" d="M258.465,5301.532q1.226-6.913,2.451-13.831-.6.032-1.2.029c-1.6,4.5-2.782,9.069-2.546,13.892Z" transform="translate(-172.231 -5253.768)"/><path class="az" d="M230.066,5403.62c-1.827,2.667-2.3,5.719-2.628,8.814q.627.008,1.253.014,1.3-4.414,2.6-8.828l-.611,0Z" transform="translate(-147.696 -5349.515)"/><path class="av" d="M286.994,5497.557c-1.8,2.74-1.272,5.827-1.373,8.82-.513,1.328.125,1.531,1.267,1.24-.5-3.455,1.09-6.626,1.412-9.968Z" transform="translate(-195.608 -5427.11)"/><path class="ba" d="M349.578,5352.947l-3.871,5.074a2.784,2.784,0,0,0,2.655,1.176Q348.971,5356.072,349.578,5352.947Z" transform="translate(-245.388 -5307.661)"/><path class="d" d="M61.182,5143.7q.016,6.267.033,12.534a22.817,22.817,0,0,0,.042,11.415l8.887-1.259,2.649-.041c.621-1.433-.548-1.936-1.4-2.609a2.966,2.966,0,0,1-1.824-2.5c-.97-8.09-2.6-16.17.094-24.211,1.274-1.64,3.018-1.812,4.9-1.492,2.676,1.037-.069,3.021.791,4.365l5.163.022c2.936-8.208,1.744-10.6-5.733-11.541a11.605,11.605,0,0,0-3.232,1.478c-5.352-6.745-9-13.873-5.322-22.648-3.845,1.079-3.557,4.212-3.689,7.124-.141,3.1.542,6.319-1.311,9.189.147.247.294.493.433.744,2,1.608,2.914,3.5,1.7,5.995-1.618,3.306-1.215,6.9-1.516,10.382A25.31,25.31,0,0,1,61.182,5143.7Z" transform="translate(-9.811 -5104.684)"/><path class="bb" d="M124.02,5201.479l2.61-.076c2-1.777,3.255-3.7,1.236-6.237.011-.417.011-.835,0-1.251Z" transform="translate(-62.271 -5176.298)"/><path class="bc" d="M139.149,5133.751c1.168-3.267.928-5.633.312-9.07C138.316,5128.077,138.6,5130.445,139.149,5133.751Z" transform="translate(-74.37 -5119.109)"/><path class="bd" d="M9.164,5193.381c-8.675.89-9.4,1.879-7.911,10.318a42.217,42.217,0,0,1,.313,4.875c1.15,2.232-.558,6.907,4.88,5.474,1.4-1.045,1.429-2.568,1.173-4-1.028-5.757-1.306-11.269,4.192-15.292l-.029-.05A2.808,2.808,0,0,1,9.164,5193.381Z" transform="translate(39.644 -5175.857)"/><path class="g" d="M110.9,5337.7l2.454,1.347c2.2.629,3.607,2.306,5.172,3.772l2.627-1.286c.044-1.873-.411-3.923.214-5.586,3.144-8.374-.553-14.359-6.663-19.638a1.9,1.9,0,0,0-2.151.949C110.018,5323.913,108.322,5330.649,110.9,5337.7Z" transform="translate(-50.374 -5277.381)"/><path class="au" d="M96.363,5260.425c-3.4.744-2.27,3.453-2.449,5.534-.676,7.85.808,15.6,1.239,23.4,1.5.358,1.816-.6,1.866-1.7.323-7.081,1.9-13.97,3.284-20.89l2.507-1.282c3.91-2.063,5.333-4.137.028-6.241C100.881,5260.683,98.326,5259.009,96.363,5260.425Z" transform="translate(-37.259 -5230.254)"/><path class="be" d="M140.255,5201.108q-.619,3.119-1.237,6.237c8.726-.585,5.791,5.827,6.356,10.139C152.927,5209.035,151.562,5204.669,140.255,5201.108Z" transform="translate(-74.659 -5182.24)"/><path class="bf" d="M107.012,5302.478c-3.031,5.415-2.857,11.515-3.851,17.361-.3,1.785.453,3.8-1.3,5.234a2.548,2.548,0,0,0,2.634,1.224c.476-7.265.576-14.594,3.8-21.392Z" transform="translate(-43.968 -5265.973)"/><path class="bg" d="M52.642,5400.395q-.021-5.708-.042-11.416a79.478,79.478,0,0,0-2.519,21.408l1.275,1.282q.619,0,1.237,0C53.724,5407.918,50.018,5404.144,52.642,5400.395Z" transform="translate(-1.196 -5337.424)"/><path class="bh" d="M340.151,5578.2c2.073-2.779.959-5.934,1.1-8.94l-3.882,3.67c2.243,1.274,1.123,3.536,1.633,5.319Q339.577,5578.218,340.151,5578.2Z" transform="translate(-238.5 -5486.342)"/><path class="bi" d="M282.152,5549.491l-1.266-1.24c-1.585,1.287-1.56,2.566.02,3.838A2.769,2.769,0,0,0,282.152,5549.491Z" transform="translate(-190.872 -5468.985)"/><path class="bj" d="M76.722,5805.895c-1.791.386-3.455-1.636-5.3-.268-1.746,1.879-1.6,4.042-.994,6.28a3.594,3.594,0,0,0,2.4,2.2c1.185.126,2.257.009,2.777-1.268q-.018-.43-.035-.864C77.068,5810.15,78.767,5808.362,76.722,5805.895Z" transform="translate(-17.662 -5681.184)"/><path class="bk" d="M79.409,5849.361l-2.394.589c-3.257,3.625-3,7.359-.365,11.168l2.91-.057Q79.485,5855.213,79.409,5849.361Z" transform="translate(-21.467 -5717.707)"/><path class="bl" d="M155.466,5808.66l-3.8-.1c-2.941,2.725-2.245,5.432.041,8.132l2.516.707c1.281-1.527,1.293-3.36,1.3-5.192C155.434,5811.025,156,5809.833,155.466,5808.66Z" transform="translate(-83.497 -5684.003)"/><path class="bm" d="M111.74,5819.1c1.417,1.691,3.408,1.051,5.2,1.224,1.674-2.674.282-4.427-1.861-5.963-1.27-.57-2.548-1.255-3.82,0C110.619,5816.016,110.3,5817.643,111.74,5819.1Z" transform="translate(-51.283 -5688.211)"/><path class="bn" d="M131.08,5808.272c1.1,1.569,3.233,2.613,2.678,5.028.853.187,1.7.374,2.556.568-.811-2.7-.423-5.413-.042-8.126-.746-1.493-1.651.36-2.445-.111A3.88,3.88,0,0,0,131.08,5808.272Z" transform="translate(-68.102 -5681.187)"/><path class="bo" d="M104.482,5815.629q.176-2.462.353-4.925a.63.63,0,0,0-.14-1.016l-1.609-.237q-.578,3.041-1.154,6.081Z" transform="translate(-44.025 -5684.741)"/><path class="bp" d="M175.669,5822.728l-.046,6.262,2.3-1.331q.038-1.219.078-2.438C177.113,5824.489,178.2,5821.99,175.669,5822.728Z" transform="translate(-104.896 -5695.596)"/><path class="bq" d="M153.751,5903.769c.416,3.047,1.88,2.377,3.556.961a2.343,2.343,0,0,1-1.327-2.384c-1.468-1.4-1.705.39-2.436.9A.329.329,0,0,1,153.751,5903.769Z" transform="translate(-86.657 -5761.04)"/><path class="br" d="M153.543,5885.822l2.436-.9q0-2.023,0-4.044l-.87-.149Z" transform="translate(-86.657 -5743.615)"/><path class="bs" d="M115.614,5912.234c1.31,1.88,2.662,1.521,4.033.072C118.306,5912.148,117,5909.994,115.614,5912.234Z" transform="translate(-55.327 -5768.805)"/><path class="bt" d="M61.983,5854.987q.182-5.585.364-11.169l-1.583-1.52a1.607,1.607,0,0,0-1.476-.3,3.983,3.983,0,0,0-1.252.972c-.122.234-.24.471-.36.706a1.723,1.723,0,0,0,.417,1.439c-1.647,2.96-1.045,6.2-1.227,9.346Z" transform="translate(-6.8 -5711.575)"/><path class="i" d="M40.476,5843.127l.009-1.484c-1.1-2.333-2.717-2.721-4.838-1.246q-.055.809-.109,1.62C36.947,5843.4,38.817,5842.816,40.476,5843.127Z" transform="translate(10.816 -5709.583)"/><path class="i" d="M20.308,5904.761c1.27-.215,2.688,1.239,3.838-.328C22.6,5901.548,21.338,5901.865,20.308,5904.761Z" transform="translate(23.397 -5761.537)"/><path class="bu" d="M11.224,5810.1a8.123,8.123,0,0,1,4.839,1.247s.16-.021.16-.021a5.254,5.254,0,0,0,1.006-3.5c-.34-1.551-.819-3.029-2.308-3.937-1.626-1.066-3.267-1.625-4.969-.143-4.823-.05-4.049,3.172-3.738,6.121Q8.72,5809.986,11.224,5810.1Z" transform="translate(35.24 -5679.288)"/><path class="bv" d="M117.816,5802.588a10.1,10.1,0,0,0,.138,1.016l2.17,1.122a2.528,2.528,0,0,0,2.747-2.64C120.918,5799.68,119.388,5801.332,117.816,5802.588Z" transform="translate(-57.146 -5677.642)"/><path class="bw" d="M175.89,5811.171l2.332,2.494q.094-2.531.19-5.062l-1.327.093Z" transform="translate(-105.116 -5684.04)"/><path class="bx" d="M57.409,5804.125c.134,1.3-.345,2.8,1.261,3.614,1.158-.646,1.244-1.8,1.446-2.9q.094-.409.187-.817C59.292,5802.852,58.323,5802.778,57.409,5804.125Z" transform="translate(-7.249 -5679.519)"/><path class="by" d="M68.764,5814.636l1.342-.443q-.1-3.141-.2-6.281-.354.034-.709.058l-.546.164A10.209,10.209,0,0,0,68.764,5814.636Z" transform="translate(-16.142 -5683.47)"/><path class="z" d="M-142.838,5686.305c-1.235,4.6-2.714,9.194.22,13.725q.085-5.06.17-10.123Q-142.642,5688.106-142.838,5686.305Z" transform="translate(159.387 -5583.021)"/><path class="bz" d="M-134.921,5764.92c.167,2.116-.737,4.4,1.011,6.271q.192-3.1.387-6.2Z" transform="translate(151.691 -5647.958)"/><path class="ca" d="M-136.135,5819.007l-1.757-2.4c.189,3.388-.191,6.881,1.849,9.945q.544-.666,1.086-1.333A12.482,12.482,0,0,1-136.135,5819.007Z" transform="translate(154.073 -5690.656)"/><path class="cb" d="M-126.893,5910.792c-1.5,2.081-1.6,4.118.2,6.1q.122-1.869.245-3.738Q-126.672,5911.973-126.893,5910.792Z" transform="translate(145.927 -5768.45)"/><path class="z" d="M-149.746,5585.356a5.926,5.926,0,0,0-.5,5.671c.5,1.161.742-.447,1.044-.886Q-149.476,5587.749-149.746,5585.356Z" transform="translate(164.69 -5499.634)"/><path class="cc" d="M-163.854,5638.342c-.685,2.6-1,4.16.071,5.793C-162.839,5642.447-163.027,5640.871-163.854,5638.342Z" transform="translate(176.036 -5543.402)"/><path class="cd" d="M-156.277,5707.125c1.47-2.084.691-3.677.952-6.734C-157.058,5703.416-156.573,5705-156.277,5707.125Z" transform="translate(169.503 -5594.656)"/><path class="ce" d="M-171.359,5576.664a3.3,3.3,0,0,0,.123,4A3.244,3.244,0,0,0-171.359,5576.664Z" transform="translate(182.223 -5492.455)"/><path class="cf" d="M-7.432,5285.729c-4.3.852-3.324-3.448-5.13-5.031-.07,1.8-.044,3.655-2.625,3.784-.417-.669-.844-.642-1.278-.016q.683,1.3,1.367,2.6L-2.4,5287a2.935,2.935,0,0,0,2.661-1.25C-2.3,5283.689-4.86,5283.621-7.432,5285.729Z" transform="translate(53.772 -5247.982)"/><path class="g" d="M-16.465,5254.675q.639.027,1.278.016c-.522-3.34,1.211-6.951-1.259-10.058Q-16.455,5249.654-16.465,5254.675Z" transform="translate(53.772 -5218.192)"/><path class="ba" d="M374.285,5285.436c-1.533-1.331-3-2.7-2.625-4.986l-3.822,12.646C370.812,5291.206,370.03,5286.292,374.285,5285.436Z" transform="translate(-263.669 -5247.777)"/><path class="g" d="M25.807,5219.774l7.693.025c.448-4.347-.655-8.665,2.049-13.019,2.007-3.231.334-6.451-4.626-5.857-8.544.848-7.526,6.516-6.427,12.216C24.923,5215.354,25.37,5217.563,25.807,5219.774Z" transform="translate(20.533 -5182.028)"/><path class="be" d="M108.816,5260.172c2.195-.211,4.619.775,6.476-1.189C113.09,5259.154,110.69,5258.292,108.816,5260.172Z" transform="translate(-49.712 -5230.002)"/><path class="cg" d="M65.761,5815.688q-.057-3.252-.114-6.5c-1.415.878-1.059,2.274-1.087,3.557q.02,1.907.041,3.818Z" transform="translate(-13.14 -5684.522)"/></svg>