<svg xmlns="http://www.w3.org/2000/svg" xmlns:xlink="http://www.w3.org/1999/xlink" width="301" height="240" viewBox="0 0 301 240"><defs><style>.a{fill:#fff;stroke:#707070;}.b{clip-path:url(#a);}.c{fill:#f3e8d9;}.d{fill:#d62401;}.e{fill:#d62503;}.f{fill:#d62603;}.g{fill:#d72806;}.h{fill:#d72a07;}.i{fill:#592e1f;}.j{fill:#592f20;}.k{fill:#f4e9da;}.l{fill:#d52704;}.m{fill:#208639;}.n{fill:#d52603;}.o{fill:#d62704;}.p{fill:#1b8738;}.q{fill:#f2e9d9;}</style><clipPath id="a"><rect class="a" width="301" height="240" transform="translate(1 75)"/></clipPath></defs><g class="b" transform="translate(-1 -75)"><g transform="matrix(-0.946, 0.326, -0.326, -0.946, 3727.325, 4680.866)"><path class="c" d="M2112.863,5503.972a2.3,2.3,0,0,1,2.43,1.382c.747,1.349,1.721,1.469,2.954.734.321-.191.664-.344,1-.505,2.911-1.394,3.589-1.086,4.35,2.078.257,1.068.728,1.4,1.7.774.469-.305.933-.62,1.394-.937.938-.647,2.03-1.465,3.051-.673a3.748,3.748,0,0,1,1.093,3.373c-.237,3.416-1.62,6.5-2.67,9.678a105.031,105.031,0,0,0-3.832,16.485c-.872,5.479.247,10.891.37,16.335.092,4.111.047,8.226.014,12.338-.042,5.288-1,10.485-1.587,15.72-.666,5.9-1.948,11.761-1.049,17.756a12.306,12.306,0,0,1,.02,2.241c-.261,7.347.33,14.679.45,22.02a70.076,70.076,0,0,0,4.042,22.448,17.526,17.526,0,0,1,1.129,6.206,2.759,2.759,0,0,1-1.326,2.7,2.426,2.426,0,0,1-2.6-.562c-.1-.072-.2-.148-.3-.218-2.266-1.521-2.271-1.523-3.488,1.024a2.088,2.088,0,0,1-1.971,1.438c-1.275.012-1.859-.81-2.414-1.754-.268-.456-.125-1.314-.824-1.318s-.895.782-1.17,1.324a2.724,2.724,0,0,1-2.664,1.7c-1.25-.065-1.731-1.016-2.1-2.075-.21-.607-.209-1.507-1.113-1.533-.845-.024-1.289.7-1.665,1.336a7.731,7.731,0,0,1-1.4,1.966c-.711.634-1.459,1.324-2.47.958a2.42,2.42,0,0,1-1.422-2.243c-.041-.358-.091-.715-.167-1.307-1.319,1.04-1.459,3.064-3.26,3.231-2.1.2-2.4-1.593-3.088-2.964-.778.082-1.051.81-1.573,1.2-1.405,1.05-2.478.64-2.755-1.089-.076-.474.091-1.106-.527-1.258-.467-.114-.715.418-1.034.7-.187.164-.352.352-.531.526-1.607,1.569-2.273,1.466-3.383-.48-.261-.458-.311-1.239-1-1.192-.638.043-.774.754-.937,1.27a3.44,3.44,0,0,1-.9,1.395c-1.538,1.563-2.42,1.42-3.313-.551-.25-.551-.319-1.329-1.052-1.4s-.957.672-1.311,1.166a12.772,12.772,0,0,1-1.346,1.78c-1.05,1.022-2.566.878-3.07-.413-.677-1.733-1.359-1.175-2.215-.254-.339.365-.694.716-1.054,1.061-1.583,1.518-2.431,1.4-3.331-.6-.5-1.108-.879-1.227-1.638-.21a9.478,9.478,0,0,1-1.956,1.982c-1.321.966-2.233.688-2.824-.862-.562-1.475-1.114-1.23-1.84-.159a4.913,4.913,0,0,1-.958,1.13c-1.111.874-2.114.479-2.437-.9-.137-.585-.3-1.165-.521-2-1.172,1.284-2.107,2.423-3.164,3.436-1.475,1.414-2.136,1.113-2.771-.865-.668-2.082-.14-4.173.239-6.079a48.761,48.761,0,0,0-.508-21.722,32.063,32.063,0,0,1-.73-5.708c-.5-7.707-.342-15.426-.407-23.142-.067-8.012-1.072-15.978-1.251-24-.057-2.549.114-5.062.157-7.59.075-4.435-.839-8.758-1.322-13.13-.633-5.727-1.837-11.382-2.066-17.161a29.027,29.027,0,0,1,2.977-13.719,42.883,42.883,0,0,0,3.762-17.718c.009-.374-.016-.749.008-1.121.163-2.556,1.093-3.647,3.611-4.257a3.368,3.368,0,0,1,3.515,1.932c.609,1.1,1.436,1.1,2.292.341.792-.7,1.488-1.5,2.271-2.21,1.7-1.534,3.273-1.106,3.97,1.048a8.08,8.08,0,0,0,.76,2.473,24.5,24.5,0,0,1,3.609-2.819c1.185-.6,2.135-.611,2.6.916.637,2.078.66,2.071,2.42.648.145-.117.284-.243.434-.353,1.838-1.349,2.663-1.171,3.432.943.552,1.517,1.172,1.556,2.154.42a8.121,8.121,0,0,1,.967-.875c2.781-2.328,4.047-1.83,4.588,1.292.227,1.31.873,1.382,1.712.415.244-.281.479-.571.73-.847,2.329-2.555,2.872-2.562,5.162.026.739.835,1.421,1.086,2.347.241a24.135,24.135,0,0,1,2.772-2.205c1.733-1.164,2.727-.751,3.26,1.257.573,2.152.573,2.152,2.356.68.1-.079.187-.165.284-.243,2.882-2.329,3.5-2.129,4.288,1.4.337,1.5.92,1.75,2.206.859C2110.612,5505.718,2111.725,5504.828,2112.863,5503.972Zm-24.147,12.83c-10.51-.526-21.023-1.011-31.529-1.621-1.6-.093-2.232.416-2.444,1.89-1.135,7.887-3.152,15.592-4.9,23.349a48.768,48.768,0,0,0-.787,18.161,269.019,269.019,0,0,1,2.345,31.426c.359,11.383-.621,22.784.39,34.166q.784,8.836,1.364,17.689c.092,1.37.63,1.76,1.94,1.8,1.935.066,3.854-.045,5.782-.113,18.546-.658,37.1-.853,55.656-1.041,1.842-.019,2.385-.729,2.222-2.29-.437-4.206-.224-8.461-.994-12.643a112.59,112.59,0,0,1-1.395-28.648c.874-12.109,1.763-24.214,2.1-36.362.243-8.718-.569-17.422-.026-26.125.343-5.508.335-11.1,3.028-16.187,1.179-2.227,1.1-2.267-1.4-2.291C2109.611,5517.863,2099.162,5517.387,2088.716,5516.8Zm-4.954,129.8c10.713-.128,20.109-.6,29.511-.1a20.768,20.768,0,0,0,5.764-.41c.541-.125,1.471.1,1.431-.745a1.457,1.457,0,0,0-1.653-1.415c-1.306.054-2.614.069-3.918.146-5.482.323-10.983-.549-16.428-.1-14.346,1.184-28.716.635-43.07.988a5.057,5.057,0,0,0-2.2.313,1.3,1.3,0,0,0-.889,1.291c.076.64.721.578,1.2.595,1,.035,2,.081,2.988.029C2066.021,5646.688,2075.553,5646.839,2083.763,5646.6Zm32.459-129.988c2.177,0,4.357.072,6.527-.048.585-.032,1.767.071,1.629-1.033-.111-.894-1.06-.649-1.713-.667-3.36-.089-6.727-.053-10.078-.262q-15.558-.973-31.105-2.111c-6.09-.452-12.2-.02-18.283-.628-2.228-.224-4.451-.48-6.676-.731-.739-.083-1.477-.028-1.611.837-.141.9.594,1.108,1.313,1.208.308.043.617.078.926.113,6.313.719,12.648,1.058,19,1.207C2089.53,5514.812,2102.856,5516.147,2116.222,5516.613Z" transform="translate(-117.573 -142.17)"/><path class="d" d="M2033.058,5406.47c-1.138.855-2.251,1.746-3.42,2.557-1.286.892-1.87.639-2.206-.859-.793-3.525-1.406-3.726-4.288-1.4-.1.078-.187.164-.284.243-1.784,1.473-1.784,1.473-2.357-.679-.534-2.008-1.527-2.42-3.26-1.257a24.071,24.071,0,0,0-2.772,2.205c-.926.844-1.609.594-2.347-.242-2.29-2.588-2.833-2.581-5.162-.026-.251.275-.486.565-.73.847-.839.966-1.485.894-1.712-.416-.541-3.122-1.806-3.619-4.588-1.292a8.217,8.217,0,0,0-.967.875c-.982,1.136-1.6,1.1-2.154-.42-.769-2.114-1.594-2.292-3.432-.943-.15.11-.289.235-.434.353-1.76,1.422-1.782,1.429-2.42-.649-.468-1.526-1.418-1.517-2.6-.915a24.494,24.494,0,0,0-3.609,2.818,8.083,8.083,0,0,1-.76-2.473c-.7-2.153-2.273-2.582-3.97-1.047-.783.708-1.479,1.513-2.271,2.21-.857.754-1.683.759-2.292-.341a3.369,3.369,0,0,0-3.515-1.933,3.132,3.132,0,0,0-2.834-1.744c-5.255-.627-10.338-1.736-14.091-5.963-2.454-2.764-3.774-6.117-4.985-9.522-.708-1.991-1.257-4.04-2-6.017a16.6,16.6,0,0,0-10.132-9.825c-3.13-1.207-6.352-2.176-9.484-3.378-6.032-2.314-10.2-6.834-13.474-12.153a8.871,8.871,0,0,1-.341-7.791c.874-2.39,3.208-3.29,5.673-2.383a16,16,0,0,1,6.225,4.658c4.209,4.678,9.431,6.782,15.648,7.195,10.123.671,16.882,6.706,19.785,17.211,1.195,4.325,1.879,4.917,6.289,5.106a8.925,8.925,0,0,1,5.773,2.322c3.89,3.538,8.308,3.862,13.081,2.408a50.664,50.664,0,0,0,9.314-4.258c12.3-6.677,26.942-1.422,31.923,11.6,1.575,4.117,3.523,8.1,4.665,12.378C2032.794,5404.493,2032.889,5405.491,2033.058,5406.47Z" transform="translate(-37.768 -44.667)"/><path class="e" d="M1881.885,5286.843a16.136,16.136,0,0,0,2.581,11,1.417,1.417,0,0,1-.353,2c-.67.574-1.507.706-2.005.052-3.244-4.264-8.55-6.205-11.738-10.528a25.428,25.428,0,0,1-3.161-5.039,8.075,8.075,0,0,1,1.3-8.577c3.017-3.9,9.068-3.2,11.638,1.249C1881.819,5279.891,1881.744,5283.084,1881.885,5286.843Z" transform="translate(-8.398)"/><path class="f" d="M1853.092,5330.532a5.865,5.865,0,0,1,8.289-5.25,21.42,21.42,0,0,1,9.133,8.807c.391.689.923,1.549.332,2.261-.627.755-1.581.3-2.245-.07a5.547,5.547,0,0,0-4.261-.371,14.137,14.137,0,0,1-6.115.148C1855.1,5335.42,1853.056,5333.243,1853.092,5330.532Z" transform="translate(0 -32.239)"/><path class="g" d="M1979.647,5343.011a8.744,8.744,0,0,1-1.019,4.087c-1.253,1.974-3.524,1.977-4.566-.1a26.509,26.509,0,0,1-1.7-4.5,5.052,5.052,0,0,1,1.977-4.719,2.565,2.565,0,0,1,3.375.52A6.682,6.682,0,0,1,1979.647,5343.011Z" transform="translate(-74.594 -40.157)"/><path class="h" d="M1942.83,5327.959a2.138,2.138,0,0,1-2.34,2.282,2.021,2.021,0,0,1-2.233-2.333c.032-1.331.443-2.636,2.052-2.837C1941.581,5324.912,1942.833,5326.435,1942.83,5327.959Z" transform="translate(-53.306 -32.457)"/><path class="i" d="M2101.451,5541.614c10.445.585,20.895,1.061,31.358,1.164,2.5.024,2.574.063,1.4,2.291-2.693,5.092-2.685,10.68-3.029,16.187-.542,8.7.27,17.407.027,26.125-.339,12.148-1.228,24.253-2.1,36.362a112.58,112.58,0,0,0,1.395,28.648c.77,4.181.556,8.436.994,12.643.163,1.56-.381,2.271-2.222,2.29-18.555.188-37.11.383-55.656,1.041-1.928.068-3.847.179-5.782.114-1.311-.044-1.849-.434-1.94-1.8q-.594-8.851-1.364-17.69c-1.01-11.382-.03-22.782-.39-34.166a268.958,268.958,0,0,0-2.345-31.426,48.776,48.776,0,0,1,.787-18.161c1.75-7.757,3.767-15.462,4.9-23.349.212-1.475.84-1.983,2.444-1.891C2080.428,5540.6,2090.941,5541.088,2101.451,5541.614Zm1.427,123.778c4.594-.236,13.506.035,22.412-.153,3.948-.084,4.01-.08,3.639-3.991-.7-7.376-1.535-14.739-2.208-22.118-.844-9.246.759-18.4,1.183-27.6.677-14.683,1.635-29.359,1.327-44.069-.154-7.358-.5-14.713,2.484-21.7.46-1.076-.321-.916-.943-.919-3.24-.017-6.485.08-9.718-.08-16.293-.8-32.583-1.679-48.875-2.518-2.984-.154-3.055-.141-3.536,2.806-.791,4.85-1.409,9.724-2.577,14.512-1.607,6.592-3.159,13.172-2.4,20.094.456,4.147,1.147,8.263,1.567,12.4a320.576,320.576,0,0,1,1.421,37.508,312.845,312.845,0,0,0,1.391,35.088c.142,1.472.582,1.926,2.135,1.861C2079.641,5666.113,2089.106,5665.844,2102.878,5665.392Z" transform="translate(-130.308 -166.982)"/><path class="j" d="M2102.8,5886.716c-8.209.237-17.742.087-27.261.59-.993.053-1.993.006-2.988-.028-.479-.017-1.124.045-1.2-.595a1.3,1.3,0,0,1,.889-1.291,5.041,5.041,0,0,1,2.2-.313c14.355-.354,28.725.2,43.071-.989,5.445-.449,10.946.423,16.427.1,1.3-.076,2.613-.092,3.918-.146a1.457,1.457,0,0,1,1.653,1.415c.041.844-.89.619-1.431.744a20.786,20.786,0,0,1-5.763.411C2122.9,5886.117,2113.508,5886.588,2102.8,5886.716Z" transform="translate(-136.606 -382.284)"/><path class="i" d="M2139.583,5534.621c-13.366-.465-26.691-1.8-40.074-2.116-6.349-.149-12.685-.488-19-1.207-.309-.035-.618-.07-.926-.113-.72-.1-1.454-.3-1.313-1.208.135-.865.873-.921,1.611-.837,2.225.251,4.448.507,6.676.731,6.079.608,12.194.177,18.283.629q15.546,1.154,31.105,2.111c3.352.209,6.719.173,10.078.262.653.018,1.6-.226,1.713.667.138,1.1-1.044,1-1.629,1.033C2143.94,5534.693,2141.76,5534.621,2139.583,5534.621Z" transform="translate(-140.934 -160.178)"/><path class="k" d="M2106.543,5669.083c-13.772.453-23.237.722-32.7,1.118-1.554.065-1.993-.389-2.135-1.86a312.849,312.849,0,0,1-1.391-35.089,320.58,320.58,0,0,0-1.421-37.508c-.419-4.136-1.111-8.252-1.567-12.4-.761-6.921.792-13.5,2.4-20.093,1.168-4.788,1.786-9.663,2.577-14.513.48-2.947.552-2.96,3.535-2.806,16.292.839,32.582,1.714,48.876,2.518,3.233.16,6.478.063,9.718.08.622,0,1.4-.156.943.92-2.986,6.989-2.638,14.344-2.484,21.7.308,14.71-.65,29.386-1.327,44.069-.424,9.2-2.027,18.354-1.183,27.6.674,7.378,1.509,14.742,2.209,22.118.371,3.911.309,3.907-3.639,3.991C2120.049,5669.119,2111.138,5668.848,2106.543,5669.083Zm-4.026-83.476,1.566-.718c.63,4.234,1.215,8.476,1.9,12.7.559,3.428,1.247,6.833,1.867,10.251.25,1.38.606,2.193,2.21,1.075a10.33,10.33,0,0,1,4.933-1.524c1.352-.14,1.7-.828,1.364-2.018-.167-.595-.4-1.174-.611-1.754-2-5.4-4.317-10.69-5.515-16.366-.406-1.926-.57-3.937-1.619-5.685a15.5,15.5,0,0,0-1.668-8.4,6.428,6.428,0,0,0,.838-3.938c-.146-.875-.423-1.931-1.458-1.9-3.541.107-7.063-.687-10.594-.229-2.118.275-2.92,1.275-2.938,3.368a5.938,5.938,0,0,0,.445,2.914,37.99,37.99,0,0,0-1.022,9.179c-.573,3.3-1.137,6.6-1.723,9.89-.8,4.531-1.655,9.053-2.4,13.594-.077.474-.86,1.86.54,1.558,2.231-.481,3.863.538,5.568,1.535,1.149.672,1.608.536,1.671-.915.143-3.294.439-6.582.649-9.875.284-4.474,1.342-8.861,1.49-13.35l1.8.765c-2.711,7.981-2.2,16.287-2.867,24.991,3.314-3.2,6.458-3.019,9.764-1.05.224-2.755-.877-5.145-1.152-7.665C2104.959,5596.5,2104.365,5590.932,2102.517,5585.608Zm3.716,28.668c-.069-.3-.134-.605-.207-.906-.656-2.7-2-3.826-4.166-3.5a4.81,4.81,0,0,0-4.087,4.875,4.448,4.448,0,0,1-1.949.473c.022-2.487-2.044-3.525-3.47-5.008a3.121,3.121,0,0,0-3.628-.546c-1.219.458-1.146,1.653-1.093,2.723.282,5.718.543,11.438.875,17.154a105.611,105.611,0,0,0,1.991,17.22c.453,2.007,1.219,2.447,3.174,1.867,2.548-.757,3.946-2.708,4.137-5.775l1.287.037a8.355,8.355,0,0,0,.409,3.475c1.108,3.069,4.275,3.67,6.439,1.218a6.59,6.59,0,0,0,1.5-4.475l1.484-.121a14.863,14.863,0,0,0,.214,1.66c.465,1.931,2.778,3.438,5.4,3.56,1.772.081,2.88-.883,3.533-3.187a15.312,15.312,0,0,0,.58-4.982c-.375-7.2-.786-14.394-1.17-21.591-.14-2.606.181-5.228-.24-7.823-.278-1.713-.953-2.155-2.581-1.564-2.854,1.035-5.868,1.967-5.721,5.923Zm10.667,35.133a8.17,8.17,0,0,1-7.69-1.766c-.781-.639-.954-.235-1.353.318-2.743,3.8-5.548,4.018-8.924.718-.34-.333-.568-.839-1.215-.521-1.557.763-3.174,1.416-4.684,2.26-1.216.68-.9,1.5.172,2.051a9.874,9.874,0,0,0,4.939,1.487c4.469-.3,8.947.027,13.4-.376A5.558,5.558,0,0,0,2116.9,5649.409Zm-17.28-84.355c2.175-.142,4.347-.051,6.527-.232a2,2,0,0,0,2-1.761c.509-2.057-.094-3.116-2.243-3.4-4.125-.538-8.183.339-12.231.909-1.515.214-1.221,1.823-1.141,2.962.076,1.067.655,1.62,1.871,1.545C2096.135,5564.975,2097.88,5565.054,2099.62,5565.054Z" transform="translate(-133.973 -170.674)"/><path class="l" d="M2178.872,5720.287c-.147-3.956,2.867-4.889,5.721-5.923,1.628-.59,2.3-.148,2.581,1.564.421,2.6.1,5.217.24,7.823.385,7.2.8,14.393,1.171,21.591a15.316,15.316,0,0,1-.58,4.981c-.654,2.3-1.761,3.269-3.533,3.188-2.62-.121-4.932-1.629-5.4-3.559a14.707,14.707,0,0,1-.214-1.66c.962-.375,2.233-.091,2.547-1.669,1.174-5.89,2.567-11.735,3.476-17.679.378-2.473.313-2.695-2.212-2.707-1.078-.005-1.255-.338-1.155-1.266A4.419,4.419,0,0,0,2178.872,5720.287Z" transform="translate(-203.906 -275.976)"/><path class="m" d="M2148.284,5729.34a4.42,4.42,0,0,1,2.645,4.686c-.1.927.077,1.261,1.155,1.266,2.525.012,2.59.233,2.212,2.707-.909,5.943-2.3,11.788-3.476,17.678-.315,1.578-1.586,1.295-2.547,1.67l-1.484.12-8.347-.218-1.286-.037c-1.257.014-2.22-.224-2.58-1.736-1.431-6.017-2.957-12.011-4.459-18.012-.224-.9-.27-1.611.978-1.646.908-.025,1.021-.581.965-1.408-.176-2.574.664-3.811,3.109-4.833a4.453,4.453,0,0,0,1.949-.473,46.663,46.663,0,0,1,8.461-.471Zm-5.855,25.9c1.325,0,2.572-.034,3.816.009a2.077,2.077,0,0,0,2.441-1.979c.188-1.354.368-2.713.621-4.056.643-3.42,1.327-6.833,1.988-10.249.251-1.295-.2-1.774-1.582-1.591-1.957.259-2.272-.187-1.671-1.978.766-2.283.224-3.346-2.1-3.972a19.09,19.09,0,0,0-6.682-.41c-3.936.346-4.673,1.162-4.775,5.132-.023.873.024,1.648-1.207,1.56-.735-.053-.775.416-.634.987.924,3.741,1.782,7.5,2.788,11.22.463,1.711.386,3.925,1.772,4.949S2140.717,5755.047,2142.429,5755.236Z" transform="translate(-173.318 -285.029)"/><path class="n" d="M2130.085,5721.393c-2.445,1.021-3.285,2.258-3.109,4.833.056.828-.057,1.382-.965,1.408-1.248.035-1.2.75-.978,1.647,1.5,6,3.028,11.994,4.459,18.011.36,1.513,1.323,1.75,2.58,1.736-.192,3.067-1.589,5.019-4.137,5.775-1.955.58-2.721.14-3.174-1.867a105.578,105.578,0,0,1-1.991-17.22c-.332-5.716-.593-11.436-.875-17.154-.053-1.07-.125-2.265,1.093-2.723a3.12,3.12,0,0,1,3.628.546C2128.041,5717.867,2130.108,5718.905,2130.085,5721.393Z" transform="translate(-168.235 -276.846)"/><path class="f" d="M2170.443,5641.284c1.049,1.749,1.213,3.76,1.619,5.686,1.2,5.675,3.514,10.965,5.515,16.366.215.58.443,1.159.611,1.754.336,1.189-.011,1.878-1.364,2.018a10.33,10.33,0,0,0-4.933,1.524c-1.6,1.118-1.96.3-2.21-1.075-.62-3.417-1.308-6.823-1.867-10.251-.689-4.225-1.273-8.467-1.9-12.7Z" transform="translate(-195.801 -230.389)"/><path class="o" d="M2132.616,5646.39c-.147,4.489-1.206,8.876-1.49,13.35-.209,3.293-.506,6.581-.648,9.875-.063,1.451-.521,1.587-1.671.915-1.706-1-3.337-2.016-5.568-1.535-1.4.3-.618-1.084-.54-1.558.74-4.541,1.591-9.063,2.4-13.594.585-3.295,1.15-6.593,1.723-9.89.656.578,1.519.454,2.284.636C2130.433,5644.906,2131.777,5645.135,2132.616,5646.39Z" transform="translate(-168.573 -232.059)"/><path class="p" d="M2139.987,5630.67c-.838-1.255-2.182-1.483-3.515-1.8-.765-.182-1.627-.058-2.284-.636a37.99,37.99,0,0,1,1.022-9.179c4.564-.4,9.141.019,13.708-.216a15.5,15.5,0,0,1,1.669,8.4l-4.532,3.32-1.566.718a9.926,9.926,0,0,1-2.7.162Z" transform="translate(-175.945 -216.339)"/><path class="o" d="M2149.714,5652.242a9.944,9.944,0,0,0,2.7-.162c1.848,5.324,2.442,10.887,3.047,16.438.274,2.52,1.376,4.91,1.152,7.665-3.306-1.969-6.45-2.145-9.764,1.051C2147.519,5668.529,2147,5660.224,2149.714,5652.242Z" transform="translate(-183.869 -237.146)"/><path class="g" d="M2158.928,5819.136a5.558,5.558,0,0,1-5.352,4.171c-4.457.4-8.935.074-13.4.376a9.874,9.874,0,0,1-4.939-1.488c-1.075-.554-1.388-1.371-.172-2.05,1.51-.844,3.127-1.5,4.684-2.26.647-.317.875.189,1.216.521,3.376,3.3,6.181,3.083,8.924-.718.4-.553.572-.957,1.353-.318A8.171,8.171,0,0,0,2158.928,5819.136Z" transform="translate(-176.002 -340.401)"/><path class="f" d="M2149.879,5608.447c-4.567.234-9.144-.184-13.708.216a5.938,5.938,0,0,1-.445-2.914c.018-2.093.821-3.093,2.938-3.368,3.53-.458,7.053.335,10.594.229,1.036-.031,1.313,1.025,1.458,1.9A6.428,6.428,0,0,1,2149.879,5608.447Z" transform="translate(-176.905 -205.949)"/><path class="h" d="M2141.988,5587.834c-1.741,0-3.486-.079-5.219.026-1.216.075-1.794-.478-1.87-1.545-.081-1.139-.375-2.748,1.14-2.962,4.048-.57,8.107-1.447,12.232-.909,2.149.28,2.751,1.34,2.243,3.4a2,2,0,0,1-2,1.761C2146.335,5587.783,2144.164,5587.692,2141.988,5587.834Z" transform="translate(-176.341 -193.454)"/><path class="l" d="M2152.53,5805.216l8.347.218a6.589,6.589,0,0,1-1.5,4.475c-2.164,2.453-5.332,1.852-6.439-1.218A8.359,8.359,0,0,1,2152.53,5805.216Z" transform="translate(-187.407 -332.997)"/><path class="l" d="M2157.491,5721.256a46.663,46.663,0,0,0-8.461.471,4.81,4.81,0,0,1,4.088-4.875c2.165-.329,3.51.8,4.166,3.5C2157.357,5720.651,2157.422,5720.955,2157.491,5721.256Z" transform="translate(-185.231 -277.654)"/><path class="q" d="M2146.763,5759.114c-1.712-.189-3.823.657-5.223-.376s-1.309-3.238-1.772-4.949c-1.005-3.719-1.863-7.479-2.788-11.22-.141-.572-.1-1.04.634-.987,1.23.089,1.184-.687,1.207-1.56.1-3.971.839-4.786,4.775-5.132a19.09,19.09,0,0,1,6.682.41c2.321.625,2.862,1.689,2.1,3.972-.6,1.791-.286,2.237,1.671,1.978,1.385-.183,1.833.3,1.582,1.591-.661,3.416-1.345,6.828-1.988,10.249-.252,1.343-.433,2.7-.621,4.056a2.077,2.077,0,0,1-2.441,1.978C2149.335,5759.081,2148.088,5759.114,2146.763,5759.114Zm-1.136-6.773c-1.923,1.181-2.443,2.776-1.454,4.453.84,1.424,2.413,1.665,4.213.646,1.878-1.062,1.8-3.17-.188-5.046.159-1.139-.61-1.378-1.465-1.419C2145.816,5750.93,2145.631,5751.588,2145.626,5752.341Z" transform="translate(-177.652 -288.908)"/><path class="g" d="M2159.52,5781.782c1.988,1.876,2.066,3.983.188,5.046-1.8,1.019-3.373.778-4.213-.646-.99-1.677-.469-3.272,1.454-4.454C2157.778,5783.118,2158.65,5782.372,2159.52,5781.782Z" transform="translate(-188.974 -318.296)"/><path class="m" d="M2162.773,5779.492c-.87.591-1.742,1.336-2.571-.053,0-.753.189-1.41,1.106-1.366C2162.163,5778.114,2162.932,5778.354,2162.773,5779.492Z" transform="translate(-192.227 -316.007)"/></g></g></svg>