<svg xmlns="http://www.w3.org/2000/svg" xmlns:xlink="http://www.w3.org/1999/xlink" width="779.145" height="366" viewBox="0 0 779.145 366"><defs><style>.a{fill:none;}.b,.d{fill:#f3ad3d;}.c,.h{fill:#fff;}.d,.f,.i{font-size:25px;font-family:Flame-Regular, Flame;}.e,.f{fill:#e68a4a;}.g,.i{fill:#c6371e;}.h{stroke:#c6371e;stroke-width:2px;}.j,.k,.l,.m{stroke:none;}.k{fill:#f3ad3d;}.l{fill:#e68a4a;}.m{fill:#c6371e;}.n{filter:url(#i);}.o{filter:url(#g);}.p{filter:url(#e);}.q{filter:url(#c);}.r{filter:url(#a);}</style><filter id="a" x="0" y="89" width="338" height="68" filterUnits="userSpaceOnUse"><feOffset dy="3" input="SourceAlpha"/><feGaussianBlur stdDeviation="3" result="b"/><feFlood flood-opacity="0.161"/><feComposite operator="in" in2="b"/><feComposite in="SourceGraphic"/></filter><filter id="c" x="414" y="298" width="294.45" height="68" filterUnits="userSpaceOnUse"><feOffset dy="3" input="SourceAlpha"/><feGaussianBlur stdDeviation="3" result="d"/><feFlood flood-opacity="0.161"/><feComposite operator="in" in2="d"/><feComposite in="SourceGraphic"/></filter><filter id="e" x="12" y="273" width="328.075" height="68" filterUnits="userSpaceOnUse"><feOffset dy="3" input="SourceAlpha"/><feGaussianBlur stdDeviation="3" result="f"/><feFlood flood-opacity="0.161"/><feComposite operator="in" in2="f"/><feComposite in="SourceGraphic"/></filter><filter id="g" x="441" y="6" width="338" height="68" filterUnits="userSpaceOnUse"><feOffset dy="3" input="SourceAlpha"/><feGaussianBlur stdDeviation="3" result="h"/><feFlood flood-opacity="0.161"/><feComposite operator="in" in2="h"/><feComposite in="SourceGraphic"/></filter><filter id="i" x="485" y="176.999" width="294.145" height="68" filterUnits="userSpaceOnUse"><feOffset dy="3" input="SourceAlpha"/><feGaussianBlur stdDeviation="3" result="j"/><feFlood flood-opacity="0.161"/><feComposite operator="in" in2="j"/><feComposite in="SourceGraphic"/></filter></defs><g transform="translate(-1052.281 -4008)"><rect class="a" width="473" height="342" transform="translate(1204.718 4020)"/><path class="b" d="M-141.962,78.044A162,162,0,0,1-139.44-82.465,162,162,0,0,1,0-162v32A130,130,0,0,0-111.9-66.175a130,130,0,0,0-2.023,128.8Z" transform="translate(1394.219 4170)"/><g transform="translate(662.281 3569.174)"><g class="r" transform="matrix(1, 0, 0, 1, 390, 438.83)"><g class="c" transform="translate(9 95)"><path class="j" d="M 319 49 L 1 49 L 1 0.9999980926513672 L 319 0.9999980926513672 L 319 49 Z"/><path class="k" d="M 2 1.999996185302734 L 2 48 L 318 48 L 318 1.999996185302734 L 2 1.999996185302734 M 0 -3.814697265625e-06 L 320 -3.814697265625e-06 L 320 50 L 0 50 L 0 -3.814697265625e-06 Z"/></g></g><text class="d" transform="translate(420 569)"><tspan x="0" y="0">33% Standards Execution</tspan></text></g><path class="e" d="M141.962,78.044A162,162,0,0,1,0,162V130A130,130,0,0,0,113.92,62.628Z" transform="translate(1425.219 4200)"/><g transform="translate(1076 3767.314)"><g class="q" transform="matrix(1, 0, 0, 1, -23.72, 240.69)"><g class="c" transform="translate(423 304)"><path class="j" d="M 275.449951171875 49 L 1.000011324882507 49 L 1.000011324882507 1 L 275.449951171875 1 L 275.449951171875 49 Z"/><path class="l" d="M 2 2 L 2 48 L 274.449951171875 48 L 274.449951171875 2 L 2 2 M 0 0 L 276.449951171875 0 L 276.449951171875 50 L 0 50 L 0 0 Z"/></g></g><text class="f" transform="translate(433.282 580.686)"><tspan x="0" y="0">17% Emp. Turnover</tspan></text></g><path class="e" d="M0,162A162,162,0,0,1-141.962,78.044l28.042-15.416A130,130,0,0,0,0,130Z" transform="translate(1405.219 4200)"/><g transform="translate(674.434 3742.314)"><g class="p" transform="matrix(1, 0, 0, 1, 377.85, 265.69)"><g class="c" transform="translate(21 279)"><path class="j" d="M 309.0753173828125 49 L 1.000004887580872 49 L 1.000004887580872 1 L 309.0753173828125 1 L 309.0753173828125 49 Z"/><path class="l" d="M 2 2 L 2 48 L 308.0753173828125 48 L 308.0753173828125 2 L 2 2 M 0 0 L 310.0753173828125 0 L 310.0753173828125 50 L 0 50 L 0 0 Z"/></g></g><text class="f" transform="translate(428.848 580.686)"><tspan x="0" y="0">17% Training Execution</tspan></text></g><path class="g" d="M0-162A162,162,0,0,1,159.131-30.356l-31.433,6A130,130,0,0,0,0-130Z" transform="translate(1430.219 4170)"/><g transform="translate(1103.043 3475)"><g class="o" transform="matrix(1, 0, 0, 1, -50.76, 533)"><g class="h" transform="translate(450 12)"><rect class="j" width="320" height="50"/><rect class="a" x="1" y="1" width="318" height="48"/></g></g><text class="i" transform="translate(433.238 581)"><tspan x="0" y="0" xml:space="preserve">22%  Guest Satisfaction</tspan></text></g><path class="g" d="M159.131-30.356a162,162,0,0,1-17.169,108.4L113.92,62.628A130,130,0,0,0,127.7-24.36Z" transform="translate(1432.219 4180)"/><g transform="translate(1146.438 3646.044)"><g class="n" transform="matrix(1, 0, 0, 1, -94.16, 361.96)"><g class="c" transform="translate(494 183)"><path class="j" d="M 275.1445617675781 49 L 1.000015616416931 49 L 1.000015616416931 1 L 275.1445617675781 1 L 275.1445617675781 49 Z"/><path class="m" d="M 1.999969482421875 2 L 1.999969482421875 48 L 274.1445007324219 48 L 274.1445007324219 2 L 1.999969482421875 2 M -3.0517578125e-05 0 L 276.1445007324219 0 L 276.1445007324219 50 L -3.0517578125e-05 50 L -3.0517578125e-05 0 Z"/></g></g><text class="i" transform="translate(426.844 580.955)"><tspan x="0" y="0">11% Speed of Service</tspan></text></g></g></svg>