<svg xmlns="http://www.w3.org/2000/svg" width="68" height="49" viewBox="0 0 68 49">
  <g id="PLK_logo" data-name="PLK logo" transform="translate(-118.528 -13.146)">
    <path id="Path_14715" data-name="Path 14715" d="M29.272,4.907a17.431,17.431,0,0,0-24.249,0,16.479,16.479,0,0,0,0,23.691,17.435,17.435,0,0,0,24.249,0,16.483,16.483,0,0,0,0-23.691ZM17.146,32.75a16.189,16.189,0,0,1-16.375-16,16.19,16.19,0,0,1,16.375-16,16.189,16.189,0,0,1,16.375,16A16.189,16.189,0,0,1,17.146,32.75ZM8.219,8.763l.541.4L7.471,10.835,4.945,8.979l.429-.557L7.358,9.881ZM10.088,8.1a1.41,1.41,0,0,0,.162-2.157,1.487,1.487,0,0,0-2.19-.325A1.41,1.41,0,0,0,7.9,7.773,1.488,1.488,0,0,0,10.088,8.1ZM8.482,6.132c.363-.284.8-.2,1.18.264s.365.9,0,1.183-.8.208-1.18-.264S8.119,6.414,8.482,6.132Zm4.887-1.265A1.154,1.154,0,0,1,12.7,6.573a1.2,1.2,0,0,1-1.727-.7l-.734-1.675.656-.275.686,1.57c.231.527.49.626.852.474.341-.142.469-.4.234-.933L11.98,3.463l.656-.275Zm1.794.939-.645-3.023-.7.142.645,3.023ZM16.2,4.679a.881.881,0,0,0,.686.348c.231-.005.367-.121.363-.27s-.114-.227-.378-.291l-.309-.076c-.572-.14-.848-.442-.861-.931-.015-.564.436-.93,1.068-.946a1.081,1.081,0,0,1,1.066.651l-.508.4a.569.569,0,0,0-.539-.4c-.24.005-.376.115-.372.266s.084.232.3.284l.341.083c.6.153.915.408.928.885.016.578-.425.986-1.115,1a1.454,1.454,0,0,1-1.222-.573Zm3.556-1.9-.7-.108-.49,3.052.7.108Zm1.122,2.75-.441.564-.694-.254,2.1-2.534.761.279L22.489,6.84,21.8,6.588l.044-.71Zm1-.319.065-1.041L21.3,5Zm2.7.664L24.3,8.1l.628.452L26.8,6.07l-.552-.4L24.975,7.359l.367-2.338-.628-.452L22.838,7.054l.552.4Zm1.792,3.27-.679.252-.454-.573,3.147-1.075.5.628-1.852,2.707-.454-.573L27,9.93Zm1.021.243.616-.852-1,.371ZM9.937,25.274l-1.5.225.792-.852L8.7,24.179,6.576,26.464l.528.468.663-.711.454-.062-.378,1.428.617.55.516-2.083,1.594-.218Zm.194,3.843-.616-.353,1.6-2.663.616.353Zm1.941-1.694.81.273-.812,2.294.674.227.812-2.292.812.273.222-.626-2.3-.777Zm3.41,1.826c-.051.6.211.942.63.976.347.028.53-.156.661-.479l.672.2a1.26,1.26,0,0,1-1.387.938,1.414,1.414,0,0,1-1.322-1.7,1.447,1.447,0,0,1,1.585-1.467,1.075,1.075,0,0,1,1.11,1.2L16.745,29c0-.39-.163-.6-.478-.626C15.848,28.343,15.534,28.645,15.483,29.248Zm4.387-1.769.229,1.143-1.1.209-.227-1.143-.7.133.6,3.03.7-.133-.247-1.238,1.1-.209.247,1.238.7-.133-.6-3.03Zm2.844.953.263.522,1.273-.612.3.594-1.912.919-1.4-2.771,1.889-.908.3.594-1.248.6.236.467,1.11-.534.3.594Zm2.375-3.815,1.424,1.568-2.264-.839-.585.507,2.1,2.31.514-.445-1.331-1.466,2.172.736.585-.506-2.1-2.31Zm-22.2-7.576V16.7l.536-.271h.329v2.207h-.51V17.04H2.887ZM4.876,16.4a.731.731,0,0,0-.794.77.632.632,0,0,0,.636.713.582.582,0,0,0,.5-.264c0,.4-.158.58-.361.58a.236.236,0,0,1-.258-.183l-.452.09a.652.652,0,0,0,.71.564c.445,0,.877-.305.877-1.173C5.731,16.713,5.4,16.4,4.876,16.4Zm0,1.04a.287.287,0,1,1,.291-.287A.269.269,0,0,1,4.876,17.435Zm24.459-.548h-.868v-.46h1.4v.435l-.71,1.773h-.536Zm1.382,1.274.441-.451a.977.977,0,0,0,.356-.7.619.619,0,0,0-.7-.616.84.84,0,0,0-.8.536l.381.28a.428.428,0,0,1,.4-.344c.142,0,.223.064.223.2,0,.163-.194.355-.371.527-.051.05-.1.1-.143.146l-.43.458v.442h1.456v-.474h-.808ZM9.53,16.046,7.88,14.1c2.524-2.977,4.711-2.862,5.926-1.811s.972,2.459.681,3.875,0,2.18.83,2.275c.746.085,1.311-.326,1.805-1.316a8.6,8.6,0,0,0,.4-3.419c0-.186,0-.362,0-.523,0-.506,0-1.3,0-2.03,0-.52,0-1,0-1.313a1.666,1.666,0,0,1-1.324.087l-.062-.02a1.253,1.253,0,0,1-.8-1.3.939.939,0,0,1,1.16-.839.964.964,0,0,1,.568.552,1.065,1.065,0,0,1,.879-.415c.708.007,1.175.958,1.175.958s0,0-.005,0l1.84-.713-.32,1.144.857.342-.587.53c.819.477.683,1.368-.018,1.542l-.02.005a57.179,57.179,0,0,1,2.61,5.333c1.818,4.648-2.268,7.411-5.157,7.636l-.169,1.758H16.889l-.174-1.8c-.122-.014-.243-.032-.372-.055a6.076,6.076,0,0,1-3.9-2.223,4.78,4.78,0,0,1-.723-3.135,7.625,7.625,0,0,1,.145-.8c.209-.967.463-2.147-.372-2.8C10.413,14.779,9.53,16.046,9.53,16.046ZM19.809,9.755a.412.412,0,0,0-.536-.2.4.4,0,0,0-.145.543.412.412,0,0,0,.536.2A.391.391,0,0,0,19.809,9.755Z" transform="translate(136.354 13.146)" fill="#fff" fill-rule="evenodd"/>
    <g id="Group_13628" data-name="Group 13628" transform="translate(118.528 51.31)">
      <path id="Path_14716" data-name="Path 14716" d="M202.807,13.7h3.34V10.888l3.906-7.375h-3.547L204.5,7.828l-1.923-4.314h-3.481l3.716,7.369Z" transform="translate(-158.997 -2.994)" fill="#fff"/>
      <path id="Path_14717" data-name="Path 14717" d="M4.905.949C3.707.9,1.669,1,.8,1.069L.873,3.646l.834-.054v8.037H4.916V9.621C9.6,9.4,10.7,6.908,10.7,5.155,10.691,2.664,8.654,1.123,4.905.949Zm.005,6.17V3.608c2.043.1,2.533.966,2.533,1.677C7.444,6.289,6.769,7.081,4.911,7.119Z" transform="translate(-0.797 -0.935)" fill="#fff"/>
      <path id="Path_14718" data-name="Path 14718" d="M252.187,1.627a5.074,5.074,0,0,0-5.241,5.318,5.155,5.155,0,0,0,5.541,5.378,6.555,6.555,0,0,0,3.759-1.026l-1.155-2.366a4.446,4.446,0,0,1-2.468.749,2.254,2.254,0,0,1-2.392-1.666h6.821a8.834,8.834,0,0,0,.109-1.433C257.14,4.4,255.979,1.627,252.187,1.627ZM250.2,5.86a2,2,0,0,1,2-1.731,1.755,1.755,0,0,1,1.88,1.731Z" transform="translate(-197.176 -1.488)" fill="#fff"/>
      <path id="Path_14719" data-name="Path 14719" d="M108.036,1.461c-1.188-.054-3.2.054-4.065.119l.071,2.556.823-.049v7.955h3.176V10.057c4.642-.222,5.726-2.686,5.726-4.423C113.763,3.16,111.747,1.635,108.036,1.461Zm0,6.11V4.1c2.021.092,2.512.955,2.512,1.661C110.548,6.752,109.878,7.534,108.036,7.572Z" transform="translate(-83.111 -1.343)" fill="#fff"/>
      <path id="Path_14720" data-name="Path 14720" d="M304.011,6c-.572-.228-1.259-.483-1.711-.689s-.594-.4-.594-.7c0-.4.414-.619.942-.619a2.667,2.667,0,0,1,2,.977l1.776-1.84a4.519,4.519,0,0,0-3.743-1.666c-2.261,0-4.032,1.085-4.032,3.234,0,1.693.823,2.507,2.414,3.2.452.2,1.057.369,1.509.559.4.168.643.342.643.667,0,.3-.262.543-1.03.543a5.009,5.009,0,0,1-2.457-.76l-1.079,2.2a5.968,5.968,0,0,0,3.541,1.047c1.972,0,4.086-.852,4.086-3.137A3.107,3.107,0,0,0,304.011,6Z" transform="translate(-238.43 -1.359)" fill="#fff"/>
      <path id="Path_14721" data-name="Path 14721" d="M56.526,1.951A5.271,5.271,0,1,0,61.919,7.22,5.237,5.237,0,0,0,56.526,1.951Zm.027,7.711A2.312,2.312,0,0,1,54.216,7.2a2.341,2.341,0,1,1,4.675,0A2.315,2.315,0,0,1,56.553,9.662Z" transform="translate(-40.954 -1.746)" fill="#fff"/>
      <path id="Path_14722" data-name="Path 14722" d="M158.9,1.627a5.074,5.074,0,0,0-5.241,5.318c0,3.082,2.021,5.378,5.568,5.378a6.518,6.518,0,0,0,4.086-1.243L162.061,8.8a4.636,4.636,0,0,1-2.7.885,2.245,2.245,0,0,1-2.424-1.666h6.827a8.337,8.337,0,0,0,.1-1.433C163.854,4.4,162.693,1.627,158.9,1.627ZM156.913,5.86a2,2,0,0,1,2-1.731,1.754,1.754,0,0,1,1.88,1.731Z" transform="translate(-122.752 -1.488)" fill="#fff"/>
    </g>
  </g>
</svg>
