<svg xmlns="http://www.w3.org/2000/svg" xmlns:xlink="http://www.w3.org/1999/xlink" width="34" height="34" viewBox="0 0 34 34">
  <defs>
    <clipPath id="clip-path">
      <path id="path18" d="M0-47.5H34v34H0Z" transform="translate(0 47.5)"/>
    </clipPath>
  </defs>
  <g id="success_alert_" data-name="success alert " clip-path="url(#clip-path)">
    <g id="g20" transform="translate(0.895 0.895)">
      <path id="path22" d="M-12.789-11.368a3.579,3.579,0,0,1-3.579,3.579H-41.421A3.579,3.579,0,0,1-45-11.368V-36.421A3.579,3.579,0,0,1-41.421-40h25.053a3.579,3.579,0,0,1,3.579,3.579Z" transform="translate(45 40)" fill="#408441"/>
    </g>
    <g id="g24" transform="translate(7.158 7.158)">
      <path id="path26" d="M-5.329-7.816v-8.053H.934L-8.908-27.5-18.75-15.868h6.263v8.053Z" transform="translate(18.75 27.5)" fill="#fff"/>
    </g>
  </g>
</svg>
