<svg xmlns="http://www.w3.org/2000/svg" xmlns:xlink="http://www.w3.org/1999/xlink" width="26.333" height="22.432" viewBox="0 0 26.333 22.432"><defs><style>.a{fill:#7d7f7d;}.b{clip-path:url(#a);}</style><clipPath id="a"><path class="a" d="M14.471,22.432H11.863a1.84,1.84,0,0,1-1.646-1.982,1.84,1.84,0,0,1,1.646-1.982h2.608a1.84,1.84,0,0,1,1.646,1.982A1.84,1.84,0,0,1,14.471,22.432ZM20.3,13.243H6.035a1.84,1.84,0,0,1-1.646-1.982A1.84,1.84,0,0,1,6.035,9.279H20.3a1.84,1.84,0,0,1,1.646,1.982A1.84,1.84,0,0,1,20.3,13.243Zm4.389-9.279H1.646A1.84,1.84,0,0,1,0,1.982,1.84,1.84,0,0,1,1.646,0H24.688a1.84,1.84,0,0,1,1.646,1.982A1.84,1.84,0,0,1,24.688,3.964Z" transform="translate(0 0)"/></clipPath></defs><g transform="translate(-1.333 -3.333)"><g transform="translate(1.333 3.333)"><path class="a" d="M14.471,22.432H11.863a1.84,1.84,0,0,1-1.646-1.982,1.84,1.84,0,0,1,1.646-1.982h2.608a1.84,1.84,0,0,1,1.646,1.982A1.84,1.84,0,0,1,14.471,22.432ZM20.3,13.243H6.035a1.84,1.84,0,0,1-1.646-1.982A1.84,1.84,0,0,1,6.035,9.279H20.3a1.84,1.84,0,0,1,1.646,1.982A1.84,1.84,0,0,1,20.3,13.243Zm4.389-9.279H1.646A1.84,1.84,0,0,1,0,1.982,1.84,1.84,0,0,1,1.646,0H24.688a1.84,1.84,0,0,1,1.646,1.982A1.84,1.84,0,0,1,24.688,3.964Z" transform="translate(0 0)"/></g></g></svg>