<svg xmlns="http://www.w3.org/2000/svg" width="18.234" height="20" viewBox="0 0 18.234 20"><defs><style>.a{fill:#7d7f7d;}</style></defs><g transform="translate(-11 -9)"><path class="a" d="M76.008,101.16c.317.455.223.076.223,9.141a1,1,0,0,0,1.594.79c2.815-2.1,3.378-2.283,3.378-3.266,0-6.606-.078-6.234.223-6.664L86,95H71.436Z" transform="translate(-58.601 -82.288)"/><path class="a" d="M43.049.5a.942.942,0,0,0-.836-.5H25.872A.934.934,0,0,0,25.1,1.469c0,.006-.05-.066.794,1.07h16.3C42.91,1.571,43.391,1.152,43.049.5Z" transform="translate(-13.927 9)"/></g></svg>