<svg xmlns="http://www.w3.org/2000/svg" width="13.918" height="24.898" viewBox="0 0 13.918 24.898"><defs><style>.a{fill:#7d7f7d;}</style></defs><g transform="translate(-6.383 -1.995)"><path class="a" d="M10.492,24.9a.671.671,0,0,1-.133-.013h-6.8a.67.67,0,0,1,0-1.313h6.8a.671.671,0,0,1,.689.284.669.669,0,0,1-.555,1.042ZM6.964,21.69H6.959a.674.674,0,0,1-.578-.328l-.045-.077C4.85,18.744,0,10.2,0,6.959a6.959,6.959,0,1,1,13.918,0c0,3.652-6.322,14.3-6.386,14.4A.658.658,0,0,1,6.964,21.69ZM6.955,4.647a2.307,2.307,0,1,0,.884.177A2.292,2.292,0,0,0,6.955,4.647Z" transform="translate(6.383 1.995)"/></g></svg>