<svg xmlns="http://www.w3.org/2000/svg" xmlns:xlink="http://www.w3.org/1999/xlink" width="150" height="150" viewBox="0 0 150 150"><defs><style>.a{fill:#fff;}.b{clip-path:url(#a);}</style><clipPath id="a"><rect class="a" width="150" height="150"/></clipPath></defs><g class="b"><path class="a" d="M28.015,55.645a5.958,5.958,0,0,0-1.422.237c-.119,0-.237,0-.237.118-.474.118-.948.237-1.541.355-.119,0-.237.118-.356.118s-.356.118-.474.118l-.474-.474c-.119-.118-.119-.237-.237-.237-.237-.355-.593-.71-.83-1.065-.355-.474-.711-.829-1.067-1.3-.711-.829-1.422-1.776-2.252-2.6a1.639,1.639,0,0,0-1.3-.71,2.318,2.318,0,0,0-.83.118c-.237,0-.474.118-.83.118a11.113,11.113,0,0,0-1.9.474,18.16,18.16,0,0,1-2.963.71l-1.778.355-1.067.237c-1.185.237-2.371.592-3.556.71a6.8,6.8,0,0,0-1.66.474,7.565,7.565,0,0,1-.83.237,11.666,11.666,0,0,0-1.9.592,1.479,1.479,0,0,0,0,2.368.436.436,0,0,0,.356.118c-.237.118-.356.118-.474.355a1.613,1.613,0,0,0-.237,1.421,3.155,3.155,0,0,0,.83,1.658c.593.592,1.067,1.3,1.66,2.013a20.225,20.225,0,0,0,1.3,1.657,22.289,22.289,0,0,1,1.9,2.723,24.522,24.522,0,0,0,2.015,2.841,6.211,6.211,0,0,0,1.3,1.184c.948.947,2.015,1.894,2.134,3.078A9.845,9.845,0,0,1,10.234,77.9a8.983,8.983,0,0,0-.474,1.3,5.943,5.943,0,0,1-.593,1.539A64.477,64.477,0,0,0,6.2,87.255c-.356.947-.711,1.894-1.067,2.723a1.7,1.7,0,0,0,.237,1.776,1.078,1.078,0,0,0,.948.474,1.506,1.506,0,0,0,.711-.118.436.436,0,0,0,.356-.119,7.121,7.121,0,0,0,2.371-.829,5.875,5.875,0,0,1,1.541-.474,2.2,2.2,0,0,0,.83-.237,10.264,10.264,0,0,0,2.015-.829c.356-.118.711-.355,1.067-.474l.711-.237c2.252-.829,4.5-1.657,6.757-2.249A3.134,3.134,0,0,0,24.7,85.005a2.611,2.611,0,0,0,0-1.894,1.5,1.5,0,0,0-1.185-.829,1.07,1.07,0,0,0-.593.118,1.841,1.841,0,0,0-.711.947c-.118.237-.118.355-.237.474a3.949,3.949,0,0,1-1.778.592,4.217,4.217,0,0,0-1.185.237c-1.185.355-2.252.829-3.438,1.184l-3.2,1.421c-1.185.474-2.252,1.065-3.438,1.421a34.06,34.06,0,0,1,1.541-3.67c.593-1.539,1.3-3.2,1.9-4.736a29.609,29.609,0,0,0,.83-3.078l.356-1.421.356-1.065a4.166,4.166,0,0,0,.356-2.96,2.8,2.8,0,0,0-1.3-1.539l-.356-.355-1.9-1.894c-.237-.355-.474-.592-.711-.947s-.474-.592-.711-.947l-.711-.71a4.087,4.087,0,0,1-.948-1.066c-.593-.829-1.185-1.539-1.778-2.249-.356-.474-.83-.947-1.185-1.421a1.635,1.635,0,0,1-.356-.474A3.771,3.771,0,0,1,3.6,59.2l-.237-.355a9.279,9.279,0,0,0-1.185-1.776c-.119-.118-.237-.237-.356-.237.474-.118,1.067-.355,1.541-.474A4.723,4.723,0,0,1,3.833,56c2.252-.71,4.623-1.3,6.875-1.776,1.185-.237,2.489-.592,3.675-.829.948-.237,1.66-.355,2.371-.474h.118c.118,0,.237,0,.356.355,0,.118.119.118.237.237.948,1.065,1.9,2.131,2.608,2.96a1.633,1.633,0,0,1,.356.474,4.548,4.548,0,0,0,1.3,1.3,1.505,1.505,0,0,0,.711.118.436.436,0,0,1,.356.118c.237,0,.356.118.593.118h.356A11.264,11.264,0,0,0,27.9,57.539c.474-.237,1.067-.474,1.067-.947a.869.869,0,0,0-.237-.71A1,1,0,0,0,28.015,55.645Z" transform="translate(-0.04 25.099)"/><path class="a" d="M86.963,52.927a7.531,7.531,0,0,1,.83-.237c.356-.118,1.3-.355,1.66.355a.709.709,0,0,1-.356.947c-.118.118-.356.118-.474.237H88.5l-.474.237c-.711.237-.119.118-.83.355s-1.185.355-1.9.592a17.307,17.307,0,0,0-2.252.829c-.118.118,0,0-2.015.355-.118,0-.356.118-.474,0a1.182,1.182,0,0,1-.474-.592,1.038,1.038,0,0,1-.119-.829.9.9,0,0,1,.474-.237c1.422-.474-.237.237,1.067-.474a3.044,3.044,0,0,1,1.422-.592c.356-.118.711-.118,1.067-.237.237-.118.474-.118.711-.237.948-.237.593,0,1.3-.237A1.838,1.838,0,0,0,86.963,52.927Z" transform="translate(40.111 26.278)"/><path class="a" d="M113.38,44.982c0,.118-.118.355-.118.474-.593,1.776-1.3,3.433-1.9,5.209a101.194,101.194,0,0,1-6.875,16.1c-.593,1.065-1.067,2.131-1.66,3.315A9.127,9.127,0,0,1,100.34,72.8a1.91,1.91,0,0,1-.83.474h-.237a.974.974,0,0,1-.83.119c-.948-.119-1.422-1.421-1.659-2.249,0-.118-.119-.355-.119-.474-.355-1.066-.711-2.013-1.067-3.078,0-.119-.118-.237-.118-.474-.119-.237-.119-.474-.237-.71a2.476,2.476,0,0,0-.474-.71,1.636,1.636,0,0,1-.356-.474,2.145,2.145,0,0,1-.355-1.539,1.006,1.006,0,0,1,.355-.592.889.889,0,0,1,.593-.118,1.025,1.025,0,0,1,.711.355,3.224,3.224,0,0,1,.711,1.421c.118.237.118.355.237.474a15.446,15.446,0,0,1,.948,2.486,6.9,6.9,0,0,0,.948,2.131c.237.355.593.947,1.185.829.711-.237,1.185-1.3,1.422-1.894.593-1.3,1.3-2.6,1.9-3.907,1.185-2.6,3.2-6.156,4.267-8.879a64.915,64.915,0,0,0,2.845-8.051c.237-1.184.83-2.841.593-4.025a4.982,4.982,0,0,0-2.015-2.131,31.3,31.3,0,0,0-4.5-2.131c-3.2-1.3-6.4-2.6-9.6-4.025a50.985,50.985,0,0,0-8.3-3.433,2.645,2.645,0,0,0-1.66,0c-1.067.474.119,2.368.474,3.078A10.216,10.216,0,0,1,86,37.761c0,.118.119.355.119.474a3.493,3.493,0,0,1,.237,1.539c-.237,1.657-3.912,1.657-5.216,1.776-3.082.237-4.149,1.776-7.231,1.894H73.55c-.237-.118-.237-.355-.356-.592a1.639,1.639,0,0,1,0-1.065.652.652,0,0,1,.593-.355A33.557,33.557,0,0,1,79,39.891a15.571,15.571,0,0,1,1.778-.355c.237-.119.593-.237.83-.355.356-.118.83-.355,1.3-.474a3.307,3.307,0,0,1,1.185-.118v-.947c-.118-.237-.118-.474-.237-.71,0-.118-.119-.237-.119-.474-.474-1.3-2.608-5.091-1.422-6.393s5.216.592,6.638.947a58.312,58.312,0,0,1,6.046,1.776,19.374,19.374,0,0,1,2.252,1.066c.948.474,1.9.829,2.845,1.3a15.5,15.5,0,0,0,2.489.947,50.89,50.89,0,0,1,5.927,2.249,11.191,11.191,0,0,1,3.319,1.776,4.41,4.41,0,0,1,1.778,3.2C113.5,44.035,113.5,44.509,113.38,44.982Z" transform="translate(36.691 14.807)"/><path class="a" d="M47.655,46.45a.9.9,0,0,0-.237-.474.717.717,0,0,0-.711-.355,2.237,2.237,0,0,0-.948.237l-.237.118c-.593.237-1.3.355-1.9.592a7.742,7.742,0,0,0-2.015.947,4.675,4.675,0,0,1-1.66.592c-.237,0-.474.118-.711.118a5.043,5.043,0,0,0-2.726,1.658,1.276,1.276,0,0,0-.356,1.066c.118.474.711.592,1.185.592h.237a7.54,7.54,0,0,0,2.726-.592,21.626,21.626,0,0,1,2.964-.829c.948-.237,1.778-.474,2.608-.71H46a2.557,2.557,0,0,0,1.9-1.776v-.592C47.655,46.923,47.655,46.687,47.655,46.45Z" transform="translate(18.135 22.811)"/><path class="a" d="M91.929,44.043c-1.422.355-5.69,1.3-6.994,1.776a15.842,15.842,0,0,0-2.134.829,5.248,5.248,0,0,1-1.778.592c-.237,0-.593.118-.83.118a14.349,14.349,0,0,0-2.964.947.116.116,0,0,0-.118.118v.237l.356,1.066c.118.237.118.474.356.592a.757.757,0,0,0,.711,0,13.878,13.878,0,0,0,2.964-.829,29.715,29.715,0,0,1,3.082-.829,8.141,8.141,0,0,0,2.015-.592c.83-.237,5.571-2.249,6.4-2.249,1.422,0,.355,1.421.118,2.486,0,.237-.118.355-.118.592a.779.779,0,0,0,.948.592,1.245,1.245,0,0,0,1.067-.592,5.483,5.483,0,0,0,2.015-2.841,18.781,18.781,0,0,1,2.134-3.2c.237-.355.474-.947.237-1.3a.9.9,0,0,0-.474-.237,38.843,38.843,0,0,0-8.3-1.065,1.5,1.5,0,0,0-.711.118.432.432,0,0,0-.237.592c0,.118.237.237.356.355a7.707,7.707,0,0,0,2.726,1.065.9.9,0,0,1,.474.237.446.446,0,0,1-.118.71c-.237.237-.474.237-.711.355C92.166,44.043,92.047,44.043,91.929,44.043Z" transform="translate(38.702 20.127)"/><path class="a" d="M14.12,62.6a3.071,3.071,0,0,0-1.3.829A3.016,3.016,0,0,0,12.7,65.91a.9.9,0,0,0,.237.474c.118.118.356,0,.474,0,1.422-.355,2.845-.71,4.149-.947,1.185-.237,2.608-2.6,1.422-3.67C18.032,60.7,15.187,62.24,14.12,62.6Z" transform="translate(6.269 30.698)"/><path class="a" d="M3.473,51.1l11.38,13.733s6.164-9,13.632-2.96c7.587,6.038,2.252,18.351,1.541,25.454A34.837,34.837,0,0,0,35,109.58c4.623,7.458,15.41,13.615,27.027,15.746.83.118,1.778.237,2.608.355l1.185,12.786H74.6l1.185-12.431c20.033-1.658,48.364-21.192,35.68-54.1-5.808-15.154-18.137-37.766-18.137-37.766h.119c4.86-1.184,5.808-7.577.118-10.892l4.03-3.789L91.666,17l2.252-8.051L81.353,14.039s-3.2-6.867-8.179-6.867a7.328,7.328,0,0,0-6.045,2.96,6.605,6.605,0,0,0-3.912-3.907,6.549,6.549,0,0,0-8.061,5.92,8.791,8.791,0,0,0,5.571,9.234c1.778.592,4.386,1.776,9.6-.474V44.584c0,7.932.711,20.955-2.726,27.94s-7.35,9.945-12.565,9.353c-5.808-.71-7.705-6.038-5.808-16.1,2.015-10.063,3.675-20.008-4.741-27.466S20.9,30.022,3.473,51.1Zm78.947-32.2a2.76,2.76,0,0,1,3.675,1.421,2.93,2.93,0,0,1-.948,3.907A2.76,2.76,0,0,1,81.472,22.8,2.766,2.766,0,0,1,82.42,18.893Z" transform="translate(1.743 3.011)"/></g></svg>