<svg xmlns="http://www.w3.org/2000/svg" width="211.304" height="187.403" viewBox="0 0 211.304 187.403"><defs><style>.a{fill:#fff;}</style></defs><g transform="translate(-307.118 -2520.346) rotate(43)"><path class="a" d="M2087.527,1577.985c-3.42.748-6.494,1.473-9.865.4a9.866,9.866,0,0,1-5.824-13.5c1.948-4.13,9.064-5.418,11.477-1.156.466.823.885,1.246,2.033.43,5.267-3.749,10-1.56,12.757,2.986,1.232,2.034,2.406,2.4,4.611,1.259,2.836-1.466,5.954-2.383,8.92-3.613.6-.25,1.213-.509,1.689-.125.2.157-.039.92-.159,1.387a38.186,38.186,0,0,1-1.561,5.6c-.571,1.332.143,1.625.962,1.995a32,32,0,0,0,3.539,1.4c1.172.368,1.624.8.579,1.827-.985.966-2.448,1.846-2.716,2.994-.165.714,1.647,1.763,2.318,2.821,1.952,3.073,1.519,7.281-2.322,8.9-1.735.731-.254,1.484-.074,1.815,3.884,7.121,7.556,14.358,10.946,21.715,3.619,7.854,7.58,15.586,9.6,24.115,3.073,13,.876,24.721-7.875,35.048-7.6,8.961-17.288,14.172-28.722,16.363-.437.084-.884.464-1.274.4-3.475-.594-2.96,2.121-3.128,3.954-.26,2.856-.536,5.7-.879,8.55-.165,1.374-.771,1.379-1.753,1.366a53.87,53.87,0,0,0-5.979.033c-2.075.2-2.448-1.012-2.468-2.541-.044-3.413-.625-6.772-.912-10.158-.1-1.172-.554-1.468-1.671-1.652-9.173-1.515-17.57-4.786-24.757-10.9-5.941-5.056-8.9-11.581-10.5-19.068-1.694-7.886.348-15.343,1.647-22.952.89-5.22,1.278-10.547-2.861-14.83-4.122-4.265-8.738-4.021-13.075-.021-.787.727-1.484,1.551-2.391,2.507-1.926-2.253-3.775-4.379-5.582-6.543-2.127-2.546-4.2-5.135-6.333-7.68-.5-.594-1.073-.922-.276-1.848,5.621-6.526,11.737-12.425,19.731-16,9.585-4.287,18.8-3.32,25.99,3.953a18.983,18.983,0,0,1,5.393,12.53c.464,6.778-1.186,13.231-2.2,19.8a17.115,17.115,0,0,0,.5,8.549c1.918,5.241,8.342,6.6,12.755,3.351,5.155-3.8,7.8-9.282,8.615-15.464C2088.532,1610.055,2086.81,1594.044,2087.527,1577.985Zm14.294-2.909a3.168,3.168,0,0,0-2.413,2.818c.055,1.488,1.742,3.321,3.04,3.11a2.675,2.675,0,0,0,2.424-2.788A3.554,3.554,0,0,0,2101.821,1575.075Z" transform="translate(0 5.804)"/><path class="a" d="M2099.845,1567.822c-.094-.036-.882.535-1.153-.293-.223-.681.31-1,.813-1.417,8.1-6.8,17.57-11.34,26.768-16.326a15.043,15.043,0,0,1,3.14-1.132,1.832,1.832,0,0,1,2.139.955,1.8,1.8,0,0,1-.264,2.085c-1.76,2.579-4.487,4-7.013,5.433a224.993,224.993,0,0,1-21.826,10.377A3.371,3.371,0,0,1,2099.845,1567.822Z" transform="translate(23.297 2.309)"/><path class="a" d="M2096.481,1548.548c-.12,4.035-2.2,6.3-4.73,8.278a1.267,1.267,0,0,1-.866.182c-2.284-.31-7.578-4.427-7.406-7.588a4.046,4.046,0,0,1,1.953-3.609,2.812,2.812,0,0,1,3.722.521c.479.589.869.417,1.236-.09a3.069,3.069,0,0,1,4.062-.945A3.394,3.394,0,0,1,2096.481,1548.548Z" transform="translate(19.061 1.282)"/><path class="a" d="M2114.205,1541.938a23.662,23.662,0,0,1-2.271,5.029,90.9,90.9,0,0,1-13.208,16.419c-.658.664-1.463,1.71-2.362,1.036-.831-.622-.782-1.8-.174-2.875,2.441-4.328,5.645-8.107,8.633-12.034,2.233-2.935,4.706-5.687,7.08-8.513.408-.485.982-.961,1.552-.505C2113.87,1540.83,2114,1541.517,2114.205,1541.938Z" transform="translate(22.486 0)"/><path class="a" d="M2115.523,1571.677c3.939-.421,8.858.415,13.8.48,1.168.015,2.858.1,2.907,1.395.044,1.175-1.488,1.681-2.766,1.814a78.316,78.316,0,0,1-21.5-.4c-1.245-.215-2.538-.249-3.791-.524-.469-.1-1.137.2-1.209-.644a1.409,1.409,0,0,1,.673-1.566,4.713,4.713,0,0,1,2.377-.577C2108.842,1571.708,2111.674,1571.677,2115.523,1571.677Z" transform="translate(24.501 8.729)"/><path class="a" d="M2111.858,1568.89a8.737,8.737,0,0,1-1.606-.017,1.514,1.514,0,0,1-.981-2.633c1.927-2.266,8.318-3.659,10.948-2.383.944.457,1.222,1.057.5,1.975a6.713,6.713,0,0,1-3.937,2.46c-1.612.353-3.275.475-4.917.7Z" transform="translate(26.132 6.442)"/><path class="a" d="M2109.7,1582.916c.338,1.332-.427,1.649-1.761,1.521-2.505-.24-6.156-3.878-6.064-6.115.023-.581-.143-1.153.817-1.286C2105.141,1576.693,2109.68,1580.307,2109.7,1582.916Z" transform="translate(24.2 10.253)"/><path class="a" d="M2088.168,1672.439c-.887,2.322-1.646.729-2.422.029-.321.618.2,1.494-.678,2.2-.565-.97-.274-1.881-.352-2.724-.048-.522.077-1.139-.773-1.073-.673.053-.551.569-.613,1-.123.855.307,1.791-.428,2.731-1.242-1.206.68-3.715-2.027-4.131,3.154-1.208,5.187-.742,5.951,1.219.142-.022.321,0,.419-.076.6-.474.408-1.895,1.514-1.621,1.124.278.431,1.414.528,2.152a15.069,15.069,0,0,1-.092,2.506C2087.948,1674.036,2088.732,1673.069,2088.168,1672.439Z" transform="translate(18.335 36.177)"/></g></svg>